<svg width="131" height="153" viewBox="0 0 131 153" fill="none" xmlns="http://www.w3.org/2000/svg">
<path d="M65.5 85.9041C90.3373 85.9041 110.472 71.3403 110.472 53.3749C110.472 35.4095 90.3373 20.8457 65.5 20.8457C40.6627 20.8457 20.5281 35.4095 20.5281 53.3749C20.5281 71.3403 40.6627 85.9041 65.5 85.9041Z" fill="white"/>
<path d="M65.5 153C101.675 153 131 131.789 131 105.623C131 79.4568 101.675 58.2451 65.5 58.2451C29.3253 58.2451 0 79.4568 0 105.623C0 131.789 29.3253 153 65.5 153Z" fill="white"/>
<path d="M74.2579 53.5983C74.2348 53.5806 74.2169 53.5606 74.1947 53.5429C71.4944 51.4636 67.229 50.1261 62.4805 52.5684C58.267 54.7361 57.8458 58.8908 60.5462 60.9703C60.5693 60.988 60.5961 61.0019 60.6189 61.0196C60.8381 61.192 61.0966 61.3515 61.3991 61.495C61.7968 61.698 62.2283 61.8623 62.6868 61.9878L76.6706 65.566C79.1905 66.4639 80.3658 65.6652 79.2834 63.7902L75.4646 55.152C75.3198 54.8127 75.1188 54.4913 74.8652 54.1909C74.686 53.964 74.4814 53.7674 74.2579 53.5983Z" fill="#F72F56"/>
<path d="M69.5506 105.237C69.5506 106.855 67.7369 108.167 65.5004 108.167C63.2632 108.167 61.4502 106.855 61.4502 105.237C61.4502 103.619 63.2632 102.308 65.5004 102.308C67.7369 102.308 69.5506 103.619 69.5506 105.237Z" fill="#824D29"/>
<path d="M65.5004 92.0067C67.7373 92.0067 69.5506 90.6951 69.5506 89.0771C69.5506 87.4591 67.7373 86.1475 65.5004 86.1475C63.2635 86.1475 61.4502 87.4591 61.4502 89.0771C61.4502 90.6951 63.2635 92.0067 65.5004 92.0067Z" fill="#824D29"/>
<path d="M79.5439 49.5277C81.1226 49.5277 82.4023 48.602 82.4023 47.4601C82.4023 46.3182 81.1226 45.3926 79.5439 45.3926C77.9653 45.3926 76.6855 46.3182 76.6855 47.4601C76.6855 48.602 77.9653 49.5277 79.5439 49.5277Z" fill="black"/>
<path d="M54.6488 49.5281C56.2276 49.5281 57.5075 48.6024 57.5075 47.4604C57.5075 46.3183 56.2276 45.3926 54.6488 45.3926C53.0699 45.3926 51.79 46.3183 51.79 47.4604C51.79 48.6024 53.0699 49.5281 54.6488 49.5281Z" fill="black"/>
<path d="M69.5506 121.397C69.5506 123.015 67.7369 124.327 65.5004 124.327C63.2632 124.327 61.4502 123.015 61.4502 121.397C61.4502 119.779 63.2632 118.468 65.5004 118.468C67.7369 118.468 69.5506 119.779 69.5506 121.397Z" fill="#824D29"/>
<path d="M82.0696 22.4785H50.1528L46.9612 0H85.2605L82.0696 22.4785Z" fill="#288C66"/>
<path d="M91.2871 22.3595C91.2871 23.7463 89.7329 24.8704 87.8158 24.8704H43.8456C41.9284 24.8704 40.3743 23.7463 40.3743 22.3595C40.3743 20.9728 41.9284 19.8486 43.8456 19.8486H87.8158C89.7329 19.8486 91.2871 20.9728 91.2871 22.3595Z" fill="#288C66"/>
<path d="M82.7858 17.457H49.4363L49.7619 19.8484H82.4602L82.7858 17.457Z" fill="black"/>
<path d="M64.3821 63.4975C64.3821 63.4975 64.841 64.4017 64.3821 65.1485C64.3821 65.1485 61.3531 64.3625 58.5073 66.4458C55.6618 68.5291 53.5516 73.4423 47.0341 73.4423C40.5172 73.4423 40.104 70.7301 40.6548 68.2933C40.6548 68.2933 43.408 67.6247 47.447 68.4701C47.447 68.4701 50.6899 69.433 53.0844 67.4284C55.4787 65.4237 60.1597 62.9865 64.3821 63.4975Z" fill="#603813"/>
</svg>
