<svg width="106" height="102" viewBox="0 0 106 102" fill="none" xmlns="http://www.w3.org/2000/svg">
<path d="M52.6872 0C47.3219 0 42.1457 0.782402 37.2682 2.22495C38.3432 4.14502 38.9547 6.34427 38.9547 8.68152C38.9547 15.4524 33.8235 21.0484 27.1234 22.0648C26.506 29.0047 20.5004 34.4522 13.1725 34.4522C9.71321 34.4522 6.55426 33.2347 4.11037 31.2244C1.46481 37.3068 0 43.9864 0 51.0003C0 79.1669 23.5894 102 52.6872 102C81.7862 102 105.375 79.1669 105.375 51.0003C105.375 22.8326 81.7862 0 52.6872 0ZM12.8917 58.053C9.6411 58.053 7.00692 55.5026 7.00692 52.3562C7.00692 49.2103 9.6411 46.6595 12.8917 46.6595C16.1428 46.6595 18.7775 49.2103 18.7775 52.3562C18.7775 55.5021 16.1422 58.053 12.8917 58.053ZM64.178 43.4044C64.178 46.5503 61.5428 49.1007 58.2922 49.1007C55.0417 49.1007 52.4075 46.5503 52.4075 43.4044C52.4075 40.257 55.0417 37.7072 58.2922 37.7072C61.5428 37.7072 64.178 40.257 64.178 43.4044ZM30.547 83.2815C27.2975 83.2815 24.6622 80.7323 24.6622 77.5843C24.6622 74.4384 27.2975 71.8886 30.547 71.8886C33.7981 71.8886 36.4328 74.4384 36.4328 77.5843C36.4333 80.7323 33.7981 83.2815 30.547 83.2815ZM36.4333 54.7969C33.1828 54.7969 30.5475 52.2476 30.5475 49.1012C30.5475 45.9548 33.1828 43.405 36.4333 43.405C39.6839 43.405 42.3186 45.9548 42.3186 49.1012C42.3186 52.2476 39.6839 54.7969 36.4333 54.7969ZM36.4333 31.1966C33.1828 31.1966 30.5475 28.6473 30.5475 25.4999C30.5475 22.3545 33.1828 19.8037 36.4333 19.8037C39.6839 19.8037 42.3186 22.3545 42.3186 25.4999C42.3186 28.6473 39.6839 31.1966 36.4333 31.1966ZM46.5217 8.4097C46.5217 5.26328 49.1564 2.71245 52.4069 2.71245C55.6575 2.71245 58.2917 5.26328 58.2917 8.4097C58.2917 11.5561 55.6575 14.1059 52.4069 14.1059C49.1564 14.1064 46.5217 11.5561 46.5217 8.4097ZM52.4075 70.2598C52.4075 67.1139 55.0417 64.5636 58.2922 64.5636C61.5428 64.5636 64.178 67.1139 64.178 70.2598C64.178 73.4062 61.5428 75.9565 58.2922 75.9565C55.0417 75.9565 52.4075 73.4067 52.4075 70.2598ZM64.178 94.675C60.9269 94.675 58.2922 92.1247 58.2922 88.9793C58.2922 85.8318 60.9269 83.2821 64.178 83.2821C67.4286 83.2821 70.0628 85.8318 70.0628 88.9793C70.0633 92.1241 67.4286 94.675 64.178 94.675ZM70.0633 25.4999C66.8122 25.4999 64.1786 22.9506 64.1786 19.8037C64.1786 16.6573 66.8128 14.1069 70.0633 14.1069C73.3139 14.1069 75.9492 16.6573 75.9492 19.8037C75.9492 22.9501 73.3139 25.4999 70.0633 25.4999ZM79.3119 43.4044C79.3119 40.257 81.9461 37.7072 85.1967 37.7072C88.4478 37.7072 91.0825 40.257 91.0825 43.4044C91.0825 46.5503 88.4478 49.1007 85.1967 49.1007C81.9461 49.1007 79.3119 46.5503 79.3119 43.4044ZM88.5594 75.957C85.3083 75.957 82.6747 73.4067 82.6747 70.2603C82.6747 67.1144 85.3083 64.5641 88.5594 64.5641C91.81 64.5641 94.4453 67.1144 94.4453 70.2603C94.4453 73.4067 91.81 75.957 88.5594 75.957Z" fill="#824D29"/>
<path d="M70.0633 25.4999C73.3136 25.4999 75.9485 22.9494 75.9485 19.8031C75.9485 16.6569 73.3136 14.1064 70.0633 14.1064C66.8129 14.1064 64.178 16.6569 64.178 19.8031C64.178 22.9494 66.8129 25.4999 70.0633 25.4999Z" fill="black"/>
<path d="M36.4334 31.1972C39.6837 31.1972 42.3187 28.6467 42.3187 25.5004C42.3187 22.3542 39.6837 19.8037 36.4334 19.8037C33.183 19.8037 30.5481 22.3542 30.5481 25.5004C30.5481 28.6467 33.183 31.1972 36.4334 31.1972Z" fill="black"/>
<path d="M52.407 14.1064C55.6573 14.1064 58.2923 11.5558 58.2923 8.40962C58.2923 5.26341 55.6573 2.71289 52.407 2.71289C49.1567 2.71289 46.5217 5.26341 46.5217 8.40962C46.5217 11.5558 49.1567 14.1064 52.407 14.1064Z" fill="black"/>
<path d="M58.2928 49.1014C61.5431 49.1014 64.178 46.5509 64.178 43.4047C64.178 40.2585 61.5431 37.708 58.2928 37.708C55.0424 37.708 52.4075 40.2585 52.4075 43.4047C52.4075 46.5509 55.0424 49.1014 58.2928 49.1014Z" fill="black"/>
<path d="M85.1973 49.1014C88.4476 49.1014 91.0826 46.5509 91.0826 43.4047C91.0826 40.2585 88.4476 37.708 85.1973 37.708C81.9469 37.708 79.312 40.2585 79.312 43.4047C79.312 46.5509 81.9469 49.1014 85.1973 49.1014Z" fill="black"/>
<path d="M88.5593 75.9569C91.8097 75.9569 94.4446 73.4064 94.4446 70.2602C94.4446 67.114 91.8097 64.5635 88.5593 64.5635C85.309 64.5635 82.6741 67.114 82.6741 70.2602C82.6741 73.4064 85.309 75.9569 88.5593 75.9569Z" fill="black"/>
<path d="M58.2928 75.9569C61.5431 75.9569 64.178 73.4064 64.178 70.2602C64.178 67.114 61.5431 64.5635 58.2928 64.5635C55.0424 64.5635 52.4075 67.114 52.4075 70.2602C52.4075 73.4064 55.0424 75.9569 58.2928 75.9569Z" fill="black"/>
<path d="M64.178 94.6747C67.4283 94.6747 70.0633 92.1242 70.0633 88.978C70.0633 85.8318 67.4283 83.2812 64.178 83.2812C60.9276 83.2812 58.2927 85.8318 58.2927 88.978C58.2927 92.1242 60.9276 94.6747 64.178 94.6747Z" fill="black"/>
<path d="M30.5468 71.8877C27.2974 71.8877 24.6621 74.4375 24.6621 77.5834C24.6621 80.7314 27.2974 83.2806 30.5468 83.2806C33.7979 83.2806 36.4327 80.7314 36.4327 77.5834C36.4332 74.4375 33.7979 71.8877 30.5468 71.8877Z" fill="black"/>
<path d="M36.4333 54.7967C39.6834 54.7967 42.3181 52.2464 42.3181 49.1005C42.3181 45.9546 39.6834 43.4043 36.4333 43.4043C33.1833 43.4043 30.5486 45.9546 30.5486 49.1005C30.5486 52.2464 33.1833 54.7967 36.4333 54.7967Z" fill="black"/>
<path d="M12.8916 58.0526C16.142 58.0526 18.7769 55.5021 18.7769 52.3559C18.7769 49.2097 16.142 46.6592 12.8916 46.6592C9.64127 46.6592 7.00635 49.2097 7.00635 52.3559C7.00635 55.5021 9.64127 58.0526 12.8916 58.0526Z" fill="black"/>
</svg>
