<svg width="66" height="65" viewBox="0 0 66 65" fill="none" xmlns="http://www.w3.org/2000/svg">
<path d="M32.7772 64.0257C14.7039 64.0257 0 50.3883 0 33.6261C0 16.8634 14.7039 3.22656 32.7772 3.22656C50.8505 3.22656 65.5542 16.8636 65.5542 33.6261C65.5542 50.3885 50.8505 64.0257 32.7772 64.0257ZM32.7772 19.8698C23.8805 19.8698 16.643 26.041 16.643 33.6261C16.643 41.2113 23.8807 47.3825 32.7772 47.3825C41.6735 47.3825 48.9112 41.2113 48.9112 33.6261C48.9114 26.041 41.6735 19.8698 32.7772 19.8698Z" fill="#288C66"/>
<path d="M38.2171 12.6027L51.3547 14.6054V0L32.4877 8.79116L13.6208 0V14.6054L27.138 12.5364L12.8845 27.4262L19.3059 26.3828L19.6139 32.5729L32.5488 11.7556H32.6925L45.6193 32.5729L45.9187 26.3497L52.382 27.4097L38.2171 12.6027Z" fill="#F72F56"/>
<path d="M60.4595 34.2207C60.4595 36.1437 58.9008 37.7024 56.9785 37.7024C55.0551 37.7024 53.4963 36.1437 53.4963 34.2207C53.4963 32.298 55.0551 30.7393 56.9785 30.7393C58.901 30.7393 60.4595 32.298 60.4595 34.2207Z" fill="#F9E238"/>
<path d="M48.826 52.9874C50.7487 52.9874 52.3075 51.4287 52.3075 49.5059C52.3075 47.5831 50.7487 46.0244 48.826 46.0244C46.9032 46.0244 45.3445 47.5831 45.3445 49.5059C45.3445 51.4287 46.9032 52.9874 48.826 52.9874Z" fill="#FFFADC"/>
<path d="M32.5227 58.7612C34.4456 58.7612 36.0044 57.2024 36.0044 55.2795C36.0044 53.3567 34.4456 51.7979 32.5227 51.7979C30.5998 51.7979 29.041 53.3567 29.041 55.2795C29.041 57.2024 30.5998 58.7612 32.5227 58.7612Z" fill="#F9E238"/>
<path d="M14.5201 52.3077C16.4428 52.3077 18.0015 50.749 18.0015 48.8262C18.0015 46.9034 16.4428 45.3447 14.5201 45.3447C12.5973 45.3447 11.0386 46.9034 11.0386 48.8262C11.0386 50.749 12.5973 52.3077 14.5201 52.3077Z" fill="#F78E39"/>
<path d="M8.40628 37.7022C10.3291 37.7022 11.8878 36.1435 11.8878 34.2207C11.8878 32.298 10.3291 30.7393 8.40628 30.7393C6.48351 30.7393 4.9248 32.298 4.9248 34.2207C4.9248 36.1435 6.48351 37.7022 8.40628 37.7022Z" fill="#F9E238"/>
<path d="M12.482 22.7569C14.4048 22.7569 15.9635 21.1982 15.9635 19.2754C15.9635 17.3527 14.4048 15.7939 12.482 15.7939C10.5592 15.7939 9.00049 17.3527 9.00049 19.2754C9.00049 21.1982 10.5592 22.7569 12.482 22.7569Z" fill="#FFFADC"/>
<path d="M56.384 19.2756C56.384 21.1986 54.8247 22.7573 52.9024 22.7573C50.9792 22.7573 49.4207 21.1984 49.4207 19.2756C49.4207 17.3529 50.9792 15.7939 52.9024 15.7939C54.8245 15.7939 56.384 17.3529 56.384 19.2756Z" fill="#F78E39"/>
</svg>
