<svg width="24" height="38" viewBox="0 0 24 38" fill="none" xmlns="http://www.w3.org/2000/svg">
<path d="M16.1364 32.847C16.1364 32.847 28.2871 14.0191 22.3805 12.0783C18.4254 10.7788 16.3053 17.0508 16.3053 17.0508C16.3053 17.0508 19.4948 -0.58922 8.79564 0.0151844C-6.13907 0.859139 2.46736 32.847 2.46736 32.847H2.45354L1.95442 37.6026H16.594L16.0948 32.847H16.1364Z" fill="#F72F56"/>
<path d="M16.3701 35.502H2.17783L2.05762 36.6079H16.4906L16.3701 35.502Z" fill="white"/>
<path d="M16.1637 33.5107H2.38448L2.26404 34.6167H16.284L16.1637 33.5107Z" fill="white"/>
<path d="M13.8847 22.1194H10.3871L12.9008 19.6697C13.0493 19.521 13.0493 19.3125 12.9008 19.1639L12.8522 19.1309C12.7036 18.9824 12.4511 18.9905 12.3027 19.139L9.81774 21.62V18.0652C9.81774 17.8553 9.67076 17.585 9.46096 17.585H9.39184C9.18182 17.585 8.82249 17.8553 8.82249 18.0652V21.5628L6.40344 19.0491C6.25502 18.9006 6.06181 18.9006 5.91328 19.0491L5.88795 19.0979C5.73953 19.2463 5.75136 19.4235 5.89978 19.5718L8.52289 22.1194H4.82988C4.61986 22.1194 4.39856 22.4171 4.39856 22.6271V22.6961C4.39856 22.9062 4.61975 23.0041 4.82988 23.0041H8.38476L5.91151 25.5134C5.76309 25.6619 5.76309 25.9207 5.91151 26.0692L5.96039 26.127C6.10892 26.2754 6.25491 26.28 6.40333 26.1316L8.82238 23.6224V27.12C8.82238 27.3298 9.18171 27.5386 9.39173 27.5386H9.46085C9.67065 27.5386 9.81763 27.3298 9.81763 27.12V23.5651L12.3025 26.0382C12.4509 26.1868 12.6973 26.1868 12.8458 26.0383L12.8977 25.9895C13.0462 25.8409 13.0475 25.5642 12.899 25.4158L10.5252 23.0041H13.8846C14.0945 23.0041 14.2415 22.9062 14.2415 22.6961V22.6271C14.2416 22.4171 14.0946 22.1194 13.8847 22.1194Z" fill="white"/>
<path d="M10.3662 19.6216L9.38429 21.8265L8.52773 19.5459C8.47564 19.4107 8.33485 19.3481 8.19959 19.4L8.16066 19.4196C8.0254 19.4715 7.95097 19.646 8.00306 19.7812L8.86084 22.0573L6.62006 21.0592C6.48757 21.0003 6.35165 21.0172 6.2927 21.1494L6.27335 21.193C6.2144 21.3254 6.25421 21.5248 6.38648 21.5836L8.59143 22.5657L6.31106 23.4224C6.17558 23.4744 6.11309 23.615 6.16507 23.7503L6.18465 23.7893C6.23652 23.9246 6.36735 23.9796 6.5025 23.9275L8.86106 23.0017L7.82423 25.33C7.76528 25.4622 7.86902 25.6371 8.00162 25.696L8.04508 25.7154C8.17758 25.7744 8.28994 25.6958 8.34867 25.5634L9.34669 23.3224L10.2329 25.5853C10.2848 25.7206 10.4472 25.7929 10.5825 25.741L10.6322 25.7263C10.7675 25.6745 10.8281 25.5461 10.7761 25.4107L9.88993 23.1437L12.0948 24.1257C12.2273 24.1845 12.4021 24.0809 12.4611 23.9484L12.4804 23.9048C12.5394 23.7724 12.4607 23.6602 12.3283 23.6012L10.0873 22.6033L12.3503 21.717C12.4856 21.6653 12.5579 21.5028 12.5061 21.3675L12.4912 21.3176C12.4394 21.1822 12.2675 21.1024 12.1324 21.1544L9.94766 21.9727L10.8908 19.855C10.9495 19.7227 10.9331 19.5866 10.8006 19.5278L10.7571 19.5083C10.6244 19.4494 10.4249 19.4892 10.3662 19.6216Z" fill="white"/>
</svg>
