<svg width="274" height="339" viewBox="0 0 274 339" fill="none" xmlns="http://www.w3.org/2000/svg">
<g filter="url(#filter0_d_1_8834)">
<path d="M162.439 284.132L168.069 309.011L174.993 308.326L177.579 280.708L162.439 284.132Z" fill="#E4E3F3"/>
<path d="M163.504 288.697C163.504 288.697 171.112 289.534 171.569 292.349C171.949 295.164 172.406 300.261 171.873 300.566C171.341 300.87 166.7 302.62 166.7 302.62H175.601L176.971 287.403L169.515 285.045L163.504 288.697Z" fill="url(#paint0_linear_1_8834)"/>
<path d="M199.034 314.945C193.404 312.434 184.351 308.174 180.47 305.359C180.166 305.13 180.014 304.826 180.014 304.446V301.022C180.014 300.337 179.329 299.805 178.644 299.957L164.798 303.152C164.265 303.304 163.885 303.837 163.961 304.37L165.939 316.086C166.015 316.619 166.471 316.999 167.004 316.999H174.232C174.764 316.999 175.221 316.619 175.297 316.086C175.525 315.097 176.818 314.869 177.275 315.706C177.655 316.391 178.112 316.923 178.492 316.923H198.578C199.719 316.999 200.1 315.401 199.034 314.945Z" fill="#34241D"/>
<path d="M171.873 302.315C171.873 302.315 164.721 303.533 164.721 304.522C164.721 305.511 167.004 315.782 167.004 315.782H172.862C172.862 315.782 169.134 315.173 168.83 312.663C168.526 310.152 168.069 304.826 168.83 304.37C169.515 303.913 171.873 302.315 171.873 302.315Z" fill="url(#paint1_linear_1_8834)"/>
<path d="M179.786 305.814L178.645 310.455C178.645 310.455 181.155 309.619 183.438 310.455C185.72 311.292 199.035 315.781 199.035 315.781L179.786 305.814Z" fill="url(#paint2_linear_1_8834)"/>
<path d="M124.398 278.884V307.719L115.801 308.48L110.703 282.688L124.398 278.884Z" fill="#E4E3F3"/>
<path d="M124.398 286.72V303.23L123.409 304.904C123.409 304.904 112.377 304.98 117.094 302.317C121.887 299.654 119.833 296.078 119.453 293.643C119.072 291.209 116.485 289.839 116.485 289.839L123.941 285.198L124.398 286.72Z" fill="url(#paint3_linear_1_8834)"/>
<path d="M110.931 303.078L126.376 301.176C126.832 301.1 127.289 301.48 127.289 301.937L127.898 316.088C127.898 316.544 127.517 316.925 127.061 316.925H120.137C119.909 316.925 119.681 316.773 119.529 316.62L117.855 314.414C117.55 314.034 116.942 313.958 116.637 314.338L114.507 316.62C114.355 316.773 114.127 316.849 113.899 316.849H92.2912C91.3782 316.849 91.1499 315.631 91.9869 315.327L110.703 307.643C111.083 307.491 111.312 307.034 111.16 306.578L110.247 304.067C110.094 303.686 110.399 303.154 110.931 303.078Z" fill="#34241D"/>
<path d="M115.192 303.763C115.192 303.763 112.833 304.067 112.833 304.904C112.833 305.741 114.735 310.61 114.735 310.61C114.735 310.61 112.225 310.078 111.616 310.078C111.007 310.078 93.8129 315.784 93.8129 315.784C93.8129 315.784 111.92 308.632 111.996 307.871C112.073 307.11 110.094 303.763 110.627 303.763C111.084 303.763 116.485 303.078 116.485 303.078L115.192 303.763Z" fill="url(#paint4_linear_1_8834)"/>
<path d="M121.583 302.622C121.583 302.622 126.376 302.013 126.376 302.165C126.376 302.317 127.669 315.632 126.985 315.784C126.3 315.936 122.344 315.784 122.344 315.784C122.344 315.784 125.159 315.556 125.235 314.11C125.311 312.664 126.833 301.632 121.583 302.622Z" fill="url(#paint5_linear_1_8834)"/>
<path d="M184.351 285.046C184.046 285.198 183.666 285.35 183.362 285.426C173.395 289.23 165.558 289.002 161.298 288.469H161.222C160.613 288.393 160.08 288.317 159.624 288.165C158.559 287.937 157.95 287.709 157.95 287.709L159.32 280.177C159.32 280.177 153.613 270.286 148.059 265.645C147.07 264.808 146.005 264.123 145.092 263.667C144.712 263.515 144.407 263.362 144.027 263.286C138.017 261.308 131.55 264.123 130.789 264.427C130.028 264.732 126.604 280.177 126.604 280.177L127.745 288.089C124.778 288.926 121.963 289.459 119.453 289.687C116.485 289.991 113.899 289.839 111.692 289.535C110.323 289.382 109.029 289.078 107.964 288.774C103.932 287.709 101.801 286.263 101.801 286.263L103.78 279.035L95.7149 246.548V246.472L94.6498 242.059C95.7149 242.212 96.704 242.364 97.7692 242.44C144.712 247.994 183.133 226.995 183.133 226.995C184.959 233.919 181.916 276.905 181.916 276.905L183.97 283.296L184.351 285.046Z" fill="#C23434"/>
<path d="M143.951 263.363C137.94 261.385 131.473 264.2 130.713 264.504C129.952 264.808 126.528 280.253 126.528 280.253L127.745 288.089C124.778 288.926 121.963 289.459 119.453 289.687L111.692 289.535C111.92 289.535 120.442 288.774 121.126 285.883C121.887 282.916 113.746 282.079 113.746 282.079C113.746 282.079 121.735 281.927 122.572 279.797C123.409 277.742 126.832 267.319 124.398 264.732C121.887 262.145 111.692 259.635 111.692 259.635C111.692 259.635 140.527 261.537 143.951 263.363Z" fill="url(#paint6_linear_1_8834)"/>
<path opacity="0.5" d="M104.616 286.415C105.529 287.024 107.736 288.774 107.888 288.85C103.856 287.784 101.725 286.339 101.725 286.339L103.703 279.111L95.6388 246.624C96.0953 248.07 105.149 278.807 106.366 279.72C107.584 280.633 110.475 281.926 110.627 282.002C110.399 281.926 105.073 280.709 104.464 282.002C103.932 283.296 103.703 285.73 104.616 286.415Z" fill="url(#paint7_linear_1_8834)"/>
<path opacity="0.5" d="M166.547 281.394C166.547 281.394 161.754 281.774 161.145 282.839C160.537 283.904 159.624 288.165 159.624 288.165C158.559 287.937 157.95 287.708 157.95 287.708L159.319 280.176C159.319 280.176 153.613 270.286 148.059 265.645C151.103 267.699 155.744 271.122 158.026 274.166C161.678 278.959 161.069 280.481 161.982 280.633C162.895 280.861 166.547 281.394 166.547 281.394Z" fill="url(#paint8_linear_1_8834)"/>
<path d="M184.351 285.045L183.361 285.425C173.395 289.229 165.558 289.001 161.298 288.469H161.222C161.222 288.469 170.047 288.621 174.079 286.719C178.112 284.817 179.101 280.708 177.503 279.719C175.905 278.73 168.602 280.708 168.602 280.708C168.602 280.708 174.992 276.372 175.297 275.382C175.601 274.393 172.253 264.198 170.808 260.47C169.286 256.818 162.743 253.775 159.396 252.938C155.972 252.101 137.18 256.286 121.963 254.916C106.747 253.547 95.6388 246.471 95.6388 246.471L97.6169 242.515C144.56 248.069 182.981 227.07 182.981 227.07C184.807 233.994 181.764 276.98 181.764 276.98L184.351 285.045Z" fill="url(#paint9_linear_1_8834)"/>
<path d="M195.383 219.31C194.013 220.756 192.644 222.201 191.274 223.571C189.676 225.092 188.155 226.614 186.557 227.983C163.428 248.678 141.136 254.004 122.648 252.938C95.0302 251.341 76.0858 235.287 76.0858 235.287C85.9004 231.864 87.422 224.94 87.422 224.94L90.9218 223.875L94.3455 222.886L93.3564 220.375L88.7154 208.735C82.4767 203.942 78.9008 197.855 77.1509 191.388C71.5969 171.302 83.0853 147.565 83.0853 147.565C62.2388 152.434 47.8593 136.533 47.0985 134.707C46.3377 132.881 48.3919 115.458 65.3582 120.556C66.2712 120.86 67.2602 121.012 68.2493 121.164C86.6612 123.979 124.398 109.448 124.398 109.448C131.474 107.013 142.582 107.317 153.994 111.121C156.885 112.034 159.776 113.252 162.591 114.621C163.124 119.414 164.645 122.458 164.645 122.458C168.449 121.621 171.569 121.469 174.156 121.773C175.753 122.99 177.275 124.284 178.721 125.653C181.155 127.936 183.133 130.751 184.731 133.946C186.329 137.141 187.47 140.641 188.383 144.369C189.905 150.684 190.513 157.608 190.665 164.151C190.894 177.465 188.992 189.41 188.231 192.225C186.709 198.159 183.59 201.963 183.59 201.963L185.34 213.3L195.383 219.31Z" fill="#C23434"/>
<path d="M195.382 219.31C194.013 220.756 192.644 222.201 191.274 223.571C189.676 225.092 188.155 226.614 186.557 227.983C185.416 226.31 182.372 224.179 174.612 227.146C163.428 231.483 139.462 235.135 139.462 235.135L98.9104 211.626C199.947 216.495 143.114 137.446 138.93 136.913C134.745 136.381 131.321 139.652 122.952 141.326C114.507 143 110.855 136.913 110.855 136.913V135.163L132.995 115.534C132.995 115.534 143.038 113.023 153.842 111.273C156.733 112.186 159.624 113.404 162.439 114.773C162.972 119.566 164.493 122.61 164.493 122.61C168.297 121.773 171.417 121.621 174.003 121.925C175.601 123.142 177.123 124.436 178.568 125.805C181.003 128.088 182.981 130.903 184.579 134.098C186.177 137.294 187.318 140.793 188.231 144.521C189.296 151.825 189.981 158.977 190.513 164.303C190.741 177.617 188.839 189.562 188.079 192.377C186.557 198.311 183.438 202.115 183.438 202.115L185.188 213.452L195.382 219.31Z" fill="url(#paint10_linear_1_8834)"/>
<path d="M94.802 127.251L83.0853 147.565C62.2388 152.434 47.8593 136.533 47.0985 134.707C46.3377 132.881 48.3919 115.458 65.3582 120.556C66.2712 120.86 67.2602 121.012 68.2493 121.164C68.2493 121.164 63.8365 123.827 61.7062 126.186C59.5759 128.544 55.3914 138.967 69.3145 140.261C83.0092 141.63 94.4216 127.707 94.802 127.251Z" fill="url(#paint11_linear_1_8834)"/>
<path opacity="0.5" d="M104.693 134.021C104.693 134.021 96.3997 136.228 92.3673 134.021C92.3673 134.021 77.9878 159.433 77.0748 176.095C76.2379 191.311 82.6288 196.561 82.6288 196.561C82.6288 196.561 79.1291 172.519 87.1177 155.857C95.1824 139.271 104.693 134.021 104.693 134.021Z" fill="url(#paint12_linear_1_8834)"/>
<path opacity="0.5" d="M129.8 251.493L122.648 252.862C95.0303 251.265 76.0858 235.211 76.0858 235.211C85.9004 231.864 87.422 224.94 87.422 224.94L90.9218 223.875L114.812 230.722C114.812 230.722 104.084 235.744 101.878 239.472C99.5952 243.276 129.8 251.493 129.8 251.493Z" fill="url(#paint13_linear_1_8834)"/>
<path d="M159.396 221.592L93.3564 220.375L88.7154 208.734C82.4766 203.941 78.9008 197.855 77.1509 191.388C77.1509 191.388 85.2917 215.354 115.42 218.016C145.473 220.679 159.396 221.592 159.396 221.592Z" fill="url(#paint14_linear_1_8834)"/>
<path d="M69.0863 123.142C69.0863 123.142 78.5966 124.968 83.3137 124.436C88.0308 123.903 89.7806 130.294 89.7806 130.294L97.3889 119.643C97.3889 119.643 81.792 124.284 69.0863 123.142Z" fill="url(#paint15_linear_1_8834)"/>
<path d="M88.7154 208.736C88.7154 208.736 84.9113 222.354 87.422 224.941C94.1172 231.941 142.886 248.374 187.166 214.442C187.166 214.442 187.622 198.997 183.362 201.128C179.101 203.258 138.017 224.789 88.7154 208.736Z" fill="#34241D"/>
<path d="M98.3016 212.616C98.3016 212.616 89.9326 209.192 89.6282 210.333C89.3239 211.475 87.498 220.757 87.9544 222.811C88.4109 224.865 90.5412 226.767 93.128 227.832C95.7148 228.898 97.769 229.278 97.769 229.278C97.769 229.278 90.6934 226.235 90.4652 222.278C90.1608 218.322 91.226 212.692 93.128 212.464C95.0301 212.312 98.3016 212.616 98.3016 212.616Z" fill="url(#paint16_linear_1_8834)"/>
<path d="M151.635 213.833C151.635 213.833 180.623 204.703 183.514 203.257C184.731 202.649 185.34 213.376 185.34 213.376C185.34 213.376 182.601 207.29 180.623 207.29C178.644 207.29 156.124 213.681 151.635 213.833Z" fill="url(#paint17_linear_1_8834)"/>
<path d="M134.06 211.55C133.908 211.246 133.071 211.169 131.854 211.169C128.811 211.246 123.104 211.93 117.474 212.082C109.562 212.311 105.453 210.789 105.453 210.789C104.693 210.789 104.084 211.702 103.627 213.148C102.03 218.093 102.258 229.505 104.008 232.472C105.758 235.44 112.681 236.505 119.529 236.581C123.713 236.657 127.821 236.353 130.789 235.896C132.615 235.592 134.06 235.288 134.745 234.907C138.473 233.081 134.669 212.463 134.06 211.55ZM129.267 232.092C126.756 233.309 111.007 234.451 108.192 230.646C108.116 230.57 108.116 230.494 108.04 230.418C106.518 227.755 106.671 215.354 109.105 215.43C109.105 215.43 111.92 216.495 117.398 216.343C122.876 216.191 128.43 215.278 128.887 215.963C129.191 216.571 131.854 230.799 129.267 232.092Z" fill="#E4E3F3"/>
<path d="M134.06 211.55C133.452 210.561 125.387 211.854 117.474 212.082C109.562 212.311 105.453 210.789 105.453 210.789C104.693 210.789 104.084 211.702 103.627 213.148C103.704 212.995 104.464 211.398 105.606 211.854C106.823 212.387 107.051 212.919 107.051 213.908C107.051 214.898 105.149 215.43 105.301 216.115C105.453 216.876 105.377 228.44 105.834 229.886C106.29 231.331 109.486 233.69 112.301 233.918C115.116 234.146 122.8 233.842 122.952 234.451C123.028 235.059 123.713 235.82 119.453 236.581C126.148 236.657 132.843 235.82 134.745 234.907C138.473 233.081 134.669 212.463 134.06 211.55ZM129.267 232.092C126.68 233.385 110.399 234.451 107.964 230.418C106.442 227.755 106.595 215.354 109.029 215.43C109.029 215.43 111.844 216.495 117.322 216.343C122.8 216.191 128.354 215.278 128.811 215.963C129.191 216.571 131.854 230.799 129.267 232.092Z" fill="url(#paint18_linear_1_8834)"/>
<path d="M128.811 215.962C128.354 215.278 122.8 216.191 117.322 216.343C111.844 216.495 109.029 215.43 109.029 215.43C106.671 215.354 106.443 227.755 107.964 230.418C108.04 230.494 108.04 230.57 108.116 230.646C108.421 231.94 109.181 233.081 109.181 233.081C107.432 232.396 106.366 230.95 105.834 229.961C105.225 229.048 105.377 217.864 105.301 216.191C105.225 214.517 105.606 213.604 107.051 213.984C112.986 215.43 129.191 214.288 129.8 214.288C130.332 214.212 128.811 215.962 128.811 215.962Z" fill="url(#paint19_linear_1_8834)"/>
<path d="M134.669 234.907C133.984 235.287 132.539 235.591 130.713 235.896C130.713 235.896 132.539 233.461 133.071 232.244C133.604 230.95 131.321 215.201 131.245 214.821C131.169 214.364 133.604 214.136 133.908 213.147C134.212 212.158 131.93 211.321 131.778 211.245C132.995 211.245 133.832 211.321 133.984 211.626C134.669 212.462 138.473 233.081 134.669 234.907Z" fill="url(#paint20_linear_1_8834)"/>
<path d="M119.337 149.211C119.793 147.29 118.604 145.363 116.683 144.907C114.761 144.451 112.834 145.639 112.378 147.561C111.922 149.482 113.111 151.41 115.032 151.865C116.954 152.321 118.881 151.133 119.337 149.211Z" fill="#34241D"/>
<path d="M110.855 177.845C112.41 177.845 113.67 176.585 113.67 175.03C113.67 173.475 112.41 172.215 110.855 172.215C109.301 172.215 108.04 173.475 108.04 175.03C108.04 176.585 109.301 177.845 110.855 177.845Z" fill="#34241D"/>
<path d="M114.481 203.098C115.699 201.88 115.699 199.905 114.481 198.687C113.263 197.469 111.288 197.469 110.069 198.687C108.851 199.905 108.851 201.88 110.069 203.098C111.288 204.316 113.263 204.316 114.481 203.098Z" fill="#34241D"/>
<path d="M110.323 173.355C109.79 173.432 109.41 173.736 109.105 174.192C108.801 174.649 108.573 175.334 108.953 175.79C109.182 176.094 109.638 176.094 109.79 175.714C109.942 175.334 109.866 174.953 109.942 174.649C110.018 174.268 110.247 173.888 110.475 173.66C110.551 173.508 110.475 173.355 110.323 173.355Z" fill="white"/>
<path d="M115.04 145.662C114.279 145.814 113.67 146.27 113.29 146.879C112.986 147.335 112.681 148.324 113.214 148.781C113.67 149.161 113.899 148.401 113.899 148.02C114.127 147.183 114.507 146.499 115.192 145.966C115.344 145.814 115.192 145.586 115.04 145.662Z" fill="white"/>
<path d="M111.464 199.376C111.388 199.3 111.312 199.3 111.236 199.376C110.779 199.681 110.475 200.061 110.323 200.594C110.171 201.05 110.018 201.659 110.551 201.963C110.779 202.115 111.008 201.963 111.084 201.735C111.16 201.507 111.084 201.278 111.084 200.974C111.084 200.67 111.16 200.442 111.312 200.137C111.312 200.061 111.616 199.452 111.464 199.376Z" fill="white"/>
<path d="M191.274 223.494C192.644 222.125 194.013 220.755 195.382 219.234L185.34 213.299L183.59 201.963C183.59 201.963 186.709 198.083 188.231 192.225C189.524 187.127 194.47 153.575 184.731 133.946C183.133 130.75 181.155 127.935 178.721 125.653C177.275 124.283 175.677 122.99 174.156 121.773C171.569 121.468 168.449 121.621 164.645 122.457C164.645 122.457 163.124 119.414 162.591 114.621C162.211 111.121 162.287 106.632 163.885 101.687C166.243 94.2309 182.905 85.4815 201.469 88.4487C212.273 90.1225 223.761 95.8287 233.5 107.926C233.652 109.143 239.434 147.108 252.596 159.357C265.835 171.759 236.695 234.374 191.274 223.494Z" fill="#733520"/>
<path d="M191.274 223.494C192.644 222.125 194.013 220.755 195.382 219.234L185.34 213.299L183.59 201.963C183.59 201.963 186.709 198.083 188.231 192.225C189.524 187.127 194.47 153.575 184.731 133.946C183.133 130.75 181.155 127.935 178.721 125.653C177.275 124.283 175.677 122.99 174.156 121.773C171.569 121.468 168.449 121.621 164.645 122.457C164.645 122.457 163.124 119.414 162.591 114.621C162.211 111.121 162.287 106.632 163.885 101.687C166.243 94.2309 182.905 85.4815 201.469 88.4487C201.013 88.5248 182.068 92.2528 178.873 95.1439C175.601 98.1111 172.025 113.556 177.351 116.675C182.677 119.795 198.654 117.36 201.469 124.892C204.284 132.424 200.936 145.434 206.034 150.836C211.131 156.314 235.326 161.792 236.163 156.238C236.999 150.76 233.652 109.143 233.5 107.85C233.652 109.067 239.434 147.032 252.596 159.281C265.835 171.759 236.695 234.374 191.274 223.494Z" fill="url(#paint21_linear_1_8834)"/>
<path d="M199.947 92.1769C199.947 92.1769 208.469 91.1118 214.403 95.2202C220.413 99.3286 231.065 108.382 231.065 108.382L232.054 124.968C232.13 124.968 230.532 100.166 199.947 92.1769Z" fill="url(#paint22_linear_1_8834)"/>
<path d="M201.241 192.073C199.263 192.453 196.828 192.453 194.393 191.921C189.981 191.008 185.644 188.345 183.97 183.247C181.383 175.259 178.873 155.934 178.873 155.934L188.079 146.195L193.633 140.337C193.633 140.337 211.208 163.77 211.968 168.716C212.653 173.585 206.795 191.008 201.241 192.073Z" fill="#C23434"/>
<path d="M201.241 192.073C199.263 192.453 196.828 192.453 194.393 191.92C194.546 191.92 197.132 192.301 198.502 191.388C199.871 190.475 203.143 185.606 202.991 180.432C202.839 175.258 198.958 169.4 196.372 164.303C193.785 159.281 188.079 160.042 188.079 160.042V146.119L193.633 140.261C193.633 140.261 211.208 163.694 211.968 168.639C212.653 173.585 206.795 191.007 201.241 192.073Z" fill="url(#paint23_linear_1_8834)"/>
<path d="M180.623 164.379C180.623 164.379 183.97 181.193 188.307 183.932C192.644 186.595 195.306 187.28 195.306 187.28C195.306 187.28 192.491 189.866 187.926 187.28C183.514 184.617 180.623 164.379 180.623 164.379Z" fill="url(#paint24_linear_1_8834)"/>
<path d="M195.383 153.044C190.589 162.63 181.079 166.891 171.949 161.489C169.819 160.196 168.297 158.598 167.232 156.848C163.732 150.99 165.178 143.534 165.178 143.534L176.134 130.219C176.134 130.219 176.21 129.687 176.362 128.926C176.818 126.872 178.264 123.144 182.449 123.144C188.155 123.144 192.035 126.491 192.948 127.785C193.861 129.078 195.535 133.947 196.828 135.773C198.198 137.523 200.176 143.457 195.383 153.044Z" fill="#E4E3F3"/>
<path d="M195.383 153.044C190.589 162.63 181.079 166.891 171.949 161.489C169.819 160.196 168.297 158.598 167.232 156.848L165.939 152.663L173.243 146.501L176.742 148.479C176.742 148.479 176.895 153.805 179.558 153.653C182.22 153.5 185.492 152.055 189.676 146.957C191.046 145.36 192.644 139.73 192.644 137.067C192.644 134.099 192.111 128.241 189.676 127.176C183.438 124.361 183.209 128.469 183.209 128.469L178.873 131.893L176.21 129.002C176.666 126.948 178.112 123.22 182.296 123.22C188.003 123.22 191.883 126.567 192.796 127.861C193.709 129.154 195.383 134.023 196.676 135.849C198.198 137.523 200.176 143.458 195.383 153.044Z" fill="url(#paint25_linear_1_8834)"/>
<path d="M177.275 171.227C177.275 171.227 173.243 172.749 169.819 168.641C169.362 168.108 168.754 167.652 168.145 167.271C163.732 164.684 155.515 165.065 154.222 168.641C152.7 172.749 141.44 165.826 141.44 165.826C147.831 163.087 151.94 158.978 154.526 154.794C158.939 147.87 159.32 141.023 159.32 141.023C159.32 141.023 173.09 136.838 173.09 147.87C173.09 158.978 177.275 171.227 177.275 171.227Z" fill="#733520"/>
<path d="M177.275 171.227C177.275 171.227 173.243 172.749 169.819 168.641C169.362 168.108 168.754 167.652 168.145 167.271C167.689 165.521 167.689 163.543 167.156 160.804C166.243 155.935 165.102 149.772 162.287 150.913C159.472 152.055 154.526 164.532 154.526 164.532V154.794C158.939 147.87 159.32 141.023 159.32 141.023C159.32 141.023 173.09 136.838 173.09 147.87C173.09 158.978 177.275 171.227 177.275 171.227Z" fill="url(#paint26_linear_1_8834)"/>
<path d="M160.309 154.87C160.309 154.87 154.983 165.598 155.82 165.293C156.657 164.989 162.363 164.38 162.363 164.38C162.363 164.38 159.32 159.815 160.309 154.87Z" fill="url(#paint27_linear_1_8834)"/>
<path d="M150.874 160.576C150.874 160.576 146.462 164.761 143.495 165.826L148.972 168.184C148.972 168.108 145.929 167.119 150.874 160.576Z" fill="url(#paint28_linear_1_8834)"/>
<path d="M55.3914 106.481C55.924 107.85 56.3044 108.611 56.3044 108.611L56.2283 108.687L39.7946 123.599C32.2625 121.393 19.1003 100.318 18.1873 93.0144C17.2743 85.7866 19.8611 84.8737 22.4479 75.7438C23.2087 73.0048 25.1107 70.4941 27.3932 68.4399C32.6429 63.7228 39.8707 61.3643 39.7946 63.0381C39.7185 64.3315 40.4032 73.2331 41.6966 79.8522C42.8379 85.4823 44.3595 89.4386 46.2616 85.9388C48.3158 82.1347 50.5222 79.9283 52.3481 78.7871C54.1741 77.6459 55.6957 77.5698 56.3805 77.8741C57.826 78.5588 53.109 86.1671 52.7285 93.3949C52.5003 97.275 53.5654 101.46 54.6306 104.427L54.7067 104.655C54.9349 105.34 55.2393 105.948 55.3914 106.481Z" fill="#C23434"/>
<path d="M29.2191 68.4396C29.2191 68.4396 33.5558 65.5485 36.1426 65.0159C38.7294 64.4833 38.7294 69.0482 38.7294 69.0482L39.5663 88.0688C39.5663 88.0688 37.9686 69.8851 35.2296 69.0482C32.5667 68.2113 29.2191 68.4396 29.2191 68.4396Z" fill="url(#paint29_linear_1_8834)"/>
<path d="M56.2283 78.7109C56.2283 78.7109 51.8156 83.8845 50.5222 90.0472C49.3049 96.2098 52.2721 100.699 52.2721 100.699C52.2721 100.699 49.3049 93.4709 56.2283 78.7109Z" fill="url(#paint30_linear_1_8834)"/>
<path d="M56.2283 108.687L39.7946 123.599C32.2625 121.393 19.1003 100.318 18.1873 93.014C17.2743 85.7862 19.8611 84.8732 22.4479 75.7433C23.2087 73.0044 25.1107 70.4937 27.3932 68.4395C27.3932 68.4395 18.7959 85.7101 21.0023 93.014C23.2087 100.394 33.3276 115.61 36.447 116.599C39.5663 117.512 54.5545 104.35 54.5545 104.35L54.6306 104.578L55.3153 106.481L56.2283 108.687Z" fill="url(#paint31_linear_1_8834)"/>
<path d="M46.2615 100.242C46.1855 100.166 44.816 99.2532 43.2183 94.6122C41.6205 89.8951 41.6966 79.8523 41.6966 79.8523C42.8379 85.4823 44.3595 89.4386 46.2615 85.9388C48.3158 82.1347 50.5221 79.9283 52.3481 78.7871C43.1422 87.6126 46.1855 100.014 46.2615 100.242Z" fill="url(#paint32_linear_1_8834)"/>
<path d="M68.1732 121.241C68.1732 121.241 66.4994 120.937 65.2821 120.632C63.9887 120.328 56.7609 126.263 52.8807 131.436C49.0005 136.61 46.5659 142.848 44.1313 138.131C41.7727 133.49 37.8925 139.273 35.0014 129.838C32.1864 120.632 52.5764 105.036 53.4894 104.351C53.4894 104.351 56.0762 101.764 58.8151 104.351C61.0215 106.405 63.38 110.133 65.206 112.111C65.6625 112.644 66.0429 113.024 66.4233 113.252C68.4015 114.546 68.1732 121.241 68.1732 121.241Z" fill="#E4E3F3"/>
<path d="M68.1732 121.241C68.1732 121.241 66.4994 120.936 65.2821 120.632C63.9887 120.328 56.7609 126.262 52.8807 131.436C49.0005 136.609 46.5659 142.848 44.1313 138.131C41.7727 133.49 37.8925 139.272 35.0014 129.838C32.1864 120.632 52.5764 105.035 53.4894 104.351C52.8807 104.883 42.99 113.861 43.0661 116.372C43.1422 118.958 46.642 125.425 49.6092 124.969C52.5003 124.512 61.7823 118.045 63.8365 116.752C65.8907 115.459 65.206 112.111 65.206 112.111C65.6625 112.644 66.0429 113.024 66.4233 113.252C68.4015 114.546 68.1732 121.241 68.1732 121.241Z" fill="url(#paint33_linear_1_8834)"/>
<path d="M183.057 146.425C178.416 151.218 173.243 150.99 173.243 150.99C173.243 150.99 170.808 140.947 158.635 145.664L157.418 149.468C157.418 149.468 155.896 148.935 154.374 147.566C152.548 145.968 150.646 143.229 150.951 138.969C151.559 130.98 156.961 123.22 161.45 121.394C164.037 120.329 168.373 118.122 173.775 120.176C177.732 121.698 182.22 125.578 186.937 133.947C186.861 133.947 187.698 141.632 183.057 146.425Z" fill="#C23434"/>
<path d="M183.057 146.424C178.416 151.217 173.243 150.989 173.243 150.989C173.243 150.989 170.808 140.946 158.635 145.663L157.418 149.467C157.418 149.467 155.896 148.935 154.374 147.565C155.515 145.435 157.494 142.848 160.309 141.327C165.634 138.512 171.417 144.674 173.775 144.902C176.134 145.207 177.655 139.653 178.873 133.186C180.09 126.719 173.775 120.176 173.775 120.176C177.731 121.697 182.22 125.578 186.937 133.947C186.861 133.947 187.698 141.631 183.057 146.424Z" fill="url(#paint34_linear_1_8834)"/>
<path opacity="0.5" d="M168.906 120.176C168.906 120.176 161.298 119.872 157.646 126.111C153.994 132.273 152.853 136.838 153.157 139.805C153.385 142.773 155.211 143.457 155.211 143.457C155.211 143.457 156.429 137.827 160.993 137.827C165.558 137.827 165.558 137.827 165.558 137.827C165.558 137.827 158.787 135.925 159.015 132.882C159.244 129.839 164.037 120.176 168.906 120.176Z" fill="url(#paint35_linear_1_8834)"/>
<path d="M204.436 57.6361C204.436 62.5814 200.404 66.5377 195.535 66.5377C192.644 66.5377 190.057 65.1682 188.459 63.0379C187.318 61.5163 186.633 59.6903 186.633 57.6361C186.633 52.6907 190.665 48.7345 195.535 48.7345C200.404 48.6584 204.436 52.6907 204.436 57.6361Z" fill="#E4E3F3"/>
<path d="M192.035 58.7771C189.753 59.3097 177.884 51.7776 176.362 52.4623C174.84 53.1471 177.732 55.8099 176.514 56.1143C175.297 56.4186 173.547 59.3858 170.58 58.0163C169.971 57.712 167.232 57.0273 163.124 56.1143C146.842 52.3863 109.942 44.9302 109.942 44.9302C109.942 44.9302 110.095 44.1694 110.551 42.7999C111.844 38.8436 115.344 30.1703 123.333 22.9425C133.984 13.204 142.81 13.0518 150.114 14.9539C157.418 16.8559 172.938 19.2905 175.906 21.0404C178.568 22.6381 186.861 43.9411 191.426 49.7995C191.578 50.0277 191.731 50.1799 191.883 50.332C192.263 50.7885 192.644 51.0929 192.948 51.1689C196.752 52.8427 194.317 58.2446 192.035 58.7771Z" fill="#C23434"/>
<path d="M192.035 58.7776C189.752 59.3102 177.884 51.7781 176.362 52.4628C174.84 53.1475 177.732 55.8104 176.514 56.1147C175.297 56.4191 173.547 59.3863 170.58 58.0168C169.971 57.7125 167.232 57.0277 163.124 56.1147C162.287 55.3539 161.754 54.8974 161.754 54.8974C161.754 54.8974 167.613 45.6154 168.069 45.3872C168.526 45.1589 172.254 44.4742 172.482 43.409C172.71 42.3439 169.362 38.3876 169.21 38.3115C169.362 38.3876 176.971 42.42 177.96 45.235C179.025 48.05 190.513 54.517 192.415 53.8323C193.861 53.2997 192.491 51.3216 191.807 50.3325C192.187 50.789 192.568 51.0933 192.872 51.1694C196.752 52.8432 194.317 58.245 192.035 58.7776Z" fill="url(#paint36_linear_1_8834)"/>
<path opacity="0.5" d="M176.286 21.9536C176.286 21.9536 156.352 17.0843 143.875 16.4757C131.397 15.7909 119.909 35.268 120.137 36.257C120.365 37.3222 131.017 36.5614 131.017 36.5614C131.017 36.5614 118.007 38.3112 117.322 39.3003C116.714 40.2894 120.898 42.0393 120.898 42.0393L112.073 43.7892C113.366 39.8329 116.866 31.1595 124.854 23.9317C135.506 14.1932 144.331 14.0411 151.635 15.9431C158.787 17.8452 173.243 20.1276 176.286 21.9536Z" fill="url(#paint37_linear_1_8834)"/>
<path d="M172.786 81.6775C172.558 81.7536 172.254 81.8296 172.025 81.8296C170.351 82.134 168.449 82.21 168.449 82.21L167.613 87.4597C167.613 87.4597 167.308 88.0684 166.776 89.1335C164.721 93.1659 159.091 103.285 151.864 107.698C142.81 113.252 118.692 117.816 113.29 110.513C110.018 106.1 108.04 102.144 106.823 97.959C106.062 95.144 105.682 92.2529 105.606 88.9814C105.53 86.0142 106.29 83.2752 107.203 80.9166C108.801 76.8843 111.007 74.1453 111.007 74.1453C109.942 58.092 116.561 54.0597 116.561 54.0597C137.408 36.8651 152.472 45.2341 160.841 53.9836C165.939 59.3093 168.526 64.7112 168.526 64.7112C169.515 64.2547 170.428 63.8743 171.264 63.5699C185.34 58.7768 178.568 80.2319 172.786 81.6775Z" fill="#F0A080"/>
<path d="M172.254 81.5254L171.949 81.9058C170.275 82.2101 168.373 82.2862 168.373 82.2862L167.536 87.5359C167.536 87.5359 167.232 88.1446 166.7 89.2097L162.591 94.8398L137.788 99.7851C138.397 99.6329 147.907 96.894 150.646 93.7746C153.461 90.5792 156.276 75.5149 155.896 70.1131C155.515 64.7113 152.168 61.668 144.94 59.5377C137.712 57.4074 119.605 58.016 119.605 58.016L118.768 54.7445L123.333 52.386L128.963 50.4078L137.56 49.2666L146.614 49.5709L160.841 54.0598C165.939 59.3855 168.526 64.7873 168.526 64.7873C169.515 64.3309 170.428 63.9504 171.264 63.6461C170.352 64.5591 169.439 65.7003 168.83 66.9176C167.384 69.8088 166.547 74.9063 167.765 78.1778C169.058 81.4493 172.254 81.5254 172.254 81.5254Z" fill="url(#paint38_linear_1_8834)"/>
<path d="M114.431 94.0792L106.823 97.9594C106.062 95.1444 105.682 92.2532 105.606 88.9817C105.53 86.0145 106.29 83.2755 107.203 80.917C107.203 80.917 105.606 89.5143 107.736 90.5033C109.866 91.4924 113.366 88.5252 113.366 88.5252L114.431 94.0792Z" fill="url(#paint39_linear_1_8834)"/>
<path d="M168.602 101.536C168.602 101.536 180.47 121.774 157.494 119.567C157.494 119.567 158.483 140.566 135.734 132.273C135.734 132.273 115.268 150 106.138 132.501C106.138 132.501 78.4443 138.207 97.617 116.524C97.617 116.524 94.802 109.981 98.4539 105.035C100.052 102.905 102.791 101.003 107.508 100.09C121.659 97.2751 114.431 99.6337 113.518 101.307C113.442 101.46 113.366 101.612 113.442 101.764C113.746 102.449 115.04 104.959 116.942 106.785C119.072 108.764 121.887 109.905 125.007 106.861C125.92 105.948 126.909 104.655 127.822 102.905C127.822 102.905 128.506 100.318 133.071 100.775C136.951 101.155 148.136 100.471 154.146 94.384C155.287 93.2428 156.276 91.8733 156.961 90.2756C161.222 80.461 161.069 68.3639 159.7 62.886C159.7 62.886 158.863 61.5165 162.667 61.3644C166.395 61.2122 168.678 63.0382 168.602 64.712C168.602 64.7881 168.602 64.7881 168.602 64.8642C168.449 66.538 165.254 70.6464 165.254 75.1352C165.254 79.6241 168.373 82.287 168.373 82.287C168.373 82.287 175.829 94.9927 168.602 101.536Z" fill="#E4E3F3"/>
<path d="M116.942 106.786C106.138 115.078 98.3778 105.036 98.3778 105.036L113.442 101.308C113.366 101.46 113.29 101.612 113.366 101.764C113.67 102.449 115.04 104.96 116.942 106.786Z" fill="url(#paint40_linear_1_8834)"/>
<path d="M155.211 95.2207C155.211 95.2207 154.526 99.6335 151.179 102.677C147.831 105.72 143.951 108.763 136.951 110.133C130.028 111.426 125.235 107.013 125.083 106.861C125.996 105.948 126.985 104.655 127.898 102.905C127.898 102.905 128.582 100.318 133.147 100.775C137.028 101.155 141.897 101.307 150.57 97.1228L155.211 95.2207Z" fill="url(#paint41_linear_1_8834)"/>
<path d="M168.449 82.211C168.449 82.211 166.7 80.7654 165.787 78.1025C165.634 78.9394 165.634 79.7763 165.634 80.5372C165.558 82.1349 165.634 83.8087 165.863 85.4064C166.015 86.3955 166.091 87.3846 165.939 88.2975C166.015 88.5258 166.091 88.8301 166.091 89.1344C167.004 93.6233 161.83 98.7969 161.83 98.7969C161.83 98.7969 162.591 99.4055 163.808 101.536C165.026 103.666 164.037 110.818 160.613 113.405C157.189 115.991 151.787 114.318 151.787 114.318C151.787 114.318 153.385 119.263 148.135 122.839C142.81 126.415 135.582 124.208 132.843 124.665C130.104 125.121 124.702 133.262 117.931 134.099C111.16 134.936 106.138 132.501 106.138 132.501C115.344 150 135.734 132.273 135.734 132.273C158.483 140.566 157.494 119.567 157.494 119.567C180.47 121.774 168.602 101.536 168.602 101.536C175.829 94.9928 168.449 82.211 168.449 82.211Z" fill="url(#paint42_linear_1_8834)"/>
<path d="M116.942 106.785L120.822 103.437L125.007 107.317L127.898 102.905L123.333 99.7852L119.529 98.9482L115.725 102.752L114.431 105.187L116.942 106.785Z" fill="url(#paint43_linear_1_8834)"/>
<path d="M134.365 107.698C129.419 108.155 124.55 106.709 120.67 101.383C120.67 101.383 106.975 119.415 91.4543 97.6552C90.3892 96.1336 97.9974 101.764 112.149 93.0903C115.801 90.8839 119.605 93.7751 120.518 94.5359C120.67 94.612 120.67 94.6881 120.67 94.6881C120.67 94.6881 124.17 90.1992 129.267 93.1664C131.778 94.612 136.495 96.3619 141.364 97.3509C146.157 98.2639 151.027 98.4161 153.842 96.6662C157.722 94.1555 146.081 106.557 134.365 107.698Z" fill="#E4E3F3"/>
<path d="M134.365 107.698C129.419 108.155 124.55 106.709 120.67 101.383L120.365 95.2206L120.518 94.5359C120.67 94.612 120.67 94.6881 120.67 94.6881C120.67 94.6881 124.17 90.1992 129.267 93.1664C131.778 94.612 136.495 96.3619 141.364 97.3509C141.364 97.3509 135.886 97.1227 132.995 96.8184C130.104 96.514 128.43 96.8944 127.365 100.851C126.3 104.655 134.365 107.698 134.365 107.698Z" fill="url(#paint44_linear_1_8834)"/>
<path d="M131.321 86.5473C140.375 86.0148 134.973 95.6772 130.941 93.8512C127.517 92.3296 125.691 92.5578 125.691 92.5578C116.714 99.0248 110.627 92.71 112.301 83.5801C113.975 74.4503 124.55 77.874 124.55 77.874C124.55 77.874 128.43 80.2325 128.05 83.504C127.746 86.8517 131.321 86.5473 131.321 86.5473Z" fill="url(#paint45_linear_1_8834)"/>
<path d="M173.471 55.43C171.645 57.4081 172.786 62.5817 168.525 64.712C166.623 65.7011 162.287 63.9512 157.113 61.7448C150.494 58.9298 142.505 55.3539 136.191 55.3539C124.93 55.3539 115.648 58.7015 111.996 61.5166C111.312 62.0491 110.703 62.1252 110.247 61.7448C108.192 60.2992 107.66 52.4628 106.214 49.3434C104.388 45.5393 109.866 42.0395 109.866 42.0395C117.855 38.8441 125.311 37.3985 131.93 37.0181C139.462 36.6377 146.005 37.7029 151.635 39.5288C166.623 44.4742 174.536 54.2888 173.471 55.43Z" fill="#E4E3F3"/>
<path d="M173.471 55.4295C171.645 57.4076 172.786 62.5812 168.526 64.7115C166.623 65.7006 162.287 63.9507 157.113 61.7443C150.494 58.9293 142.505 55.3534 136.191 55.3534C124.93 55.3534 115.648 58.701 111.997 61.516C111.312 62.0486 110.703 62.1247 110.247 61.7443C108.268 53.7557 135.962 52.3862 145.473 52.3101C146.994 52.3101 149.657 52.4623 149.733 50.9406C149.733 50.9406 150.418 48.9625 150.57 48.506C151.027 47.2126 153.537 45.5388 153.385 43.6367C153.309 41.7347 151.635 39.5283 151.635 39.5283C166.623 44.4737 174.536 54.2882 173.471 55.4295Z" fill="url(#paint46_linear_1_8834)"/>
<path d="M142.582 73.8417C144.598 73.8417 146.233 71.4233 146.233 68.4399C146.233 65.4566 144.598 63.0381 142.582 63.0381C140.565 63.0381 138.93 65.4566 138.93 68.4399C138.93 71.4233 140.565 73.8417 142.582 73.8417Z" fill="#020203"/>
<path d="M144.103 67.1462C144.859 67.1462 145.473 66.533 145.473 65.7767C145.473 65.0204 144.859 64.4072 144.103 64.4072C143.347 64.4072 142.734 65.0204 142.734 65.7767C142.734 66.533 143.347 67.1462 144.103 67.1462Z" fill="white"/>
<path d="M117.931 72.8517C119.612 72.8517 120.974 70.842 120.974 68.3629C120.974 65.8837 119.612 63.874 117.931 63.874C116.25 63.874 114.888 65.8837 114.888 68.3629C114.888 70.842 116.25 72.8517 117.931 72.8517Z" fill="#020203"/>
<path d="M120.365 66.1569C120.365 66.7655 119.833 67.2981 119.224 67.2981C118.616 67.2981 118.083 66.7655 118.083 66.1569C118.083 65.5482 118.616 65.0156 119.224 65.0156C119.833 65.0156 120.365 65.5482 120.365 66.1569Z" fill="white"/>
<path d="M135.658 60.6789C135.658 60.6789 136.038 63.9504 137.332 63.1135C138.625 62.2766 143.266 58.016 150.874 63.7982C158.483 69.5044 147.907 49.4948 135.658 57.8638C135.049 58.1681 135.658 60.6789 135.658 60.6789Z" fill="#E4E3F3"/>
<path d="M125.387 61.1358C125.387 61.1358 125.007 64.2552 123.789 63.4182C122.572 62.5813 118.159 58.6251 110.931 64.0269C103.704 69.4287 113.746 50.4843 125.387 58.3968C125.92 58.7772 125.387 61.1358 125.387 61.1358Z" fill="#E4E3F3"/>
<g opacity="0.46">
<path d="M175.829 69.1243C175.525 67.6788 174.003 67.3744 172.71 67.8309C170.808 68.5917 169.591 70.722 169.134 72.6241C168.678 74.2218 167.917 78.3302 170.275 78.7867C171.645 79.0911 174.003 77.9498 174.384 76.5804C174.384 76.5043 174.308 76.4282 174.308 76.5043C173.547 76.7325 172.025 77.6455 171.493 76.7325C171.036 75.9717 171.417 73.9936 171.493 73.2328C171.569 72.2437 171.645 71.3307 172.025 70.4177C172.634 69.0482 174.536 67.2984 175.829 69.2004C175.753 69.2765 175.829 69.2004 175.829 69.1243Z" fill="#D9635A"/>
</g>
<g opacity="0.82">
<path d="M120.822 78.2536C118.768 77.9492 116.409 79.0905 115.04 80.536C113.29 82.4381 112.909 84.7206 113.746 87.1552C113.746 87.2313 113.899 87.2313 113.899 87.1552C113.975 85.2531 114.659 82.9707 115.801 81.3729C117.094 79.547 118.768 78.8622 120.822 78.2536Z" fill="white"/>
</g>
<g opacity="0.82">
<path d="M121.811 78.5584C122.268 78.7867 122.876 78.9388 123.409 79.091C123.561 79.1671 124.17 79.3953 124.246 79.0149C124.246 78.9388 124.246 78.7867 124.17 78.7867C123.561 78.3302 122.572 77.9498 121.811 78.4063C121.735 78.4063 121.735 78.5584 121.811 78.5584Z" fill="white"/>
</g>
<path d="M204.436 57.6359C204.436 62.5812 200.404 66.5375 195.535 66.5375C192.644 66.5375 190.057 65.168 188.459 63.0377C198.806 71.1024 204.512 49.2669 195.535 48.6582C200.404 48.6582 204.436 52.6906 204.436 57.6359Z" fill="url(#paint47_linear_1_8834)"/>
</g>
<defs>
<filter id="filter0_d_1_8834" x="0.6" y="0.6" width="272.605" height="337.799" filterUnits="userSpaceOnUse" color-interpolation-filters="sRGB">
<feFlood flood-opacity="0" result="BackgroundImageFix"/>
<feColorMatrix in="SourceAlpha" type="matrix" values="0 0 0 0 0 0 0 0 0 0 0 0 0 0 0 0 0 0 127 0" result="hardAlpha"/>
<feOffset dy="4"/>
<feGaussianBlur stdDeviation="8.7"/>
<feComposite in2="hardAlpha" operator="out"/>
<feColorMatrix type="matrix" values="0 0 0 0 0 0 0 0 0 0 0 0 0 0 0 0 0 0 0.75 0"/>
<feBlend mode="normal" in2="BackgroundImageFix" result="effect1_dropShadow_1_8834"/>
<feBlend mode="normal" in="SourceGraphic" in2="effect1_dropShadow_1_8834" result="shape"/>
</filter>
<linearGradient id="paint0_linear_1_8834" x1="151.29" y1="294.403" x2="179.016" y2="293.766" gradientUnits="userSpaceOnUse">
<stop stop-color="#E4E3F3"/>
<stop offset="0.3772" stop-color="#DBDBE9"/>
<stop offset="1" stop-color="#C5C7CF"/>
</linearGradient>
<linearGradient id="paint1_linear_1_8834" x1="155.236" y1="311.427" x2="177.678" y2="308.327" gradientUnits="userSpaceOnUse">
<stop stop-color="#B06543"/>
<stop offset="0.0309089" stop-color="#AA6343"/>
<stop offset="0.3704" stop-color="#754938"/>
<stop offset="0.6565" stop-color="#51362C"/>
<stop offset="0.875" stop-color="#3C2922"/>
<stop offset="1" stop-color="#34241D"/>
</linearGradient>
<linearGradient id="paint2_linear_1_8834" x1="195.598" y1="294.348" x2="184.706" y2="323.482" gradientUnits="userSpaceOnUse">
<stop stop-color="#B06543"/>
<stop offset="0.0309089" stop-color="#AA6343"/>
<stop offset="0.3704" stop-color="#754938"/>
<stop offset="0.6565" stop-color="#51362C"/>
<stop offset="0.875" stop-color="#3C2922"/>
<stop offset="1" stop-color="#34241D"/>
</linearGradient>
<linearGradient id="paint3_linear_1_8834" x1="107.682" y1="295.42" x2="125.858" y2="295.002" gradientUnits="userSpaceOnUse">
<stop stop-color="#E4E3F3"/>
<stop offset="0.3772" stop-color="#DBDBE9"/>
<stop offset="1" stop-color="#C5C7CF"/>
</linearGradient>
<linearGradient id="paint4_linear_1_8834" x1="90.0671" y1="296.644" x2="120.866" y2="322.695" gradientUnits="userSpaceOnUse">
<stop stop-color="#B06543"/>
<stop offset="0.0309089" stop-color="#AA6343"/>
<stop offset="0.3704" stop-color="#754938"/>
<stop offset="0.6565" stop-color="#51362C"/>
<stop offset="0.875" stop-color="#3C2922"/>
<stop offset="1" stop-color="#34241D"/>
</linearGradient>
<linearGradient id="paint5_linear_1_8834" x1="136.938" y1="306.772" x2="117.942" y2="310.473" gradientUnits="userSpaceOnUse">
<stop stop-color="#B06543"/>
<stop offset="0.0309089" stop-color="#AA6343"/>
<stop offset="0.3704" stop-color="#754938"/>
<stop offset="0.6565" stop-color="#51362C"/>
<stop offset="0.875" stop-color="#3C2922"/>
<stop offset="1" stop-color="#34241D"/>
</linearGradient>
<linearGradient id="paint6_linear_1_8834" x1="82.1297" y1="268.543" x2="143.145" y2="278.91" gradientUnits="userSpaceOnUse">
<stop stop-color="#C23434"/>
<stop offset="0.2838" stop-color="#BF3332"/>
<stop offset="0.5399" stop-color="#B52F2E"/>
<stop offset="0.7843" stop-color="#A62928"/>
<stop offset="1" stop-color="#932221"/>
</linearGradient>
<linearGradient id="paint7_linear_1_8834" x1="91.0688" y1="265.853" x2="118.44" y2="270.523" gradientUnits="userSpaceOnUse">
<stop offset="0.0195531" stop-color="#CF5353"/>
<stop offset="0.2989" stop-color="#CE504F"/>
<stop offset="0.619" stop-color="#CA4645"/>
<stop offset="0.9581" stop-color="#C33636"/>
<stop offset="1" stop-color="#C23434"/>
</linearGradient>
<linearGradient id="paint8_linear_1_8834" x1="146.338" y1="275.674" x2="166.913" y2="279.17" gradientUnits="userSpaceOnUse">
<stop offset="0.0195531" stop-color="#CF5353"/>
<stop offset="0.2989" stop-color="#CE504F"/>
<stop offset="0.619" stop-color="#CA4645"/>
<stop offset="0.9581" stop-color="#C33636"/>
<stop offset="1" stop-color="#C23434"/>
</linearGradient>
<linearGradient id="paint9_linear_1_8834" x1="83.2669" y1="281.868" x2="205.953" y2="243.67" gradientUnits="userSpaceOnUse">
<stop stop-color="#C23434"/>
<stop offset="0.2838" stop-color="#BF3332"/>
<stop offset="0.5399" stop-color="#B52F2E"/>
<stop offset="0.7843" stop-color="#A62928"/>
<stop offset="1" stop-color="#932221"/>
</linearGradient>
<linearGradient id="paint10_linear_1_8834" x1="8.95017" y1="185.631" x2="235.9" y2="165.075" gradientUnits="userSpaceOnUse">
<stop stop-color="#C23434"/>
<stop offset="0.2838" stop-color="#BF3332"/>
<stop offset="0.5399" stop-color="#B52F2E"/>
<stop offset="0.7843" stop-color="#A62928"/>
<stop offset="1" stop-color="#932221"/>
</linearGradient>
<linearGradient id="paint11_linear_1_8834" x1="77.0643" y1="108.496" x2="61.8636" y2="159.798" gradientUnits="userSpaceOnUse">
<stop stop-color="#C23434"/>
<stop offset="0.2521" stop-color="#BE3232"/>
<stop offset="0.5412" stop-color="#B22D2D"/>
<stop offset="0.8473" stop-color="#9F2626"/>
<stop offset="1" stop-color="#932221"/>
</linearGradient>
<linearGradient id="paint12_linear_1_8834" x1="28.3691" y1="149.611" x2="111.919" y2="169.705" gradientUnits="userSpaceOnUse">
<stop offset="0.0195531" stop-color="#CF5353"/>
<stop offset="0.2989" stop-color="#CE504F"/>
<stop offset="0.619" stop-color="#CA4645"/>
<stop offset="0.9581" stop-color="#C33636"/>
<stop offset="1" stop-color="#C23434"/>
</linearGradient>
<linearGradient id="paint13_linear_1_8834" x1="49.8223" y1="234.334" x2="135.149" y2="240.394" gradientUnits="userSpaceOnUse">
<stop offset="0.0195531" stop-color="#CF5353"/>
<stop offset="0.2989" stop-color="#CE504F"/>
<stop offset="0.619" stop-color="#CA4645"/>
<stop offset="0.9581" stop-color="#C33636"/>
<stop offset="1" stop-color="#C23434"/>
</linearGradient>
<linearGradient id="paint14_linear_1_8834" x1="77.1235" y1="206.488" x2="159.377" y2="206.488" gradientUnits="userSpaceOnUse">
<stop stop-color="#932221"/>
<stop offset="0.1527" stop-color="#9F2626"/>
<stop offset="0.4588" stop-color="#B22D2D"/>
<stop offset="0.7479" stop-color="#BE3232"/>
<stop offset="1" stop-color="#C23434"/>
</linearGradient>
<linearGradient id="paint15_linear_1_8834" x1="82.5143" y1="100.284" x2="83.844" y2="140.365" gradientUnits="userSpaceOnUse">
<stop offset="0.0195531" stop-color="#CF5353"/>
<stop offset="0.2989" stop-color="#CE504F"/>
<stop offset="0.619" stop-color="#CA4645"/>
<stop offset="0.9581" stop-color="#C33636"/>
<stop offset="1" stop-color="#C23434"/>
</linearGradient>
<linearGradient id="paint16_linear_1_8834" x1="70.0465" y1="213.26" x2="107.777" y2="223.328" gradientUnits="userSpaceOnUse">
<stop stop-color="#B06543"/>
<stop offset="0.0309089" stop-color="#AA6343"/>
<stop offset="0.3704" stop-color="#754938"/>
<stop offset="0.6565" stop-color="#51362C"/>
<stop offset="0.875" stop-color="#3C2922"/>
<stop offset="1" stop-color="#34241D"/>
</linearGradient>
<linearGradient id="paint17_linear_1_8834" x1="143.535" y1="231.027" x2="230.763" y2="170.153" gradientUnits="userSpaceOnUse">
<stop stop-color="#34241D"/>
<stop offset="0.125" stop-color="#3C2922"/>
<stop offset="0.3435" stop-color="#51362C"/>
<stop offset="0.6296" stop-color="#754938"/>
<stop offset="0.9691" stop-color="#AA6343"/>
<stop offset="1" stop-color="#B06543"/>
</linearGradient>
<linearGradient id="paint18_linear_1_8834" x1="84.402" y1="222.785" x2="116.117" y2="223.633" gradientUnits="userSpaceOnUse">
<stop stop-color="#E4E3F3"/>
<stop offset="0.3772" stop-color="#DBDBE9"/>
<stop offset="1" stop-color="#C5C7CF"/>
</linearGradient>
<linearGradient id="paint19_linear_1_8834" x1="119.02" y1="223.255" x2="113.491" y2="223.347" gradientUnits="userSpaceOnUse">
<stop stop-color="#E4E3F3"/>
<stop offset="0.3772" stop-color="#DBDBE9"/>
<stop offset="1" stop-color="#C5C7CF"/>
</linearGradient>
<linearGradient id="paint20_linear_1_8834" x1="107.057" y1="220.914" x2="151.858" y2="225.677" gradientUnits="userSpaceOnUse">
<stop stop-color="#E4E3F3"/>
<stop offset="0.3772" stop-color="#DBDBE9"/>
<stop offset="1" stop-color="#C5C7CF"/>
</linearGradient>
<linearGradient id="paint21_linear_1_8834" x1="166.86" y1="229.895" x2="273.055" y2="6.96325" gradientUnits="userSpaceOnUse">
<stop stop-color="#3B160F"/>
<stop offset="0.3888" stop-color="#552519"/>
<stop offset="0.7774" stop-color="#6A301E"/>
<stop offset="1" stop-color="#733520"/>
</linearGradient>
<linearGradient id="paint22_linear_1_8834" x1="210.269" y1="120.71" x2="226.621" y2="86.3821" gradientUnits="userSpaceOnUse">
<stop stop-color="#B85438"/>
<stop offset="0.1933" stop-color="#AF5035"/>
<stop offset="0.531" stop-color="#98462D"/>
<stop offset="0.9707" stop-color="#753621"/>
<stop offset="1" stop-color="#733520"/>
</linearGradient>
<linearGradient id="paint23_linear_1_8834" x1="169.965" y1="177.254" x2="220.709" y2="156.827" gradientUnits="userSpaceOnUse">
<stop stop-color="#C23434"/>
<stop offset="0.2521" stop-color="#BE3232"/>
<stop offset="0.5412" stop-color="#B22D2D"/>
<stop offset="0.8473" stop-color="#9F2626"/>
<stop offset="1" stop-color="#932221"/>
</linearGradient>
<linearGradient id="paint24_linear_1_8834" x1="178.047" y1="179.909" x2="194.058" y2="173.463" gradientUnits="userSpaceOnUse">
<stop offset="0.0195531" stop-color="#CF5353"/>
<stop offset="0.2989" stop-color="#CE504F"/>
<stop offset="0.619" stop-color="#CA4645"/>
<stop offset="0.9581" stop-color="#C33636"/>
<stop offset="1" stop-color="#C23434"/>
</linearGradient>
<linearGradient id="paint25_linear_1_8834" x1="157.763" y1="133.165" x2="190.658" y2="147.616" gradientUnits="userSpaceOnUse">
<stop stop-color="#E4E3F3"/>
<stop offset="0.3772" stop-color="#DBDBE9"/>
<stop offset="1" stop-color="#C5C7CF"/>
</linearGradient>
<linearGradient id="paint26_linear_1_8834" x1="160.932" y1="187.775" x2="169.154" y2="147.161" gradientUnits="userSpaceOnUse">
<stop stop-color="#733520"/>
<stop offset="0.2226" stop-color="#6A301E"/>
<stop offset="0.6112" stop-color="#552519"/>
<stop offset="1" stop-color="#3B160F"/>
</linearGradient>
<linearGradient id="paint27_linear_1_8834" x1="155.709" y1="160.103" x2="162.33" y2="160.103" gradientUnits="userSpaceOnUse">
<stop stop-color="#B85438"/>
<stop offset="0.1933" stop-color="#AF5035"/>
<stop offset="0.531" stop-color="#98462D"/>
<stop offset="0.9707" stop-color="#753621"/>
<stop offset="1" stop-color="#733520"/>
</linearGradient>
<linearGradient id="paint28_linear_1_8834" x1="143.457" y1="164.343" x2="150.846" y2="164.343" gradientUnits="userSpaceOnUse">
<stop stop-color="#B85438"/>
<stop offset="0.1933" stop-color="#AF5035"/>
<stop offset="0.531" stop-color="#98462D"/>
<stop offset="0.9707" stop-color="#753621"/>
<stop offset="1" stop-color="#733520"/>
</linearGradient>
<linearGradient id="paint29_linear_1_8834" x1="42.4282" y1="64.841" x2="27.0903" y2="90.4985" gradientUnits="userSpaceOnUse">
<stop offset="0.0195531" stop-color="#CF5353"/>
<stop offset="0.2989" stop-color="#CE504F"/>
<stop offset="0.619" stop-color="#CA4645"/>
<stop offset="0.9581" stop-color="#C33636"/>
<stop offset="1" stop-color="#C23434"/>
</linearGradient>
<linearGradient id="paint30_linear_1_8834" x1="61.2261" y1="77.8443" x2="43.8792" y2="106.862" gradientUnits="userSpaceOnUse">
<stop offset="0.0195531" stop-color="#CF5353"/>
<stop offset="0.2989" stop-color="#CE504F"/>
<stop offset="0.619" stop-color="#CA4645"/>
<stop offset="0.9581" stop-color="#C33636"/>
<stop offset="1" stop-color="#C23434"/>
</linearGradient>
<linearGradient id="paint31_linear_1_8834" x1="49.8737" y1="74.2705" x2="15.6895" y2="131.454" gradientUnits="userSpaceOnUse">
<stop stop-color="#C23434"/>
<stop offset="0.2521" stop-color="#BE3232"/>
<stop offset="0.5412" stop-color="#B22D2D"/>
<stop offset="0.8473" stop-color="#9F2626"/>
<stop offset="1" stop-color="#932221"/>
</linearGradient>
<linearGradient id="paint32_linear_1_8834" x1="52.9139" y1="75.1108" x2="35.0292" y2="105.029" gradientUnits="userSpaceOnUse">
<stop stop-color="#C23434"/>
<stop offset="0.2521" stop-color="#BE3232"/>
<stop offset="0.5412" stop-color="#B22D2D"/>
<stop offset="0.8473" stop-color="#9F2626"/>
<stop offset="1" stop-color="#932221"/>
</linearGradient>
<linearGradient id="paint33_linear_1_8834" x1="64.2788" y1="72.9095" x2="50.1307" y2="129.502" gradientUnits="userSpaceOnUse">
<stop stop-color="#E4E3F3"/>
<stop offset="0.3772" stop-color="#DBDBE9"/>
<stop offset="1" stop-color="#C5C7CF"/>
</linearGradient>
<linearGradient id="paint34_linear_1_8834" x1="139.913" y1="101.753" x2="177.395" y2="148.69" gradientUnits="userSpaceOnUse">
<stop stop-color="#C23434"/>
<stop offset="0.2521" stop-color="#BE3232"/>
<stop offset="0.5412" stop-color="#B22D2D"/>
<stop offset="0.8473" stop-color="#9F2626"/>
<stop offset="1" stop-color="#932221"/>
</linearGradient>
<linearGradient id="paint35_linear_1_8834" x1="153.087" y1="131.804" x2="168.879" y2="131.804" gradientUnits="userSpaceOnUse">
<stop offset="0.0195531" stop-color="#CF5353"/>
<stop offset="0.2989" stop-color="#CE504F"/>
<stop offset="0.619" stop-color="#CA4645"/>
<stop offset="0.9581" stop-color="#C33636"/>
<stop offset="1" stop-color="#C23434"/>
</linearGradient>
<linearGradient id="paint36_linear_1_8834" x1="171.015" y1="-4.13911" x2="181.575" y2="80.3421" gradientUnits="userSpaceOnUse">
<stop stop-color="#C23434"/>
<stop offset="0.2521" stop-color="#BE3232"/>
<stop offset="0.5412" stop-color="#B22D2D"/>
<stop offset="0.8473" stop-color="#9F2626"/>
<stop offset="1" stop-color="#932221"/>
</linearGradient>
<linearGradient id="paint37_linear_1_8834" x1="86.878" y1="-9.21647" x2="152.292" y2="38.872" gradientUnits="userSpaceOnUse">
<stop offset="0.0195531" stop-color="#CF5353"/>
<stop offset="0.2989" stop-color="#CE504F"/>
<stop offset="0.619" stop-color="#CA4645"/>
<stop offset="0.9581" stop-color="#C33636"/>
<stop offset="1" stop-color="#C23434"/>
</linearGradient>
<linearGradient id="paint38_linear_1_8834" x1="181.78" y1="74.1131" x2="110.275" y2="74.7661" gradientUnits="userSpaceOnUse">
<stop stop-color="#D9635A"/>
<stop offset="1" stop-color="#F0A080"/>
</linearGradient>
<linearGradient id="paint39_linear_1_8834" x1="112.782" y1="106.367" x2="105.168" y2="70.1713" gradientUnits="userSpaceOnUse">
<stop stop-color="#D9635A"/>
<stop offset="1" stop-color="#F0A080"/>
</linearGradient>
<linearGradient id="paint40_linear_1_8834" x1="94.4218" y1="68.8851" x2="111.653" y2="116.998" gradientUnits="userSpaceOnUse">
<stop stop-color="#E4E3F3"/>
<stop offset="0.3772" stop-color="#DBDBE9"/>
<stop offset="1" stop-color="#C5C7CF"/>
</linearGradient>
<linearGradient id="paint41_linear_1_8834" x1="124.711" y1="58.0371" x2="141.942" y2="106.15" gradientUnits="userSpaceOnUse">
<stop stop-color="#E4E3F3"/>
<stop offset="0.3772" stop-color="#DBDBE9"/>
<stop offset="1" stop-color="#C5C7CF"/>
</linearGradient>
<linearGradient id="paint42_linear_1_8834" x1="84.3113" y1="64.7775" x2="163.16" y2="128.119" gradientUnits="userSpaceOnUse">
<stop stop-color="#E4E3F3"/>
<stop offset="0.3772" stop-color="#DBDBE9"/>
<stop offset="1" stop-color="#C5C7CF"/>
</linearGradient>
<linearGradient id="paint43_linear_1_8834" x1="114.428" y1="103.149" x2="127.873" y2="103.149" gradientUnits="userSpaceOnUse">
<stop offset="0.0810056" stop-color="#D9635A"/>
<stop offset="1" stop-color="#F0A080"/>
</linearGradient>
<linearGradient id="paint44_linear_1_8834" x1="136.207" y1="102.605" x2="123.692" y2="98.3264" gradientUnits="userSpaceOnUse">
<stop stop-color="#E4E3F3"/>
<stop offset="0.3772" stop-color="#DBDBE9"/>
<stop offset="1" stop-color="#C5C7CF"/>
</linearGradient>
<linearGradient id="paint45_linear_1_8834" x1="99.7425" y1="105.046" x2="154.074" y2="63.412" gradientUnits="userSpaceOnUse">
<stop offset="0.0810056" stop-color="#D9635A"/>
<stop offset="1" stop-color="#F0A080"/>
</linearGradient>
<linearGradient id="paint46_linear_1_8834" x1="139.008" y1="26.708" x2="142.066" y2="60.3443" gradientUnits="userSpaceOnUse">
<stop stop-color="#E4E3F3"/>
<stop offset="0.3772" stop-color="#DBDBE9"/>
<stop offset="1" stop-color="#C5C7CF"/>
</linearGradient>
<linearGradient id="paint47_linear_1_8834" x1="148.953" y1="36.6657" x2="210.546" y2="64.4046" gradientUnits="userSpaceOnUse">
<stop stop-color="#E4E3F3"/>
<stop offset="0.3772" stop-color="#DBDBE9"/>
<stop offset="1" stop-color="#C5C7CF"/>
</linearGradient>
</defs>
</svg>
