<svg width="35" height="39" viewBox="0 0 35 39" fill="none" xmlns="http://www.w3.org/2000/svg">
<path d="M25.1864 30.603C24.8028 30.603 24.414 30.5757 24.0323 30.5216C19.2444 29.8442 15.9414 25.1062 16.6694 19.9593C17.33 15.2922 21.1339 11.7725 25.5186 11.7725C25.9023 11.7725 26.2908 11.7999 26.6727 11.8541C31.4604 12.5315 34.7635 17.2695 34.0355 22.416C33.3751 27.0833 29.5712 30.603 25.1864 30.603ZM25.5185 15.1239C22.7932 15.1239 20.4156 17.4045 19.988 20.4287C19.5186 23.7457 21.5434 26.7848 24.5012 27.2032C24.7285 27.2353 24.9588 27.2517 25.1864 27.2517C27.9116 27.2517 30.289 24.971 30.7169 21.9465C31.1863 18.6298 29.1615 15.591 26.2036 15.1722C25.9761 15.1403 25.7459 15.1239 25.5185 15.1239Z" fill="#F78E39"/>
<path d="M24.4479 31.2558C24.4479 32.6373 23.3279 33.7571 21.9464 33.7571H2.50148C1.11998 33.7571 0 32.6373 0 31.2558V7.44959C0 6.06809 1.11998 4.94824 2.50148 4.94824H21.9465C23.3281 4.94824 24.448 6.06809 24.448 7.44959L24.4479 31.2558Z" fill="#F78E39"/>
<path d="M12.2759 13.5729C19.0318 13.5729 24.5085 10.5345 24.5085 6.78647C24.5085 3.03841 19.0318 0 12.2759 0C5.51997 0 0.0432129 3.03841 0.0432129 6.78647C0.0432129 10.5345 5.51997 13.5729 12.2759 13.5729Z" fill="#FFA44A"/>
<path d="M12.2758 11.2589C17.4121 11.2589 21.5759 9.25681 21.5759 6.78715C21.5759 4.31749 17.4121 2.31543 12.2758 2.31543C7.13951 2.31543 2.97571 4.31749 2.97571 6.78715C2.97571 9.25681 7.13951 11.2589 12.2758 11.2589Z" fill="#824D29"/>
<path d="M12.2759 38.3727C19.0318 38.3727 24.5085 35.3343 24.5085 31.5863C24.5085 27.8382 19.0318 24.7998 12.2759 24.7998C5.51997 24.7998 0.0432129 27.8382 0.0432129 31.5863C0.0432129 35.3343 5.51997 38.3727 12.2759 38.3727Z" fill="#F78E39"/>
</svg>
