<svg width="59" height="58" viewBox="0 0 59 58" fill="none" xmlns="http://www.w3.org/2000/svg">
<path d="M54.9517 50.3231H3.57922L24.7327 10.1934H33.575L54.9517 50.3231Z" fill="#F72F56"/>
<path d="M29.2388 13.2652C32.9019 13.2652 35.8714 10.2957 35.8714 6.6326C35.8714 2.96951 32.9019 0 29.2388 0C25.5757 0 22.6062 2.96951 22.6062 6.6326C22.6062 10.2957 25.5757 13.2652 29.2388 13.2652Z" fill="white"/>
<path d="M58.0826 52.4684C58.0826 55.25 55.8277 57.5051 53.0461 57.5051H5.0365C2.25487 57.5051 0 55.25 0 52.4684V51.1363C0 48.3547 2.25487 46.0996 5.0365 46.0996H53.0463C55.8279 46.0996 58.0828 48.3547 58.0828 51.1363L58.0826 52.4684Z" fill="white"/>
</svg>
