<?xml version="1.0" encoding="utf-8"?>
<!-- Generator: Adobe Illustrator 16.0.0, SVG Export Plug-In . SVG Version: 6.00 Build 0)  -->
<!DOCTYPE svg PUBLIC "-//W3C//DTD SVG 1.1//EN" "http://www.w3.org/Graphics/SVG/1.1/DTD/svg11.dtd">
<svg version="1.1" id="Layer_1" xmlns="http://www.w3.org/2000/svg" xmlns:xlink="http://www.w3.org/1999/xlink" x="0px" y="0px"
	 width="1400px" height="980px" viewBox="0 0 1400 980" enable-background="new 0 0 1400 980" xml:space="preserve">
<rect x="-2" y="-2" fill="#E9F2ED" width="1406" height="985"/>
<g>
	<g>
		<path fill="#288C66" d="M812.366,470.572c-85.256,0-154.618-64.331-154.618-143.402c0-79.074,69.362-143.402,154.618-143.402
			s154.617,64.329,154.617,143.402C966.983,406.242,897.622,470.572,812.366,470.572z M812.366,262.278
			c-41.968,0-76.109,29.111-76.109,64.892c0,35.781,34.142,64.892,76.109,64.892c41.966,0,76.108-29.111,76.108-64.892
			C888.475,291.389,854.332,262.278,812.366,262.278z"/>
	</g>
	<polygon fill="#F72F56" points="838.027,227.996 900,237.443 900,168.546 811,210.016 722,168.546 722,237.443 785.764,227.683 
		718.527,297.922 748.818,293 750.271,322.2 811.288,224 811.966,224 872.945,322.2 874.357,292.844 904.846,297.844 	"/>
	<path fill="#F9E238" d="M942.95,329.973c0,9.071-7.353,16.424-16.421,16.424c-9.073,0-16.426-7.353-16.426-16.424
		c0-9.07,7.353-16.423,16.426-16.423C935.598,313.55,942.95,320.903,942.95,329.973z"/>
	<circle fill="#FFFADC" cx="888.072" cy="402.076" r="16.423"/>
	<circle fill="#F9E238" cx="811.165" cy="429.314" r="16.424"/>
	<circle fill="#F78E39" cx="726.243" cy="398.871" r="16.423"/>
	<circle fill="#F9E238" cx="697.402" cy="329.973" r="16.423"/>
	<circle fill="#FFFADC" cx="716.629" cy="259.474" r="16.423"/>
	<path fill="#F78E39" d="M923.725,259.474c0,9.071-7.356,16.424-16.424,16.424c-9.072,0-16.424-7.354-16.424-16.424
		c0-9.07,7.352-16.424,16.424-16.424C916.368,243.05,923.725,250.404,923.725,259.474z"/>
</g>
<g>
	<circle fill="#824D29" cx="131.464" cy="678.98" r="97.187"/>
	<circle cx="163.515" cy="619.53" r="10.857"/>
	<path d="M112.336,630.389c0,5.993-4.859,10.855-10.855,10.855c-5.997,0-10.857-4.862-10.857-10.855
		c0-5.999,4.861-10.858,10.857-10.858C107.477,619.53,112.336,624.39,112.336,630.389z"/>
	<circle cx="130.947" cy="597.819" r="10.856"/>
	<path d="M152.658,664.504c0,5.999-4.859,10.858-10.856,10.858c-5.995,0-10.855-4.859-10.855-10.858
		c0-5.994,4.86-10.854,10.855-10.854C147.799,653.649,152.658,658.51,152.658,664.504z"/>
	<path d="M202.288,664.504c0,5.999-4.861,10.858-10.857,10.858c-5.997,0-10.855-4.859-10.855-10.858
		c0-5.994,4.858-10.854,10.855-10.854C197.427,653.649,202.288,658.51,202.288,664.504z"/>
	<circle cx="197.634" cy="715.686" r="10.856"/>
	<circle cx="141.803" cy="715.686" r="10.855"/>
	<circle cx="152.658" cy="751.354" r="10.856"/>
	<circle cx="90.625" cy="729.643" r="10.856"/>
	<circle cx="101.48" cy="675.362" r="10.856"/>
	<path d="M68.912,681.564c0,5.997-4.859,10.857-10.855,10.857c-5.997,0-10.855-4.86-10.855-10.857
		c0-5.993,4.859-10.855,10.855-10.855C64.053,670.709,68.912,675.571,68.912,681.564z"/>
</g>
<g>
	<path fill="#824D29" d="M348.584,589.547c-9.897,0-19.445,1.491-28.442,4.24c1.983,3.659,3.111,7.85,3.111,12.304
		c0,12.903-9.465,23.567-21.824,25.504c-1.139,13.225-12.217,23.606-25.734,23.606c-6.381,0-12.208-2.32-16.716-6.151
		c-4.88,11.591-7.582,24.32-7.582,37.686c0,53.676,43.513,97.188,97.187,97.188c53.676,0,97.188-43.512,97.188-97.188
		C445.772,633.058,402.26,589.547,348.584,589.547z M275.177,700.176c-5.996,0-10.855-4.86-10.855-10.856
		c0-5.995,4.859-10.856,10.855-10.856c5.997,0,10.857,4.861,10.857,10.856C286.034,695.315,281.173,700.176,275.177,700.176z
		 M369.78,672.261c0,5.995-4.861,10.855-10.857,10.855s-10.855-4.86-10.855-10.855c0-5.998,4.859-10.857,10.855-10.857
		S369.78,666.263,369.78,672.261z M307.744,748.253c-5.994,0-10.855-4.858-10.855-10.857c0-5.995,4.861-10.854,10.855-10.854
		c5.997,0,10.857,4.859,10.857,10.854C318.602,743.395,313.741,748.253,307.744,748.253z M318.602,693.971
		c-5.996,0-10.857-4.858-10.857-10.854s4.861-10.855,10.857-10.855s10.856,4.859,10.856,10.855S324.598,693.971,318.602,693.971z
		 M318.602,648.997c-5.996,0-10.857-4.858-10.857-10.856c0-5.994,4.861-10.855,10.857-10.855s10.856,4.861,10.856,10.855
		C329.458,644.139,324.598,648.997,318.602,648.997z M337.211,605.573c0-5.996,4.86-10.857,10.856-10.857
		c5.996,0,10.855,4.861,10.855,10.857s-4.859,10.855-10.855,10.855C342.071,616.429,337.211,611.569,337.211,605.573z
		 M348.068,723.438c0-5.995,4.859-10.855,10.855-10.855s10.857,4.86,10.857,10.855c0,5.996-4.861,10.856-10.857,10.856
		S348.068,729.435,348.068,723.438z M369.78,769.965c-5.997,0-10.857-4.86-10.857-10.854c0-5.998,4.86-10.857,10.857-10.857
		c5.996,0,10.855,4.859,10.855,10.857C380.636,765.104,375.776,769.965,369.78,769.965z M380.636,638.141
		c-5.997,0-10.855-4.858-10.855-10.855c0-5.996,4.859-10.856,10.855-10.856c5.996,0,10.857,4.86,10.857,10.856
		C391.493,633.282,386.632,638.141,380.636,638.141z M397.696,672.261c0-5.998,4.859-10.857,10.855-10.857
		c5.997,0,10.857,4.859,10.857,10.857c0,5.995-4.86,10.855-10.857,10.855C402.555,683.116,397.696,678.256,397.696,672.261z
		 M414.754,734.295c-5.997,0-10.855-4.86-10.855-10.856c0-5.995,4.858-10.855,10.855-10.855c5.996,0,10.857,4.86,10.857,10.855
		C425.611,729.435,420.75,734.295,414.754,734.295z"/>
	<circle cx="380.636" cy="627.285" r="10.856"/>
	<circle cx="318.602" cy="638.141" r="10.856"/>
	<circle cx="348.067" cy="605.573" r="10.856"/>
	<circle cx="358.924" cy="672.261" r="10.856"/>
	<circle cx="408.552" cy="672.261" r="10.856"/>
	<circle cx="414.754" cy="723.439" r="10.856"/>
	<circle cx="358.924" cy="723.438" r="10.856"/>
	<circle cx="369.78" cy="759.109" r="10.856"/>
	<path d="M307.744,726.541c-5.994,0-10.855,4.859-10.855,10.854c0,5.999,4.861,10.857,10.855,10.857
		c5.997,0,10.857-4.858,10.857-10.857C318.602,731.4,313.741,726.541,307.744,726.541z"/>
	<circle cx="318.602" cy="683.116" r="10.855"/>
	<circle cx="275.177" cy="689.319" r="10.856"/>
</g>
<g>
	<g>
		<path fill="#F78E39" d="M543.589,409.138c-2.903,0-5.845-0.207-8.733-0.616c-36.231-5.126-61.225-40.979-55.716-79.926
			c4.999-35.317,33.783-61.951,66.963-61.951c2.903,0,5.843,0.208,8.733,0.618c36.229,5.126,61.224,40.979,55.715,79.923
			C605.554,382.504,576.769,409.138,543.589,409.138z M546.102,292.006c-20.623,0-38.614,17.257-41.85,40.142
			c-3.552,25.1,11.77,48.097,34.152,51.263c1.72,0.243,3.463,0.367,5.185,0.367c20.622,0,38.612-17.258,41.85-40.145
			c3.552-25.098-11.77-48.093-34.153-51.262C549.565,292.13,547.823,292.006,546.102,292.006z"/>
	</g>
	<g>
		<path fill="#F78E39" d="M538,414.072c0,10.454-8.475,18.928-18.929,18.928H371.929C361.475,433,353,424.526,353,414.072V233.928
			c0-10.454,8.475-18.928,18.929-18.928h147.143c10.454,0,18.929,8.474,18.929,18.928V414.072z"/>
	</g>
	<g>
		<ellipse fill="#FFA44A" cx="445.893" cy="228.909" rx="92.566" ry="51.354"/>
	</g>
	<g>
		<ellipse fill="#824D29" cx="445.893" cy="228.909" rx="70.375" ry="33.838"/>
	</g>
	<g>
		<ellipse fill="#F78E39" cx="445.893" cy="416.574" rx="92.566" ry="51.354"/>
	</g>
</g>
<g>
	<g>
		<path fill="#F72F56" d="M224.133,454c0,0,109.866-170.241,56.459-187.79c-35.762-11.75-54.932,44.961-54.932,44.961
			s28.839-159.5-67.902-154.035C22.719,164.767,100.538,454,100.538,454h-0.125l-4.513,43h132.37l-4.513-43H224.133z"/>
		<g>
			<polygon fill="none" points="225.468,470 98.7,470 97.92,478 226.246,478 			"/>
			<polygon fill="none" points="96.833,488 95.899,497 228.269,497 227.335,488 			"/>
			<path fill="none" d="M223.756,454h0.377c0,0,109.866-170.241,56.459-187.79c-35.762-11.75-54.932,44.961-54.932,44.961
				s28.839-159.5-67.902-154.035C22.719,164.767,100.538,454,100.538,454h-0.125l-0.624,6H224.38L223.756,454z"/>
			<polygon fill="#FFFFFF" points="226.246,478 97.92,478 96.833,488 227.335,488 			"/>
			<polygon fill="#FFFFFF" points="224.38,460 99.789,460 98.7,470 225.468,470 			"/>
		</g>
	</g>
	<path fill="#FFFFFF" d="M203.773,357h-31.625l22.729-22.15c1.343-1.344,1.343-3.23,0-4.573l-0.44-0.299
		c-1.343-1.342-3.626-1.269-4.968,0.074L167,352.485v-32.143c0-1.898-1.329-4.342-3.226-4.342h-0.625
		c-1.899,0-5.148,2.444-5.148,4.342v31.625l-21.873-22.728c-1.342-1.343-3.089-1.343-4.432,0l-0.229,0.441
		c-1.342,1.342-1.235,2.944,0.107,4.285L155.292,357H121.9c-1.899,0-3.9,2.692-3.9,4.591v0.624c0,1.899,2,2.785,3.9,2.785h32.143
		l-22.363,22.689c-1.342,1.342-1.342,3.682,0,5.025l0.442,0.523c1.343,1.342,2.663,1.383,4.005,0.041L158,370.59v31.625
		c0,1.897,3.249,3.785,5.148,3.785h0.625c1.897,0,3.226-1.888,3.226-3.785v-32.143l22.468,22.362
		c1.342,1.343,3.57,1.343,4.913,0.001l0.469-0.442c1.343-1.343,1.354-3.845,0.012-5.187L173.397,365h30.375
		c1.898,0,3.227-0.886,3.227-2.785v-0.624C207,359.692,205.671,357,203.773,357z"/>
	<path fill="#FFFFFF" d="M171.958,334.416l-8.878,19.937l-7.745-20.621c-0.471-1.223-1.744-1.789-2.967-1.319l-0.352,0.177
		c-1.223,0.469-1.896,2.047-1.425,3.269l7.756,20.581l-20.261-9.025c-1.198-0.533-2.427-0.38-2.96,0.816l-0.175,0.394
		c-0.533,1.197-0.173,3,1.023,3.532l19.937,8.88l-20.619,7.746c-1.225,0.47-1.79,1.741-1.32,2.965l0.177,0.352
		c0.469,1.224,1.652,1.721,2.874,1.25l21.326-8.371l-9.375,21.052c-0.533,1.196,0.405,2.777,1.604,3.31l0.393,0.175
		c1.198,0.534,2.214-0.177,2.745-1.374l9.024-20.263l8.013,20.461c0.469,1.223,1.938,1.877,3.161,1.408l0.45-0.133
		c1.223-0.469,1.771-1.63,1.301-2.854l-8.013-20.498l19.936,8.879c1.198,0.532,2.779-0.405,3.312-1.603l0.175-0.394
		c0.533-1.197-0.178-2.212-1.375-2.745l-20.263-9.023l20.462-8.014c1.223-0.468,1.877-1.937,1.408-3.16l-0.134-0.452
		c-0.469-1.224-2.023-1.945-3.245-1.475l-19.754,7.399l8.528-19.148c0.531-1.197,0.382-2.427-0.816-2.959l-0.393-0.176
		C174.293,332.859,172.489,333.219,171.958,334.416z"/>
</g>
<g>
	<circle fill="#FFFFFF" cx="1167" cy="405.201" r="136.03"/>
	<circle fill="#FFFFFF" cx="1167" cy="623.689" r="198.123"/>
	<path fill="#F72F56" d="M1193.49,406.136c-0.07-0.074-0.124-0.158-0.191-0.232c-8.168-8.695-21.07-14.288-35.433-4.075
		c-12.745,9.065-14.019,26.439-5.851,35.135c0.07,0.074,0.151,0.132,0.22,0.206c0.663,0.721,1.445,1.388,2.36,1.988
		c1.203,0.849,2.508,1.536,3.895,2.061l42.298,14.963c7.622,3.755,11.177,0.415,7.903-7.426l-11.551-36.123
		c-0.438-1.419-1.046-2.763-1.813-4.019C1194.785,407.665,1194.166,406.843,1193.49,406.136z"/>
	<g>
		<path fill="#824D29" d="M1179.252,622.08c0,6.768-5.486,12.252-12.251,12.252c-6.767,0-12.251-5.484-12.251-12.252
			c0-6.764,5.484-12.249,12.251-12.249C1173.766,609.831,1179.252,615.316,1179.252,622.08z"/>
		<circle fill="#824D29" cx="1167.001" cy="554.502" r="12.251"/>
		<circle cx="1209.479" cy="380.472" r="8.646"/>
		<circle cx="1134.177" cy="380.472" r="8.647"/>
		<path fill="#824D29" d="M1179.252,689.658c0,6.768-5.486,12.253-12.251,12.253c-6.767,0-12.251-5.485-12.251-12.253
			c0-6.764,5.484-12.248,12.251-12.248C1173.766,677.41,1179.252,682.895,1179.252,689.658z"/>
	</g>
	<polygon fill="#288C66" points="1217.119,276 1120.578,276 1110.924,182 1226.771,182 	"/>
	<path fill="#288C66" d="M1245,275.5c0,5.799-4.701,10.5-10.5,10.5h-133c-5.799,0-10.5-4.701-10.5-10.5l0,0
		c0-5.799,4.701-10.5,10.5-10.5h133C1240.299,265,1245,269.701,1245,275.5L1245,275.5z"/>
	<g>
		<polygon fill="none" points="1119.396,265 1120.578,276 1217.119,276 1218.301,265 		"/>
		<polygon fill="none" points="1226.771,182 1110.924,182 1118.411,255 1219.286,255 		"/>
		<polygon points="1219.286,255 1118.411,255 1119.396,265 1218.301,265 		"/>
	</g>
	<path fill="#603813" d="M1163.619,447.535c0,0,1.388,3.781,0,6.904c0,0-9.162-3.287-17.77,5.425
		c-8.607,8.712-14.99,29.258-34.704,29.258c-19.712,0-20.962-11.342-19.296-21.532c0,0,8.328-2.796,20.545,0.739
		c0,0,9.809,4.027,17.052-4.356C1136.688,455.59,1150.847,445.398,1163.619,447.535z"/>
</g>
<g>
	<polygon fill="#F72F56" points="970.176,777 726.946,777 827.1,587 868.965,587 	"/>
	<circle fill="#FFFFFF" cx="848.435" cy="570.139" r="31.403"/>
	<path fill="#FFFFFF" d="M985,787.153c0,13.17-10.676,23.847-23.846,23.847H733.846C720.676,811,710,800.323,710,787.153v-6.307
		c0-13.17,10.676-23.847,23.846-23.847h227.309c13.17,0,23.846,10.677,23.846,23.847V787.153z"/>
</g>
<g>
	<rect x="569" y="576" fill="#336759" width="8" height="62"/>
	<rect x="498" y="621" fill="#FFFFFF" width="150" height="176"/>
	<path fill="#F72F56" d="M676.377,794c0,9.924-9.843,18-19.767,18H491.293c-5.132,0-17.969-8.076-17.969-18l0,0
		c0-9.926,8.045-18,17.969-18h167.114C668.331,776,676.377,784.074,676.377,794L676.377,794z"/>
	<polygon fill="#288C66" points="677.502,820 473.325,820 474.06,796 676.766,796 	"/>
	<path fill="#F72F56" d="M576,488.491c0,0-72,107.214,0,107.214C647,595.705,576,488.491,576,488.491z"/>
</g>
</svg>
