<svg width="217" height="340" viewBox="0 0 217 340" fill="none" xmlns="http://www.w3.org/2000/svg">
<path d="M145.905 297.001C145.905 297.001 255.771 126.76 202.364 109.211C166.602 97.4613 147.432 154.172 147.432 154.172C147.432 154.172 176.271 -5.3277 79.5298 0.137296C-55.5092 7.7683 22.3098 297.001 22.3098 297.001H22.1848L17.6718 340.001H150.042L145.529 297.001H145.905Z" fill="#F72F56"/>
<path d="M148.018 321.001H19.6917L18.6047 331.001H149.107L148.018 321.001Z" fill="white"/>
<path d="M146.152 303.001H21.5608L20.4718 313.001H147.24L146.152 303.001Z" fill="white"/>
<path d="M125.545 200.001H93.9198L116.649 177.851C117.992 176.507 117.992 174.621 116.649 173.278L116.209 172.979C114.866 171.637 112.583 171.71 111.241 173.053L88.7719 195.486V163.343C88.7719 161.445 87.4429 159.001 85.5459 159.001H84.9209C83.0219 159.001 79.7729 161.445 79.7729 163.343V194.968L57.8999 172.24C56.5579 170.897 54.8109 170.897 53.4678 172.24L53.2388 172.681C51.8968 174.023 52.0039 175.625 53.3459 176.966L77.0639 200.001H43.6719C41.7729 200.001 39.7719 202.693 39.7719 204.592V205.216C39.7719 207.115 41.7719 208.001 43.6719 208.001H75.8148L53.4518 230.69C52.1098 232.032 52.1098 234.372 53.4518 235.715L53.8938 236.238C55.2368 237.58 56.5569 237.621 57.8988 236.279L79.7719 213.591V245.216C79.7719 247.113 83.0208 249.001 84.9198 249.001H85.5448C87.4418 249.001 88.7708 247.113 88.7708 245.216V213.073L111.239 235.435C112.581 236.778 114.809 236.778 116.152 235.436L116.621 234.994C117.964 233.651 117.975 231.149 116.633 229.807L95.1689 208.001H125.544C127.442 208.001 128.771 207.115 128.771 205.216V204.592C128.772 202.693 127.443 200.001 125.545 200.001Z" fill="white"/>
<path d="M93.7299 177.417L84.8519 197.354L77.1069 176.733C76.6359 175.51 75.3629 174.944 74.1399 175.414L73.7879 175.591C72.5649 176.06 71.8919 177.638 72.3629 178.86L80.1189 199.441L59.8579 190.416C58.6599 189.883 57.4309 190.036 56.8979 191.232L56.7229 191.626C56.1899 192.823 56.5499 194.626 57.7459 195.158L77.6829 204.038L57.0639 211.784C55.8389 212.254 55.2739 213.525 55.7439 214.749L55.9209 215.101C56.3899 216.325 57.5729 216.822 58.7949 216.351L80.1209 207.98L70.7459 229.032C70.2129 230.228 71.1509 231.809 72.3499 232.342L72.7429 232.517C73.9409 233.051 74.9569 232.34 75.4879 231.143L84.5119 210.88L92.5249 231.341C92.9939 232.564 94.4629 233.218 95.6859 232.749L96.1359 232.616C97.3589 232.147 97.9069 230.986 97.4369 229.762L89.4239 209.264L109.36 218.143C110.558 218.675 112.139 217.738 112.672 216.54L112.847 216.146C113.38 214.949 112.669 213.934 111.472 213.401L91.2089 204.378L111.671 196.364C112.894 195.896 113.548 194.427 113.079 193.204L112.945 192.752C112.476 191.528 110.922 190.807 109.7 191.277L89.9459 198.676L98.4739 179.528C99.0049 178.331 98.8559 177.101 97.6579 176.569L97.2649 176.393C96.0649 175.86 94.2608 176.22 93.7299 177.417Z" fill="white"/>
</svg>
