<?xml version="1.0" encoding="utf-8"?>
<!-- Generator: Adobe Illustrator 25.2.0, SVG Export Plug-In . SVG Version: 6.00 Build 0)  -->
<svg version="1.1" id="Layer_1" xmlns="http://www.w3.org/2000/svg" xmlns:xlink="http://www.w3.org/1999/xlink" x="0px" y="0px"
	 viewBox="0 0 2800 2800" style="enable-background:new 0 0 2800 2800;" xml:space="preserve">
<style type="text/css">
	.st0{fill:none;}
	.st1{fill:#BE7539;}
	.st2{fill:#603813;}
	.st3{fill:#FFFFFF;}
</style>
<g>
	<g>
		<path class="st0" d="M1397.6,1914c75.7,0.8,155.4-6.4,221.4-19.8c-76.6-52.7-155.9-110.7-232.1-172.4
			c-54.5,58.5-116.9,117.4-182.4,172.4C1265.8,1906.7,1330.6,1913.3,1397.6,1914z"/>
		<path class="st0" d="M1211.4,1086.2l1.1-1.3c6.2-7,12.8-12.3,19.6-16c-137.6-155.7-293-159.3-299.9-159.3c-2.6,0-4.1,0.1-4.8,0.1
			c-46.5,3.4-146.7,43.9-217.5,138.1c-75.7,100.9-96.8,232.6-62.7,391.4c24.9,116.1,89.1,212.8,196.1,295.2
			c38.8-23.6,79.8-50,122.5-80.7c77.3-55.7,136.4-109,190.4-171.6c-16.1-40.3-23.9-87.5-23.3-141.1
			C1134.4,1193.2,1208.3,1090.5,1211.4,1086.2z"/>
		<path class="st0" d="M1852.5,1611.2c63.7,42.8,118.8,76.9,167,104.9c120.1-113.4,179.5-268.3,176.5-460.8
			c-1.3-83.9-26.1-162.9-69.9-222.3c-44.7-60.7-105.8-94.5-172.1-95.2c-14.8-0.2-30,1.3-45.3,4.3c-59.4,11.7-152.9,61.3-221.7,117.1
			c6.3,22.7,12.2,51.6,14.5,84.9c4.8,72.2-7.8,179.3-91.8,286.7C1694.2,1501.8,1788.2,1568,1852.5,1611.2z"/>
		<path class="st1" d="M580.5,1900.9c0.3-0.3,0.5-0.6,0.8-0.9c0.5-0.5,1.1-1,1.6-1.5c1.7-1.6,3.3-3.2,5.1-4.8c0.5-0.5,1-0.9,1.5-1.4
			c6.6-5.9,13.7-11.7,21.3-17.6c0.5-0.3,0.9-0.7,1.4-1c2.1-1.6,4.3-3.2,6.5-4.8c1.1-0.8,2.1-1.5,3.2-2.3c2-1.4,4-2.9,6.1-4.3
			c1.4-1,2.8-1.9,4.2-2.9c1.9-1.3,3.9-2.6,5.8-3.9c1.7-1.1,3.4-2.3,5.2-3.4c1.8-1.2,3.6-2.3,5.4-3.5c2.4-1.5,4.9-3.1,7.3-4.6
			c1.3-0.8,2.5-1.6,3.8-2.4c3.8-2.4,7.7-4.7,11.7-7.1c1.2-0.7,2.4-1.4,3.5-2.1c3-1.8,5.9-3.6,9-5.4c1.5-0.9,2.9-1.7,4.4-2.6
			c2.8-1.7,5.7-3.3,8.6-5c1.6-0.9,3.2-1.9,4.8-2.8c2.9-1.7,5.8-3.3,8.7-5c1.7-1,3.4-2,5.1-3c2.7-1.5,5.4-3.1,8.1-4.6
			c6.4-3.7,12.9-7.4,19.6-11.2c10.6-6,21.3-12.2,32.3-18.4c0.2-0.1,0.3-0.2,0.4-0.3c11-6.3,22.2-12.8,33.6-19.5
			c-106.1-85.3-172.7-188.7-198.2-307.7c-25-116.7-33.3-284.5,69.3-421.2c44.1-58.7,96-94.6,131.8-114.3
			c39.6-21.8,81.6-36.2,112.4-38.4c2.2-0.2,4.9-0.2,7.9-0.2c71.7,0.8,224.7,42.8,346.4,194.7c25.5,10.8,51.8,39.4,85.9,84.1
			c0,0,0,0.1,0.1,0.1c1.5,1.9,2.9,3.8,4.4,5.8c0.2,0.3,0.4,0.5,0.6,0.8c1.4,1.9,2.9,3.8,4.4,5.8c0.1,0.2,0.3,0.4,0.5,0.6
			c6.3,8.4,12.9,17.4,19.8,26.8c0.1,0.1,0.2,0.2,0.3,0.4c7,9.6,14.4,19.8,22.1,30.4c5.6,7.7,11.3,15.5,17.1,23.5
			c7.2,9.9,14.6,20,22.3,30.5c0,0.1,0.1,0.1,0.1,0.2c2.2,3,4.5,6,6.9,9c1.1,1.4,2.2,2.8,3.3,4.2c0.9,1.1,1.8,2.2,2.7,3.3
			c27,33.4,64.8,71.6,110.8,112.4c0.5,0.5,1.1,0.9,1.6,1.4c139.1-179.2,64.8-358.3,53.8-382.3c-0.6-1.4-1.1-2.2-1.2-2.6
			c-2.7-4.9-58.6-105.1-174.2-207c-97.7-85.9-254.1-186.7-471.6-217.6c-16.2-2.3-32.9-3.6-49.9-3.7C800.4,592,645.1,662.1,523.2,781
			c-133.4,130.1-211.3,299.6-219.3,477.2c-6.9,152.7,17.4,290.8,72.1,410.5c43.8,95.5,107,179.7,188.1,250.5c0.5-0.7,1.1-1.3,1.6-2
			c0.9-1.1,1.9-2.3,2.8-3.4c1.4-1.6,2.7-3.2,4.2-4.8c0.8-0.9,1.7-1.8,2.6-2.8C577,1904.4,578.7,1902.7,580.5,1900.9z M680.1,1758.3
			c0.9-35.1,23.6-7.2,23.6-7.2s10.9,31.5,3,35.2C706.7,1786.3,679.2,1793.4,680.1,1758.3z M602.8,1693.7c15-2.8,26.4,51.1-3.3,29.9
			C599.5,1723.5,587.8,1696.5,602.8,1693.7z M1549.7,1306.5c-10.7,14-17.6-0.2-17.6-0.2s-10.4-21.3,7.3-21.1
			C1557,1285.4,1560.4,1292.5,1549.7,1306.5z M1541.5,1001.1c14.7,0.2,43.9,22.6,21.7,37.1c-22.2,14.5-29.3-11.4-29.3-11.4
			S1526.8,1001,1541.5,1001.1z M1510,1137c5.5-1.8,15.9,4,19,10.3c4.3,8.8,6.5,19-7.7,17.4c0,0-17.1-5.1-19.4-17.4
			C1500.8,1141.5,1505.1,1138.5,1510,1137z M1438.6,870.3c14.7,0.2,25.6,11.3,21.8,22.3c-1.9,5.5-7.5,9.1-12.5,11.4
			c-5.1,2.2-12.7-4.5-14.5-12.8C1431.2,881.2,1430.6,870.2,1438.6,870.3z M1362.4,1047c11.2-16.4,42.4-0.9,36.6,21.1
			c-2.4,9.3-2.2,15.6-14.9,12.2C1384.2,1080.4,1351.2,1063.5,1362.4,1047z M1273.9,894.5c-15.5,16.3-24.6,9.6-24.6,9.6l-4.7-17.2
			c0,0,2.6-12.2,14.9-12.1C1271.7,874.9,1283.8,884.2,1273.9,894.5z M1223.6,737.9c0,0,14.1-10.3,23.6-2.9
			c9.5,7.4,12.2,15.6,2.1,16.8C1239.2,753.1,1221.5,748.4,1223.6,737.9z M1132.4,675.3c0,0,20.7,15.4,13.3,37.5
			c-7.3,22.1-22.8,5.9-31-13.9C1106.7,679.1,1132.4,675.3,1132.4,675.3z M1065.4,768.7c9.8-2.3,19.7-7.2,19.7-7.2s4.7,17.2-2.7,19.6
			c-7.4,2.4-14.8,2.3-14.8,2.3S1055.6,771,1065.4,768.7z M894.3,706c8.5-1.6,16.2-1.7,22.1-1.3c7.4,0.5,16.7,9.3,19,17
			c2.3,7.6,2.2,15.2-7.3,15.1c-19-0.2-37.8-11.8-37.8-11.8S875.3,709.6,894.3,706z M824,791.6c20.3,11.4,20.3,11.4,20.3,11.4
			s13.2,28.8-13.5,31.1C804.1,836.4,803.7,780.1,824,791.6z M352,1315.3c-7.5,9.7-14.8,9.7-24.5-7.6c0,0-3.7-8.5,12.4-12.1
			C340,1295.5,359.5,1305.5,352,1315.3z M689.5,719.4c5.8-2.5,12.9-4.9,18.1-5c6-0.1,6.3,6.2,5.5,11.5c-0.6,4-6,9.2-11.3,11.3
			c-5.1,2-11.3,4.3-15.9,6c-5.3,1.9-6.7-4.4-7-10.2C678.7,728.6,683.7,721.9,689.5,719.4z M589.4,823.3c0.7-7.3,7.8-4.2,12,3.5
			c0,0,8,20.4-9.3,21.3C574.7,849.1,588.7,830.7,589.4,823.3z M577.3,964.6c17.2,0.2,2.3,12.3,2.3,12.3l4.8,12.3
			c-6.1,12-12.3,4.8-12.3,4.8S560.1,964.5,577.3,964.6z M428.1,1440.8c0,0-15.2,20.2-19.9,3.5
			C403.5,1427.6,437.1,1412.6,428.1,1440.8z M410.2,1152.1c0,0,12.3,26,0.3,29.6C398.4,1185.2,386.3,1134.5,410.2,1152.1z
			 M436.6,1591.5c-2.4,18.6-39.6,13.9-30.7-16.2C409.2,1564,438.9,1572.8,436.6,1591.5z M455.4,1036.5c-8.4-1.7-3.9-9.6,5.7-13.4
			c0,0,24.7-6.6,23.5,13.6C483.4,1056.8,463.8,1038.2,455.4,1036.5z M509.2,1686c-10.7,14-17.6-0.2-17.6-0.2s-10.4-21.3,7.3-21.1
			C516.5,1664.9,519.9,1672,509.2,1686z M516.2,1361.5c-1.7,23.2-20.7,11.3-33.4-6c-7.2-9.8-2.6-17.2,2.7-21.8
			c4.1-3.5,14.6-2.9,20.3,2.5C511.6,1341.6,517.1,1349.9,516.2,1361.5z M520.4,1180.6c0,0,0.2-20.2,9.4-22
			c9.2-1.7,22,11.3,14.5,20.4C536.8,1188.2,520.4,1180.6,520.4,1180.6z M554.7,1810.3c-19-6.5-19-6.5-19-6.5s-9.3-19.1,9.7-15.8
			C564.4,1791.4,573.6,1816.8,554.7,1810.3z M553.2,1578.7c-7.3-5-4.2-19.9-0.1-22.2c8.5-4.8,21.6-8.3,22.2,15
			C575.7,1583.8,560.5,1583.6,553.2,1578.7z"/>
		<path class="st1" d="M2197.9,1854.3c-1.1-0.6-2.3-1.2-3.4-1.8c-0.7-0.4-1.4-0.8-2.2-1.1c-1.6-0.9-3.3-1.8-5-2.6
			c-0.2-0.1-0.3-0.2-0.5-0.2c-9.8-5.1-20.3-10.6-31.5-16.5c-6-3.1-12.3-6.4-18.8-9.8c-1.1-0.6-2.3-1.2-3.4-1.8
			c-0.2-0.1-0.3-0.2-0.5-0.2c-36.9-19.2-80-42.2-131-71.9l-10.8-6.2l0.1-0.1c-46.3-27.2-98.9-59.9-159-100.3
			c-238.6-160.3-348.5-269.7-399-335.3c-0.1-0.1-0.2-0.3-0.3-0.4c-2.1-2.7-4.1-5.4-6-8c-11.1-15.1-21.5-29.4-31.5-43.2
			c-2.7-3.7-5.4-7.4-8-11c-54.4-75.1-97.4-134.5-125-143.4l-1.4-0.5c-1.4-0.3-2.8-0.6-4.2-0.6c-1.8,0-7.3-0.1-15.8,9.2
			c-6.1,8.7-69.6,103.1-71,232.8c-0.6,52.9,7.7,98.4,24.6,136.1l0.2,0.4c1.2,2.6,2.4,5.1,3.6,7.6c0.4,0.7,0.7,1.5,1.1,2.2
			c1.2,2.4,2.4,4.7,3.7,7c0.4,0.8,0.9,1.6,1.3,2.3c3.9,6.7,8,13.2,12.5,19.3c1,1.4,2.1,2.8,3.1,4.2c1,1.4,2.1,2.7,3.2,4
			c1.4,1.7,2.8,3.4,4.2,5c0.9,1,1.8,2.1,2.7,3.1c2.4,2.7,4.9,5.3,7.4,7.8l0,0l0,0c0.1,0.1,0.3,0.2,0.4,0.4
			c4.1,4.1,8.4,8.2,12.6,12.2c58.1,55.8,195.6,179.3,416.6,329.8l0.5-0.1l7,4.7c150.4,101.4,286.5,180.1,354.2,218l11.3,6.3
			c7.1,3.9,14.3,7.9,21.5,11.9c27.8,15.2,49.4,26,75.3,26.3h0c19,0.2,39.7-5.3,63.5-16.9c104.2-50.7,109.4-167.3,96.7-195.7
			C2282,1903.8,2252.2,1883.4,2197.9,1854.3z M1260.5,1370.9c-3.2,6.7-7.5,11.9-11.9,5.6c-8.3-11.6-7.7-29.4,6.2-25.7
			C1257.8,1351.6,1263.6,1364.4,1260.5,1370.9z M1277.5,1242.2c0,0-1.6-23.1,12.4-12.1c0,0,19.5,10,12.1,19.8
			C1294.5,1259.6,1287.1,1259.5,1277.5,1242.2z M1326,1510.2c-3.1,11.9-21.1,11.7-21.1,11.7s-11.6-33,3.4-35.9
			C1323.3,1483.2,1329.1,1498.3,1326,1510.2z M1385.1,1391.5c-5.2-16.6-26.2-37.7,2.8-35.5c0,0,21.6,14.7,20.8,24.3
			C1407.9,1390,1390.3,1408.1,1385.1,1391.5z M1407.9,1585.9c-4.7-16.7,19.6-17.2,19.9-3.5
			C1427.8,1582.4,1412.7,1602.6,1407.9,1585.9z M1540.1,1641.6c0,0-38.8,20.8-34.9-26c1.1-13.6,28.4,1.3,28.4,1.3s10.8-5.3,16.1,3.4
			C1564,1643.7,1540.1,1641.6,1540.1,1641.6z M1661.6,1806.2c0,0-12-22.2,5.1-19.6C1683.9,1789.3,1683.5,1826.1,1661.6,1806.2z
			 M1685.1,1715.8c0,0-29.3,0-33.7-15.5c-4.4-15.5,9.9-23.8,23.8-19.4c13.8,4.4,29.9,16.6,29.3,29.3
			C1703.9,1723,1685.1,1715.8,1685.1,1715.8z M1793.3,1888.5c-5.1,6.6-12.9,7.7-18.8,7.3c-4.8-0.3-8.8-6.3-8.5-12.1
			c0.6-9.7,3.1-22.6,12.5-22.5C1793.6,1861.3,1802.5,1876.5,1793.3,1888.5z M1834.7,1753.1c-13.4,5.5-16.9-7.1-16.9-7.1
			s5.1-16,9.4-18.3c8.9-4.8,12.7,0.4,14.2,6.9C1842.9,1741.1,1836.9,1752.2,1834.7,1753.1z M1896.9,1837c0,0-3-19.4,9.9-19.2
			C1919.7,1817.9,1925.6,1863.1,1896.9,1837z M1967.1,1981.4c-22-7.6-22-7.6-22-7.6s-18.1-26,7.7-33.1
			C1978.6,1933.7,1989.1,1989,1967.1,1981.4z M2042.3,1869.9c0,0,0.2-13.8,11.7-13.7c11.5,0.1,13.6,16.3,4.4,18.5
			C2049.1,1876.8,2042.3,1869.9,2042.3,1869.9z M2090.2,2010.2c-7.8,6.6-28.9-13.2-28.9-13.2c-6.3-13,16.3-19.2,29.1-12.6
			C2103.3,1991,2090.2,2010.2,2090.2,2010.2z M2133.3,2091c-21.6-4.6,0.7-15.2,5.8-19.4c5.1-4.2,10.7-10.1,21.5,4.7
			C2160.7,2076.2,2154.9,2095.5,2133.3,2091z M2171.3,1959.2c-7.4-9.3,3.4-17.1,10.6-17c7.2,0.1,11.9,19.5,11.9,19.5
			S2185,1976.3,2171.3,1959.2z"/>
		<path class="st1" d="M2519.2,1166.9c-23.5-218-136.3-352-226.8-426c-122.1-99.8-257.1-136.4-342.7-137.3
			c-10.4-0.1-20.5,0.3-30.1,1.1c-217.7,19.7-348.6,113.4-422.4,193.9c3.2,2.9,6.4,5.8,9.4,8.7c3.8,3.5,7.5,7.1,11.1,10.6
			c0.5,0.5,1,1,1.5,1.5c2.7,2.6,5.4,5.3,8,7.9c1.1,1.1,2.1,2.1,3.2,3.2c2,2,4,4.1,6,6.1c1.4,1.4,2.8,2.9,4.2,4.3
			c1.6,1.6,3.1,3.2,4.7,4.8c1.6,1.7,3.2,3.4,4.8,5c1.3,1.3,2.6,2.7,3.8,4c1.7,1.8,3.4,3.7,5.1,5.5c1.1,1.2,2.1,2.3,3.2,3.5
			c1.8,1.9,3.5,3.9,5.2,5.8c0.9,1,1.8,2,2.7,3c1.8,2,3.5,4,5.3,6c0.8,0.9,1.6,1.8,2.3,2.7c1.8,2.1,3.5,4.1,5.2,6.1
			c0.7,0.8,1.4,1.6,2,2.4c1.8,2.1,3.5,4.1,5.2,6.1c0.6,0.7,1.2,1.5,1.8,2.2c1.7,2.1,3.4,4.1,5,6.1c0.5,0.7,1.1,1.4,1.6,2
			c1.6,2,3.2,4,4.8,6c0.5,0.6,1,1.3,1.5,1.9c1.6,2,3.1,3.9,4.6,5.9c0.5,0.6,1,1.2,1.4,1.9c1.5,1.9,2.9,3.8,4.3,5.7
			c0.5,0.6,0.9,1.2,1.4,1.8c1.4,1.8,2.8,3.7,4.1,5.4c0.4,0.6,0.9,1.2,1.3,1.8c1.3,1.8,2.6,3.5,3.8,5.2c0.4,0.6,0.9,1.2,1.3,1.8
			c1.2,1.7,2.4,3.3,3.5,4.9c0.4,0.6,0.8,1.2,1.2,1.8c1.1,1.6,2.2,3.1,3.3,4.6c0.4,0.6,0.8,1.2,1.2,1.8c1,1.5,2,2.9,3,4.3
			c0.4,0.6,0.8,1.2,1.2,1.8c0.9,1.3,1.8,2.7,2.7,4c0.4,0.6,0.8,1.2,1.2,1.8c0.8,1.2,1.6,2.4,2.4,3.6c0.4,0.6,0.8,1.2,1.2,1.9
			c0.7,1.1,1.4,2.1,2.1,3.2c0.4,0.7,0.8,1.3,1.3,2c0.6,0.9,1.2,1.8,1.7,2.7c0.4,0.7,0.9,1.4,1.3,2.1c0.5,0.8,0.9,1.5,1.4,2.2
			c0.5,0.7,0.9,1.4,1.3,2.1c0.4,0.6,0.7,1.2,1.1,1.7c0.5,0.8,0.9,1.5,1.4,2.2c0.2,0.4,0.5,0.8,0.7,1.2c0.5,0.9,1,1.7,1.4,2.4
			c0.1,0.2,0.2,0.4,0.3,0.6c0.5,0.9,1,1.7,1.5,2.5c0,0,0,0.1,0.1,0.1c1.9,3.3,3,5.3,3.2,5.8l0.2,0.3c0.4,0.7,3.4,6.7,7.5,17.1
			c64.6-50,157.1-102.3,227-116.1c17.8-3.5,35.6-5.2,52.9-5c78.1,0.8,149.7,40,201.4,110.2c48.3,65.6,75.7,152.1,77.1,243.6
			c3,199-57.5,360.5-180,480.5c40.8,23,76.1,41.6,106.2,57.2c1.9,1,3.8,2,5.7,2.9c0.5,0.2,0.9,0.5,1.4,0.7c2.2,1.1,4.3,2.2,6.4,3.3
			c19.8,10.3,37.5,19.5,53.4,28.2c0.3,0.2,0.5,0.3,0.8,0.5c2.9,1.6,5.7,3.1,8.4,4.7c0.2,0.1,0.4,0.2,0.6,0.3
			c2.8,1.6,5.5,3.2,8.2,4.7c0.5,0.3,0.9,0.6,1.4,0.8c2.2,1.3,4.4,2.6,6.5,3.9c0.5,0.3,1.1,0.7,1.6,1c2.4,1.5,4.7,2.9,7,4.4
			c0.6,0.4,1.1,0.7,1.6,1.1c1.8,1.2,3.5,2.3,5.3,3.5c0.7,0.4,1.3,0.9,2,1.3c2.1,1.4,4.1,2.9,6.1,4.3c0.5,0.3,0.9,0.7,1.4,1
			c1.6,1.2,3.2,2.3,4.7,3.5c0.6,0.5,1.2,0.9,1.8,1.4c1.9,1.5,3.8,3,5.6,4.5c0.2,0.2,0.5,0.4,0.7,0.6c1.6,1.4,3.2,2.8,4.8,4.2
			c0.4,0.4,0.9,0.8,1.3,1.2c3.6,3.3,6.9,6.6,10.1,10.1c0.1,0.1,0.3,0.3,0.4,0.4C2394.5,1792.6,2561.7,1561.6,2519.2,1166.9z
			 M1645.8,884.4c-12,3.6-24.1-47.1-0.3-29.6C1645.6,854.9,1657.8,880.9,1645.8,884.4z M1733.6,715.1c-12.7,4.9-28.1,22.5-27.8-0.3
			c0,0,10.3-17.6,17.9-17.5C1731.3,697.3,1746.3,710.2,1733.6,715.1z M1810.9,847.4c0,0-28.2,22.1-34.7,15.4
			c0,0-16.9-25.4,19.1-36.8C1831.3,814.5,1810.9,847.4,1810.9,847.4z M1882.9,745.3c-22-7.6-22-7.6-22-7.6s-18.1-26,7.7-33.1
			C1894.5,697.5,1905,752.9,1882.9,745.3z M1992.8,694c-11-0.1-22-11.3-22-11.3s3.9-18.4,22.3-18.2
			C2011.5,664.8,2003.8,694.1,1992.8,694z M2028.5,793.8c-11.2,18.3-29.4-0.3-29.4-0.3s0.3-25.8,22.4-32.9
			C2043.7,753.5,2039.7,775.5,2028.5,793.8z M2139,787.6c18.4-3.5,36.6,22.5-0.2,22.1C2138.8,809.7,2120.6,791.1,2139,787.6z
			 M2171.6,943.5c0,0-36.8-0.4-18.1-26c18.7-25.6,7.5-14.6,22.1,0.2C2190.2,932.7,2171.6,943.5,2171.6,943.5z M2167.1,1770.7
			c0,0-2.3-14.5,0.2-21.7c2.5-7.2,15.5-3.9,13.8,11.2c-0.5,4.3,0.5,8.3,0.5,10.7C2181.5,1778.2,2167.1,1770.7,2167.1,1770.7z
			 M2241.5,1680c-11.2,18.3-22.1,3.4-22.1,3.4s-21.8-22.3,0.3-29.5C2241.9,1646.9,2252.7,1661.8,2241.5,1680z M2429.3,1345.7
			c18.4,3.9,10.6,40.6-18.7,29.3C2399.7,1370.8,2410.9,1341.9,2429.3,1345.7z M2400.7,991.7c12.3-2.3,19.1,49.3-2.8,29.4
			C2397.9,1021.2,2388.4,994.1,2400.7,991.7z M2332.1,978.7c17.2,2.6,16.8,39.5-5.1,19.6C2326.9,998.3,2314.9,976.1,2332.1,978.7z
			 M2301.4,1759.8c-19.7-6.8-19.7-6.8-19.7-6.8s-9.7-19.9,10.1-16.4C2311.5,1740.2,2321.1,1766.7,2301.4,1759.8z M2312.4,1480.8
			c-7.5,9.1-23.9,1.6-23.9,1.6s0.2-20.2,9.4-22C2307.1,1458.7,2319.8,1471.7,2312.4,1480.8z M2314.9,863.2l-14.8,7.2
			c0,0-21.8-22.3-3.3-36.9C2315.4,819,2314.9,863.2,2314.9,863.2z M2340.8,1582.7c-0.1,5.5-0.2,16.6-7.5,16.5
			c-7.4-0.1-7.3-7.4-7.3-7.4s2.1-22.1,9.4-22C2342.8,1569.8,2340.8,1577.2,2340.8,1582.7z M2351.4,1289.1
			c-7.5,9.7-14.9,12.1-22.2,7.1c-7.3-5-7.2-17.3-7.2-17.3l5-4c0,0,9.1-7.6,17.6-2.7C2350.7,1275.8,2355.7,1283.4,2351.4,1289.1z
			 M2388.8,1175.7c0,0-9.6-19.7,7.6-22c17.2-2.3,4.7,17.2,4.6,24.6C2401,1185.6,2393.7,1183.1,2388.8,1175.7z M2420.2,1667.3
			l-22-3.9c0,0,0.2-18.4,14.9-18.2C2427.8,1645.3,2420.2,1667.3,2420.2,1667.3z M2450.9,1506.1c-7.5,9.1-13.3,14.1-22.3,16.3
			c-20,5-20.2-7.6-20.2-7.6s14.9-18.2,26-20C2445.5,1493.2,2458.3,1497,2450.9,1506.1z M2488,1255.8c-7.5,9.7-14.8,9.7-24.5-7.6
			l12.4-12.1C2476,1236,2495.5,1246,2488,1255.8z"/>
		<path class="st1" d="M1397.2,1950.8c-79.9-0.9-156.9-9.9-228.9-26.8l-16.9,13.8c-7.6,6.2-15,12.2-22.2,18.1
			c-0.7,0.6-1.4,1.2-2.2,1.7c-3,2.4-6,4.8-8.9,7.2c-2.2,1.8-4.4,3.5-6.5,5.3c-1,0.8-1.9,1.6-2.9,2.4c-2.4,2-4.9,3.9-7.3,5.9
			c0,0-0.1,0.1-0.1,0.1c-68.8,55.5-120.6,95.3-182.5,133.2c95.5,41.7,253.6,86.8,497.9,94.6c3.7,0.1,7.4,0.2,11.3,0.2
			c130.2,1.4,363.8-35.7,447.3-60.7c9.7-2.9,20.8-5.9,32.5-9c19.4-5.2,41.9-11.3,67.4-19.4c-77.4-44.2-190.8-111.8-314.4-194.8
			C1586.5,1941.3,1488.8,1951.8,1397.2,1950.8z M1060.4,2085.6c-3.7,1.2-9.8-2.6-12.3,2.3c-2.5,4.9-7.3-8.7-7.3-8.7
			s12.4-15.8,19.7-9.6C1067.9,2075.8,1064.1,2084.4,1060.4,2085.6z M1174.3,2136.4l-30.1,3c0,0-2.9-36.7,13.7-36.6
			C1174.7,2103.1,1174.3,2136.4,1174.3,2136.4z M1184.9,2047.5c-0.5,3-6.5,3.4-12.7,1.1c-7.8-2.9-17.7-6.6-22.2-8.7
			c-8-3.8,7.7-16,7.7-16s17.3,5,24.1,11.5C1185.4,2039,1185.5,2043.9,1184.9,2047.5z M1290.9,2006.3c-2.6-12,2.3-17.6,21.7-13.7
			l1.2,17.3C1313.8,2010,1293.5,2018.3,1290.9,2006.3z M1366.4,2129.9c-8.1,13.9-29.1,5.3-25.4-7.4c1.6-5.4,4.8-9.1,8.1-11.6
			c4.4-3.4,13-2.1,16.1,2C1368.3,2117.1,1370.4,2123,1366.4,2129.9z M1425.8,2058c0,0-15.1-10.3-2.4-12.7
			c12.7-2.4,17.6,7.8,17.6,7.8S1428.2,2070.7,1425.8,2058z M1540,2151c-5.5,8.9-12.6,9.1-18.5,6.9c-6.2-2.3-10.9-13.2-8.4-20.2
			c2.7-7.5,8.3-16.2,19.8-19.9C1555.2,2110.7,1551.3,2132.7,1540,2151z M1577,2033.3c0,0-14.3,10.1-23.7,2.6
			c-9.4-7.5-12-15.8-1.9-16.9C1561.6,2017.9,1579.2,2022.8,1577,2033.3z M1784.2,2070.1c0,0,25.1-11.7,24.6,2.3
			c-0.5,14-14.4,3.6-17.5,10.8c-1.6,3.6-5.8,2.8-9.7,1.1C1777.6,2082.5,1784.2,2070.1,1784.2,2070.1z M1679.8,2122.4
			c7.7,3.7,17.6,10.5,11.3,19.5c-8.1,11.7-41.1-6.3-30.2-17.4C1663,2122.5,1675.6,2120.4,1679.8,2122.4z"/>
		<path class="st1" d="M1091.7,1938.7c1.6-1.3,3.2-2.6,4.9-3.9c2.2-1.8,4.4-3.6,6.7-5.4c0.9-0.7,1.8-1.4,2.7-2.2
			c7.2-5.8,14.5-11.8,22.1-17.9l25.9-21c73.5-59.7,143.9-125,204.4-189.8c-38.5-32-76-64.8-111.7-98.3c-0.9-0.8-1.8-1.7-2.7-2.5
			c-4.4-4.2-8.9-8.4-13.2-12.6c-1.2-1.1-2.4-2.3-3.6-3.4c-5.2-5-10.4-10-15.5-15.1c-3.6-3.5-7-7.1-10.3-10.8
			c-0.6-0.6-1.1-1.3-1.6-1.9c-2.8-3.2-5.5-6.5-8.2-9.8c-0.4-0.5-0.7-1-1.1-1.5c-2.8-3.6-5.5-7.3-8.1-11.1c-0.2-0.3-0.4-0.6-0.6-0.8
			c-2.8-4.1-5.4-8.3-8-12.6l0-0.1c-53.1,59.8-111.6,111.7-186.4,165.6c-38.7,27.9-76.5,52.5-112.3,74.6l0.2,0.1l-23.5,14.1
			c-13.6,8.2-26.7,15.9-39.5,23.3c-0.3,0.2-0.6,0.3-0.8,0.5c-3.7,2.1-7.4,4.3-11,6.4c-1.1,0.6-2.2,1.3-3.3,1.9
			c-2.5,1.4-5,2.9-7.4,4.3c-2,1.2-4,2.3-6,3.5c-0.6,0.3-1.2,0.7-1.7,1c-6.9,4-13.8,7.9-20.4,11.6c-57.6,32.8-102.2,58.9-133.5,83.5
			c-19.7,15.5-34.7,31-43.9,47.2l-1.2,2.1c-11,20.7-12.7,42.8-4.8,69.4c18.1,61.2,98.1,115.6,171.2,116.4l0,0
			c22.8,0.2,44-4.6,62.9-14.3c19.2-9.9,37-19.5,53.9-29.1l1.9-1.1c1-0.5,1.9-1.1,2.8-1.6c76.8-44.2,134.8-88.8,217.1-155.4
			C1089.1,1940.9,1090.4,1939.8,1091.7,1938.7z M1279.6,1671.2c7.4,0.1,8,8.1,5.4,12.9c-2.7,5.2-0.2,16.6-7.5,16.5
			c-7.4-0.1-7.3-7.4-7.3-7.4S1272.3,1671.1,1279.6,1671.2z M1169,1631.3c3.8,0,7.2,3.8,9.8,8c3.2,5,4,12.3,2,14
			c-4,3.6-11.3,7-18.2-5.5C1162.6,1647.8,1160.7,1631.2,1169,1631.3z M1152.4,1744.2c10.2-4.9,31.1,3.4,36.2,10.5
			c8.3,11.6-15.9,11.6-15.9,11.6l-10.6-1.8C1145.9,1760.8,1142.2,1749,1152.4,1744.2z M679.1,1962.9c-3.7-1.3-6.5-2.3-8.7-3
			c-6.5-2.2-7.8-5-8.2-7.9c-0.5-4,0.7-8.4,9.4-6.9C686.8,1947.8,694.2,1968.1,679.1,1962.9z M765.3,2007.8
			c-3.3,9.6-3.5,22.5-13.2,25.6c-9.7,3.1-22.5-6.7-22.5-6.7s3.4-16.1,16.4-28.8C759.1,1985.2,768.6,1998.2,765.3,2007.8z
			 M877.2,2006.3c-1.6,5.9-6.8,8.9-11.6,10.3c-4.9,1.5-11-3-12.2-8.8c-2.1-10-3.3-23.8,6.2-25.6
			C874.5,1979.3,880.3,1994.3,877.2,2006.3z M918.2,1898.9c-1.7,6.4-7.6,9.8-13.7,11.7c-7.3,2.2-16.3-8-16.3-8l-1.7-11
			c0,0-3.3-17.7,17.8-17.4C925.5,1874.2,921.9,1884.8,918.2,1898.9z M987.9,1981.7c-1.3,3.8-6.5,0.5-10.3-2.6
			c-2.3-1.9-1.1-12.5-1.1-12.5l3.4-9.9c0,0,6.2-2,8.2,4.2C990.1,1967.2,990,1975.5,987.9,1981.7z M1016.1,1827.4
			c-16.3,16.9-21.1-0.2-21.1-0.2s4.8-16.8,9.4-18.3c4.6-1.5,12.2,7.8,12.2,7.8C1020.7,1819.7,1016.1,1827.4,1016.1,1827.4z
			 M1066,1908.9c-7.4,7.9-14.8,9.8-22.2,5.7c-7.3-4.1-7.2-14-7.2-14s4.6-8.4,14.8-9.8C1051.5,1890.8,1073.4,1901,1066,1908.9z"/>
		<path class="st2" d="M2327.5,1915.7c90.9-92.8,273.3-335.2,228.3-752.8c-43.4-402.7-387.1-593.8-605.7-596.1
			c-11.6-0.1-23,0.3-33.8,1.3c-229.9,20.8-368.5,120.7-446.7,206.3c-102.6-86.5-260.4-182.9-475.8-213.6
			c-17.7-2.5-36.1-3.9-54.6-4.1c-147.8-1.6-312.8,72.4-441.6,198c-140.1,136.7-221.9,314.9-230.4,501.9
			c-7.2,158.6,18.2,302.4,75.5,427.4c46.9,102.3,115,192.2,202.6,267.3c-11.1,26.5-11.8,54.8-2.5,86.3
			c22.6,76.4,117,141.8,206.1,142.7l0,0c28.9,0.3,55.8-5.9,80.1-18.3c18.2-9.3,35.1-18.4,51.1-27.5c95.7,45.8,264.3,100,535.4,108.6
			c3.9,0.1,8,0.2,12.1,0.3c133.3,1.4,372.7-36.6,458.3-62.3c9.2-2.8,19.5-5.5,31.4-8.7c27.4-7.4,61.2-16.5,100.8-30.7
			c9.7,5.4,18.3,10.2,25.8,14.3c26,14.2,55.5,30.4,92.6,30.8l0,0c24.8,0.3,51-6.5,80-20.6c66.9-32.6,96.9-86.5,110.4-126
			c16.9-49.7,14.1-95,3.9-117.8C2329.6,1920,2328.6,1917.8,2327.5,1915.7z M568.6,1913.8c-1,1.1-1.9,2.3-2.8,3.4
			c-0.5,0.7-1.1,1.3-1.6,2c-81.1-70.8-144.4-155-188.1-250.5c-54.8-119.7-79.1-257.7-72.1-410.5c8-177.6,85.9-347.1,219.3-477.2
			c121.9-118.9,277.2-189,415.5-187.5c16.9,0.2,33.7,1.4,49.9,3.7c217.4,30.9,373.8,131.7,471.6,217.6
			c115.6,101.9,171.5,202,174.2,207c0.2,0.3,0.6,1.2,1.2,2.6c11,24,85.3,203.2-53.8,382.3c-0.5-0.5-1.1-0.9-1.6-1.4
			c-46.1-40.7-83.8-79-110.8-112.4c-0.9-1.1-1.8-2.2-2.7-3.3c-1.1-1.4-2.2-2.8-3.3-4.2c-2.3-3-4.7-6-6.9-9c0-0.1-0.1-0.1-0.1-0.2
			c-7.7-10.5-15.1-20.7-22.3-30.5c-5.8-8-11.5-15.8-17.1-23.5c-7.7-10.6-15-20.8-22.1-30.4c-0.1-0.1-0.2-0.2-0.3-0.4
			c-6.9-9.4-13.5-18.4-19.8-26.8c-0.2-0.2-0.3-0.4-0.5-0.6c-1.5-2-2.9-3.9-4.4-5.8c-0.2-0.3-0.4-0.5-0.6-0.8c-1.5-2-2.9-3.9-4.4-5.8
			c0,0,0-0.1-0.1-0.1c-34.1-44.7-60.4-73.4-85.9-84.1c-121.7-151.9-274.7-193.9-346.4-194.7c-3,0-5.6,0-7.9,0.2
			c-30.8,2.2-72.8,16.6-112.4,38.4c-35.8,19.7-87.7,55.6-131.8,114.3c-102.6,136.7-94.3,304.5-69.3,421.2
			c25.5,119.1,92.2,222.5,198.2,307.7c-11.4,6.7-22.6,13.2-33.6,19.5c-0.2,0.1-0.3,0.2-0.4,0.3c-10.9,6.3-21.7,12.4-32.3,18.4
			c-6.7,3.8-13.2,7.5-19.6,11.2c-2.7,1.6-5.4,3.1-8.1,4.6c-1.7,1-3.4,2-5.1,3c-2.9,1.7-5.8,3.4-8.7,5c-1.6,0.9-3.2,1.9-4.8,2.8
			c-2.9,1.7-5.8,3.4-8.6,5c-1.5,0.9-3,1.7-4.4,2.6c-3,1.8-6,3.6-9,5.4c-1.2,0.7-2.4,1.4-3.5,2.1c-4,2.4-7.9,4.8-11.7,7.1
			c-1.3,0.8-2.5,1.6-3.8,2.4c-2.5,1.5-4.9,3.1-7.3,4.6c-1.8,1.2-3.6,2.3-5.4,3.5c-1.7,1.1-3.5,2.3-5.2,3.4c-2,1.3-3.9,2.6-5.8,3.9
			c-1.4,1-2.8,1.9-4.2,2.9c-2.1,1.4-4.1,2.9-6.1,4.3c-1.1,0.8-2.1,1.5-3.2,2.3c-2.2,1.6-4.4,3.2-6.5,4.8c-0.5,0.3-0.9,0.7-1.4,1
			c-7.6,5.8-14.8,11.6-21.3,17.6c-0.5,0.5-1,0.9-1.5,1.4c-1.7,1.6-3.4,3.2-5.1,4.8c-0.5,0.5-1.1,1-1.6,1.5c-0.3,0.3-0.5,0.6-0.8,0.9
			c-1.8,1.8-3.5,3.5-5.1,5.3c-0.9,0.9-1.7,1.8-2.6,2.8C571.3,1910.6,570,1912.2,568.6,1913.8z M1701.4,1144
			c-2.2-33.4-8.1-62.2-14.5-84.9c68.8-55.8,162.2-105.4,221.7-117.1c15.3-3,30.6-4.5,45.3-4.3c66.3,0.7,127.4,34.5,172.1,95.2
			c43.8,59.5,68.6,138.4,69.9,222.3c2.9,192.5-56.5,347.5-176.5,460.8c-48.1-28-103.3-62.1-167-104.9
			c-64.3-43.2-158.3-109.4-242.8-180.5C1693.6,1323.3,1706.2,1216.3,1701.4,1144z M1156.2,1482.1
			c-53.9,62.6-113.1,115.9-190.4,171.6c-42.7,30.8-83.6,57.1-122.5,80.7c-107-82.4-171.2-179.1-196.1-295.2
			c-34.1-158.9-13-290.6,62.7-391.4c70.7-94.3,170.9-134.8,217.5-138.1c0.7,0,2.2-0.1,4.8-0.1c6.9,0.1,162.3,3.6,299.9,159.3
			c-6.9,3.7-13.4,9-19.6,16l-1.1,1.3c-3.1,4.3-77,107-78.6,254.8C1132.3,1394.6,1140.1,1441.8,1156.2,1482.1z M870.6,2097.4
			c-0.9,0.5-1.9,1.1-2.8,1.6l-1.9,1.1c-16.8,9.6-34.6,19.2-53.9,29.1c-18.9,9.7-40,14.5-62.9,14.3l0,0
			c-73.1-0.8-153.1-55.2-171.2-116.4c-7.9-26.6-6.2-48.7,4.8-69.4l1.2-2.1c9.2-16.2,24.2-31.7,43.9-47.2
			c31.3-24.6,75.9-50.6,133.5-83.5c6.6-3.8,13.4-7.7,20.4-11.6c0.6-0.3,1.2-0.7,1.7-1c2-1.1,4-2.3,6-3.5c2.5-1.4,4.9-2.8,7.4-4.3
			c1.1-0.6,2.2-1.3,3.3-1.9c3.6-2.1,7.3-4.2,11-6.4c0.3-0.2,0.6-0.3,0.8-0.5c12.8-7.5,26-15.2,39.5-23.3l23.5-14.1l-0.2-0.1
			c35.8-22.1,73.6-46.7,112.3-74.6c74.9-53.9,133.3-105.8,186.4-165.6l0,0.1c2.5,4.3,5.2,8.5,8,12.6c0.2,0.3,0.4,0.6,0.6,0.8
			c2.6,3.8,5.3,7.5,8.1,11.1c0.4,0.5,0.7,1,1.1,1.5c2.6,3.4,5.4,6.6,8.2,9.8c0.5,0.6,1.1,1.3,1.6,1.9c3.3,3.7,6.7,7.3,10.3,10.8
			c5.1,5,10.3,10.1,15.5,15.1c1.2,1.1,2.4,2.3,3.6,3.4c4.4,4.2,8.8,8.4,13.2,12.6c0.9,0.8,1.8,1.7,2.7,2.5
			c35.7,33.5,73.2,66.3,111.7,98.3c-60.6,64.8-130.9,130.2-204.4,189.8l-25.9,21c-7.6,6.2-14.9,12.1-22.1,17.9
			c-0.9,0.7-1.8,1.4-2.7,2.2c-2.2,1.8-4.5,3.6-6.7,5.4c-1.6,1.3-3.2,2.6-4.9,3.9c-1.3,1.1-2.7,2.2-4,3.2
			C1005.4,2008.5,947.4,2053.2,870.6,2097.4z M1386.8,1721.9c76.2,61.6,155.5,119.7,232.1,172.4c-66,13.3-145.7,20.6-221.4,19.8
			c-67-0.7-131.8-7.4-193.1-19.8C1270,1839.3,1332.3,1780.4,1386.8,1721.9z M1907.7,2136.8c-11.7,3.1-22.7,6.1-32.5,9
			c-83.5,25-317.1,62.1-447.3,60.7c-3.9,0-7.7-0.1-11.3-0.2c-244.2-7.7-402.3-52.9-497.9-94.6c61.9-38,113.6-77.7,182.5-133.2
			c0,0,0.1-0.1,0.1-0.1c2.4-1.9,4.8-3.9,7.3-5.9c1-0.8,1.9-1.6,2.9-2.4c2.2-1.8,4.3-3.5,6.5-5.3c2.9-2.4,5.9-4.8,8.9-7.2
			c0.7-0.6,1.4-1.2,2.2-1.7c7.2-5.9,14.6-11.9,22.2-18.1l16.9-13.8c72,16.9,149,25.9,228.9,26.8c91.6,1,189.3-9.5,263.5-28.3
			c123.6,83,237,150.6,314.4,194.8C1949.6,2125.5,1927,2131.6,1907.7,2136.8z M2200.3,2133c-23.7,11.6-44.5,17.1-63.5,16.9h0
			c-25.9-0.3-47.6-11.1-75.3-26.3c-7.2-4-14.4-7.9-21.5-11.9l-11.3-6.3c-67.7-37.9-203.8-116.7-354.2-218l-7-4.7l-0.5,0.1
			c-221-150.5-358.5-274-416.6-329.8c-4.2-4.1-8.5-8.2-12.6-12.2c-0.1-0.1-0.3-0.2-0.4-0.4l0,0l0,0c-2.6-2.5-5-5.1-7.4-7.8
			c-0.9-1-1.8-2-2.7-3.1c-1.4-1.6-2.8-3.3-4.2-5c-1.1-1.3-2.1-2.7-3.2-4c-1.1-1.4-2.1-2.8-3.1-4.2c-4.5-6.1-8.7-12.6-12.5-19.3
			c-0.4-0.8-0.9-1.6-1.3-2.3c-1.3-2.3-2.5-4.6-3.7-7c-0.4-0.7-0.7-1.5-1.1-2.2c-1.2-2.5-2.5-5.1-3.6-7.6l-0.2-0.4
			c-16.9-37.7-25.2-83.2-24.6-136.1c1.4-129.7,65-224.1,71-232.8c8.5-9.3,14-9.2,15.8-9.2c1.3,0,2.7,0.2,4.2,0.6l1.4,0.5
			c27.6,9,70.6,68.3,125,143.4c2.6,3.6,5.3,7.3,8,11c10,13.8,20.4,28.1,31.5,43.2c1.9,2.6,3.9,5.2,6,8c0.1,0.1,0.2,0.3,0.3,0.4
			c50.5,65.5,160.3,175,399,335.3c60.1,40.4,112.7,73.1,159,100.3l-0.1,0.1l10.8,6.2c51,29.7,94.1,52.6,131,71.9
			c0.2,0.1,0.3,0.2,0.5,0.2c1.1,0.6,2.3,1.2,3.4,1.8c6.5,3.4,12.8,6.6,18.8,9.8c11.3,5.9,21.8,11.3,31.5,16.5
			c0.2,0.1,0.3,0.2,0.5,0.2c1.7,0.9,3.4,1.8,5,2.6c0.7,0.4,1.4,0.8,2.2,1.1c1.1,0.6,2.3,1.2,3.4,1.8c54.3,29.1,84.1,49.5,99.1,83
			C2309.8,1965.7,2304.5,2082.3,2200.3,2133z M2306.2,1884.8c-0.1-0.1-0.3-0.3-0.4-0.4c-3.2-3.5-6.5-6.8-10.1-10.1
			c-0.4-0.4-0.9-0.8-1.3-1.2c-1.6-1.4-3.1-2.8-4.8-4.2c-0.2-0.2-0.5-0.4-0.7-0.6c-1.8-1.5-3.7-3-5.6-4.5c-0.6-0.5-1.2-0.9-1.8-1.4
			c-1.5-1.2-3.1-2.4-4.7-3.5c-0.5-0.3-0.9-0.7-1.4-1c-2-1.4-4-2.9-6.1-4.3c-0.6-0.4-1.3-0.9-2-1.3c-1.7-1.2-3.5-2.3-5.3-3.5
			c-0.6-0.4-1.1-0.7-1.6-1.1c-2.3-1.5-4.6-2.9-7-4.4c-0.5-0.3-1.1-0.7-1.6-1c-2.1-1.3-4.3-2.6-6.5-3.9c-0.5-0.3-0.9-0.6-1.4-0.8
			c-2.7-1.6-5.4-3.1-8.2-4.7c-0.2-0.1-0.4-0.2-0.6-0.3c-2.8-1.6-5.6-3.1-8.4-4.7c-0.3-0.2-0.5-0.3-0.8-0.5
			c-15.9-8.7-33.6-17.9-53.4-28.2c-2.1-1.1-4.2-2.2-6.4-3.3c-0.5-0.2-0.9-0.5-1.4-0.7c-1.9-1-3.8-2-5.7-2.9
			c-30-15.6-65.4-34.2-106.2-57.2c122.5-119.9,183.1-281.4,180-480.5c-1.4-91.5-28.8-178-77.1-243.6
			c-51.7-70.2-123.2-109.3-201.4-110.2c-17.3-0.2-35.1,1.5-52.9,5c-69.9,13.8-162.4,66.1-227,116.1c-4.1-10.4-7.1-16.4-7.5-17.1
			l-0.2-0.3c-0.3-0.5-1.4-2.5-3.2-5.8c0,0,0-0.1-0.1-0.1c-0.4-0.8-0.9-1.6-1.5-2.5c-0.1-0.2-0.2-0.4-0.3-0.6
			c-0.5-0.8-0.9-1.6-1.4-2.4c-0.2-0.4-0.5-0.8-0.7-1.2c-0.4-0.7-0.9-1.5-1.4-2.2c-0.3-0.6-0.7-1.2-1.1-1.7c-0.4-0.7-0.9-1.4-1.3-2.1
			c-0.4-0.7-0.9-1.5-1.4-2.2c-0.4-0.7-0.8-1.3-1.3-2.1c-0.5-0.9-1.1-1.8-1.7-2.7c-0.4-0.6-0.8-1.3-1.3-2c-0.7-1-1.4-2.1-2.1-3.2
			c-0.4-0.6-0.8-1.2-1.2-1.9c-0.8-1.2-1.6-2.4-2.4-3.6c-0.4-0.6-0.8-1.2-1.2-1.8c-0.9-1.3-1.8-2.6-2.7-4c-0.4-0.6-0.8-1.2-1.2-1.8
			c-1-1.4-1.9-2.8-3-4.3c-0.4-0.6-0.8-1.2-1.2-1.8c-1.1-1.5-2.1-3.1-3.3-4.6c-0.4-0.6-0.8-1.2-1.2-1.8c-1.2-1.6-2.3-3.3-3.5-4.9
			c-0.4-0.6-0.9-1.2-1.3-1.8c-1.2-1.7-2.5-3.4-3.8-5.2c-0.4-0.6-0.9-1.2-1.3-1.8c-1.3-1.8-2.7-3.6-4.1-5.4c-0.5-0.6-0.9-1.2-1.4-1.8
			c-1.4-1.9-2.9-3.8-4.3-5.7c-0.5-0.6-1-1.2-1.4-1.9c-1.5-1.9-3-3.9-4.6-5.9c-0.5-0.6-1-1.3-1.5-1.9c-1.6-2-3.2-4-4.8-6
			c-0.5-0.7-1.1-1.3-1.6-2c-1.6-2-3.3-4-5-6.1c-0.6-0.7-1.2-1.5-1.8-2.2c-1.7-2-3.4-4.1-5.2-6.1c-0.7-0.8-1.4-1.6-2-2.4
			c-1.7-2-3.5-4.1-5.2-6.1c-0.8-0.9-1.6-1.8-2.3-2.7c-1.7-2-3.5-4-5.3-6c-0.9-1-1.8-2-2.7-3c-1.7-1.9-3.5-3.9-5.2-5.8
			c-1-1.1-2.1-2.3-3.2-3.5c-1.7-1.8-3.4-3.7-5.1-5.5c-1.2-1.3-2.5-2.7-3.8-4c-1.6-1.7-3.2-3.3-4.8-5c-1.5-1.6-3.1-3.2-4.7-4.8
			c-1.4-1.4-2.8-2.9-4.2-4.3c-2-2-4-4-6-6.1c-1.1-1.1-2.1-2.1-3.2-3.2c-2.6-2.6-5.3-5.2-8-7.9c-0.5-0.5-1-1-1.5-1.5
			c-3.6-3.5-7.3-7-11.1-10.6c-3.1-2.9-6.2-5.8-9.4-8.7c73.7-80.5,204.6-174.2,422.4-193.9c9.6-0.9,19.7-1.2,30.1-1.1
			c85.7,0.9,220.7,37.5,342.7,137.3c90.5,74,203.3,208,226.8,426C2561.7,1561.6,2394.5,1792.6,2306.2,1884.8z"/>
		<path class="st2" d="M1237.4,1540.4L1237.4,1540.4c0.1,0.1,0.3,0.3,0.4,0.4C1237.6,1540.6,1237.5,1540.5,1237.4,1540.4
			L1237.4,1540.4z"/>
		<path class="st2" d="M1250.4,1553c-4.2-4.1-8.5-8.2-12.6-12.2C1241.9,1544.8,1246.1,1548.9,1250.4,1553z"/>
		<path class="st3" d="M2153.5,917.5c-18.7,25.6,18.1,26,18.1,26s18.5-10.8,4-25.7C2161,902.9,2172.2,892,2153.5,917.5z"/>
		<path class="st3" d="M1868.7,704.6c-25.8,7.1-7.7,33.1-7.7,33.1s0,0,22,7.6C1905,752.9,1894.5,697.5,1868.7,704.6z"/>
		<path class="st3" d="M830.8,834.1c26.7-2.3,13.5-31.1,13.5-31.1s0,0-20.3-11.4C803.7,780.1,804.1,836.4,830.8,834.1z"/>
		<path class="st3" d="M1993.1,664.6c-18.4-0.2-22.3,18.2-22.3,18.2s10.9,11.2,22,11.3C2003.8,694.1,2011.5,664.8,1993.1,664.6z"/>
		<path class="st3" d="M2021.5,760.6c-22.2,7.1-22.4,32.9-22.4,32.9s18.2,18.6,29.4,0.3C2039.7,775.5,2043.7,753.5,2021.5,760.6z"/>
		<path class="st3" d="M1145.8,712.8c7.3-22.1-13.3-37.5-13.3-37.5s-25.8,3.7-17.6,23.6C1123,718.8,1138.5,734.9,1145.8,712.8z"/>
		<path class="st3" d="M485.5,1333.7c-5.3,4.6-9.9,12-2.7,21.8c12.7,17.3,31.7,29.2,33.4,6c0.9-11.6-4.6-19.9-10.4-25.3
			C500.1,1330.9,489.6,1330.2,485.5,1333.7z"/>
		<path class="st3" d="M1563.2,1038.2c22.2-14.5-7-36.9-21.7-37.1c-14.7-0.2-7.6,25.7-7.6,25.7S1540.9,1052.7,1563.2,1038.2z"/>
		<path class="st3" d="M2139,787.6c-18.4,3.5-0.2,22.1-0.2,22.1C2175.6,810.1,2157.5,784.2,2139,787.6z"/>
		<path class="st3" d="M1447.9,904c5.1-2.2,10.6-5.9,12.5-11.4c3.8-11-7.1-22.2-21.8-22.3c-8-0.1-7.4,10.9-5.2,20.9
			C1435.3,899.5,1442.9,906.2,1447.9,904z"/>
		<path class="st3" d="M1795.3,825.9c-36,11.4-19.1,36.8-19.1,36.8c6.5,6.7,34.7-15.4,34.7-15.4S1831.3,814.5,1795.3,825.9z"/>
		<path class="st3" d="M706.7,1786.3c7.9-3.7-3-35.2-3-35.2s-22.7-27.9-23.6,7.2C679.2,1793.4,706.7,1786.3,706.7,1786.3z"/>
		<path class="st3" d="M2219.7,1654c-22.2,7.1-0.3,29.5-0.3,29.5s10.9,14.8,22.1-3.4C2252.7,1661.8,2241.9,1646.9,2219.7,1654z"/>
		<path class="st3" d="M2296.8,833.5c-18.6,14.5,3.3,36.9,3.3,36.9l14.8-7.2C2314.9,863.2,2315.4,819,2296.8,833.5z"/>
		<path class="st3" d="M2332.1,978.7c-17.2-2.6-5.1,19.6-5.1,19.6C2348.8,1018.2,2349.2,981.4,2332.1,978.7z"/>
		<path class="st3" d="M408.2,1444.3c4.7,16.7,19.9-3.5,19.9-3.5C437.1,1412.6,403.5,1427.6,408.2,1444.3z"/>
		<path class="st3" d="M1254.8,1350.8c-13.9-3.6-14.5,14.1-6.2,25.7c4.5,6.2,8.8,1,11.9-5.6
			C1263.6,1364.4,1257.8,1351.6,1254.8,1350.8z"/>
		<path class="st3" d="M1407.9,1585.9c4.7,16.7,19.9-3.5,19.9-3.5C1427.5,1568.7,1403.2,1569.2,1407.9,1585.9z"/>
		<path class="st3" d="M1666.7,1786.6c-17.2-2.6-5.1,19.6-5.1,19.6C1683.5,1826.1,1683.9,1789.3,1666.7,1786.6z"/>
		<path class="st3" d="M2344.6,1272.2c-8.5-4.9-17.6,2.7-17.6,2.7l-5,4c0,0-0.1,12.3,7.2,17.3c7.3,5,14.7,2.6,22.2-7.1
			C2355.7,1283.4,2350.7,1275.8,2344.6,1272.2z"/>
		<path class="st3" d="M1051.5,1890.8c-10.3,1.4-14.8,9.8-14.8,9.8s-0.1,10,7.2,14c7.3,4.1,14.7,2.2,22.2-5.7
			C1073.4,1901,1051.5,1890.8,1051.5,1890.8z"/>
		<path class="st3" d="M553.1,1556.5c-4.1,2.3-7.2,17.2,0.1,22.2c7.3,5,22.5,5.1,22.2-7.1C574.7,1548.2,561.6,1551.7,553.1,1556.5z"
			/>
		<path class="st3" d="M2476,1236l-12.4,12.1c9.6,17.3,17,17.4,24.5,7.6C2495.5,1246,2476,1236,2476,1236z"/>
		<path class="st3" d="M340,1295.5c-16.1,3.6-12.4,12.1-12.4,12.1c9.6,17.3,17,17.4,24.5,7.6C359.5,1305.5,340,1295.5,340,1295.5z"
			/>
		<path class="st3" d="M1289.9,1230.1c-14-11-12.4,12.1-12.4,12.1c9.6,17.3,17,17.4,24.5,7.6
			C1309.4,1240.1,1289.9,1230.1,1289.9,1230.1z"/>
		<path class="st3" d="M1290.9,2006.3c2.6,12,22.9,3.6,22.9,3.6l-1.2-17.3C1293.2,1988.8,1288.3,1994.3,1290.9,2006.3z"/>
		<path class="st3" d="M2400.7,991.7c-12.3,2.3-2.8,29.4-2.8,29.4C2419.8,1041,2413,989.4,2400.7,991.7z"/>
		<path class="st3" d="M410.4,1181.6c12-3.6-0.3-29.6-0.3-29.6C386.3,1134.5,398.4,1185.2,410.4,1181.6z"/>
		<path class="st3" d="M1645.8,884.4c12-3.6-0.3-29.6-0.3-29.6C1621.7,837.4,1633.8,888,1645.8,884.4z"/>
		<path class="st3" d="M1521.3,1164.7c14.2,1.6,12-8.6,7.7-17.4c-3.1-6.4-13.6-12.1-19-10.3c-4.9,1.6-9.2,4.6-8.1,10.4
			C1504.2,1159.6,1521.3,1164.7,1521.3,1164.7z"/>
		<path class="st3" d="M1244.5,886.9l4.7,17.2c0,0,9.2,6.7,24.6-9.6c9.9-10.4-2.2-19.7-14.5-19.8
			C1247.1,874.6,1244.5,886.9,1244.5,886.9z"/>
		<path class="st3" d="M2401.1,1178.3c0.1-7.4,12.6-26.9-4.6-24.6c-17.2,2.3-7.6,22-7.6,22C2393.7,1183.1,2401,1185.6,2401.1,1178.3
			z"/>
		<path class="st3" d="M484.6,1036.6c1.2-20.2-23.5-13.6-23.5-13.6c-9.6,3.9-14.1,11.7-5.7,13.4
			C463.8,1038.2,483.4,1056.8,484.6,1036.6z"/>
		<path class="st3" d="M592.1,848.2c17.3-0.9,9.3-21.3,9.3-21.3c-4.2-7.8-11.3-10.9-12-3.5C588.7,830.7,574.7,849.1,592.1,848.2z"/>
		<path class="st3" d="M2410.6,1375c29.3,11.4,37.1-25.4,18.7-29.3C2410.9,1341.9,2399.7,1370.8,2410.6,1375z"/>
		<path class="st3" d="M405.9,1575.2c-8.9,30.2,28.3,34.9,30.7,16.2C438.9,1572.8,409.2,1564,405.9,1575.2z"/>
		<path class="st3" d="M2413.1,1645.1c-14.7-0.2-14.9,18.2-14.9,18.2l22,3.9C2420.2,1667.3,2427.8,1645.3,2413.1,1645.1z"/>
		<path class="st3" d="M2181.1,1760.2c1.8-15.1-11.3-18.4-13.8-11.2c-2.5,7.2-0.2,21.7-0.2,21.7s14.4,7.4,14.5,0.2
			C2181.6,1768.5,2180.5,1764.5,2181.1,1760.2z"/>
		<path class="st3" d="M685.8,743.2c4.6-1.6,10.8-4,15.9-6c5.3-2.1,10.7-7.3,11.3-11.3c0.9-5.4,0.6-11.6-5.5-11.5
			c-5.3,0.1-12.4,2.6-18.1,5c-5.8,2.5-10.8,9.1-10.6,13.6C679.1,738.8,680.5,745.1,685.8,743.2z"/>
		<path class="st3" d="M1157.7,2023.9c0,0-15.7,12.2-7.7,16c4.5,2.1,14.3,5.8,22.2,8.7c6.2,2.3,12.2,1.8,12.7-1.1
			c0.6-3.6,0.5-8.5-3.2-12.1C1175,2028.9,1157.7,2023.9,1157.7,2023.9z"/>
		<path class="st3" d="M1249.3,751.8c10.1-1.3,7.4-9.5-2.1-16.8c-9.5-7.4-23.6,2.9-23.6,2.9C1221.5,748.4,1239.2,753.1,1249.3,751.8
			z"/>
		<path class="st3" d="M1551.4,2019c-10.2,1.1-7.5,9.4,1.9,16.9c9.4,7.5,23.7-2.6,23.7-2.6C1579.2,2022.8,1561.6,2017.9,1551.4,2019
			z"/>
		<path class="st3" d="M2139.1,2071.6c-5.1,4.2-27.4,14.8-5.8,19.4c21.6,4.6,27.4-14.7,27.4-14.7
			C2149.8,2061.4,2144.2,2067.4,2139.1,2071.6z"/>
		<path class="st3" d="M1778.5,1861.1c-9.4-0.1-11.9,12.8-12.5,22.5c-0.3,5.9,3.7,11.8,8.5,12.1c5.9,0.4,13.7-0.7,18.8-7.3
			C1802.5,1876.5,1793.6,1861.3,1778.5,1861.1z"/>
		<path class="st3" d="M859.5,1982.1c-9.5,1.8-8.3,15.7-6.2,25.6c1.2,5.8,7.3,10.3,12.2,8.8c4.9-1.4,10.1-4.4,11.6-10.3
			C880.3,1994.3,874.5,1979.3,859.5,1982.1z"/>
		<path class="st3" d="M1308.3,1486.1c-15,2.8-3.4,35.9-3.4,35.9s17.9,0.2,21.1-11.7C1329.1,1498.3,1323.3,1483.2,1308.3,1486.1z"/>
		<path class="st3" d="M602.8,1693.7c-15,2.8-3.3,29.9-3.3,29.9C629.2,1744.8,617.8,1690.8,602.8,1693.7z"/>
		<path class="st3" d="M2090.5,1984.4c-12.8-6.6-35.4-0.4-29.1,12.6c0,0,21,19.8,28.9,13.2C2090.2,2010.2,2103.3,1991,2090.5,1984.4
			z"/>
		<path class="st3" d="M1723.7,697.3c-7.6-0.1-17.9,17.5-17.9,17.5c-0.2,22.8,15.1,5.2,27.8,0.3
			C1746.3,710.2,1731.3,697.3,1723.7,697.3z"/>
		<path class="st3" d="M1387.9,1356c-29-2.3-8,18.8-2.8,35.5c5.2,16.6,22.8-1.5,23.6-11.1C1409.4,1370.7,1387.9,1356,1387.9,1356z"
			/>
		<path class="st3" d="M2434.4,1494.9c-11.1,1.7-26,20-26,20s0.2,12.6,20.2,7.6c8.9-2.2,14.8-7.2,22.3-16.3
			C2458.3,1497,2445.5,1493.2,2434.4,1494.9z"/>
		<path class="st3" d="M2291.7,1736.7c-19.8-3.5-10.1,16.4-10.1,16.4s0,0,19.7,6.8C2321.1,1766.7,2311.5,1740.2,2291.7,1736.7z"/>
		<path class="st3" d="M545.4,1788c-19-3.4-9.7,15.8-9.7,15.8s0,0,19,6.5C573.6,1816.8,564.4,1791.4,545.4,1788z"/>
		<path class="st3" d="M671.7,1945.1c-8.7-1.6-10,2.8-9.4,6.9c0.4,3,1.7,5.7,8.2,7.9c2.1,0.7,4.9,1.7,8.7,3
			C694.2,1968.1,686.8,1947.8,671.7,1945.1z"/>
		<path class="st3" d="M1675.1,1681c-13.8-4.4-28.2,3.9-23.8,19.4c4.4,15.5,33.7,15.5,33.7,15.5s18.8,7.2,19.4-5.5
			C1705,1697.5,1688.9,1685.4,1675.1,1681z"/>
		<path class="st3" d="M2335.4,1569.8c-7.4-0.1-9.4,22-9.4,22s-0.1,7.4,7.3,7.4c7.4,0.1,7.5-11,7.5-16.5
			C2340.8,1577.2,2342.8,1569.8,2335.4,1569.8z"/>
		<path class="st3" d="M1277.5,1700.6c7.4,0.1,4.8-11.3,7.5-16.5c2.6-4.9,2-12.9-5.4-12.9c-7.4-0.1-9.4,22-9.4,22
			S1270.1,1700.6,1277.5,1700.6z"/>
		<path class="st3" d="M2297.9,1460.4c-9.2,1.7-9.4,22-9.4,22s16.5,7.5,23.9-1.6C2319.8,1471.7,2307.1,1458.7,2297.9,1460.4z"/>
		<path class="st3" d="M544.3,1179c7.5-9.1-5.3-22.1-14.5-20.4c-9.2,1.7-9.4,22-9.4,22S536.8,1188.2,544.3,1179z"/>
		<path class="st3" d="M2053.9,1856.2c-11.5-0.1-11.7,13.7-11.7,13.7s6.8,7,16.1,4.8C2067.6,1872.4,2065.4,1856.3,2053.9,1856.2z"/>
		<path class="st3" d="M1906.8,1817.8c-12.9-0.1-9.9,19.2-9.9,19.2C1925.6,1863.1,1919.7,1817.9,1906.8,1817.8z"/>
		<path class="st3" d="M2182,1942.1c-7.2-0.1-18.1,7.7-10.6,17c13.7,17.1,22.5,2.4,22.5,2.4S2189.2,1942.2,2182,1942.1z"/>
		<path class="st3" d="M1952.8,1940.7c-25.8,7.1-7.7,33.1-7.7,33.1s0,0,22,7.6C1989.1,1989,1978.6,1933.7,1952.8,1940.7z"/>
		<path class="st3" d="M584.4,989.3l-4.8-12.3c0,0,14.9-12.1-2.3-12.3c-17.2-0.2-5.2,29.4-5.2,29.4S578.3,1001.2,584.4,989.3z"/>
		<path class="st3" d="M1082.4,781.1c7.4-2.4,2.7-19.6,2.7-19.6s-9.9,4.8-19.7,7.2c-9.8,2.3,2.3,14.8,2.3,14.8
			S1075.1,783.5,1082.4,781.1z"/>
		<path class="st3" d="M1533.6,1616.8c0,0-27.3-14.9-28.4-1.3c-3.9,46.8,34.9,26,34.9,26s23.9,2.1,9.6-21.4
			C1544.4,1611.5,1533.6,1616.8,1533.6,1616.8z"/>
		<path class="st3" d="M979.9,1956.7l-3.4,9.9c0,0-1.2,10.5,1.1,12.5c3.8,3.1,9,6.4,10.3,2.6c2.1-6.2,2.2-14.5,0.2-20.7
			C986.1,1954.7,979.9,1956.7,979.9,1956.7z"/>
		<path class="st3" d="M1060.6,2069.6c-7.3-6.2-19.7,9.6-19.7,9.6s4.8,13.6,7.3,8.7c2.5-4.9,8.6-1.1,12.3-2.3
			C1064.1,2084.4,1067.9,2075.8,1060.6,2069.6z"/>
		<path class="st3" d="M904.4,1874c-21.2-0.2-17.8,17.4-17.8,17.4l1.7,11c0,0,9,10.3,16.3,8c6-1.8,12-5.3,13.7-11.7
			C921.9,1884.8,925.5,1874.2,904.4,1874z"/>
		<path class="st3" d="M746.1,1997.9c-13,12.7-16.4,28.8-16.4,28.8s12.8,9.8,22.5,6.7c9.7-3.1,9.8-16,13.2-25.6
			C768.6,1998.2,759.1,1985.2,746.1,1997.9z"/>
		<path class="st3" d="M1016.7,1816.6c0,0-7.6-9.3-12.2-7.8c-4.6,1.5-9.4,18.3-9.4,18.3s4.8,17.1,21.1,0.2
			C1016.1,1827.4,1020.7,1819.7,1016.7,1816.6z"/>
		<path class="st3" d="M1827.2,1727.7c-4.3,2.3-9.4,18.3-9.4,18.3s3.5,12.6,16.9,7.1c2.2-0.9,8.2-12.1,6.7-18.5
			C1839.9,1728.1,1836.2,1722.8,1827.2,1727.7z"/>
		<path class="st3" d="M1162.1,1764.4l10.6,1.8c0,0,24.3,0,15.9-11.6c-5.1-7-25.9-15.3-36.2-10.5
			C1142.2,1749,1145.9,1760.8,1162.1,1764.4z"/>
		<path class="st3" d="M1180.8,1653.3c2-1.8,1.2-9-2-14c-2.6-4.1-6.1-7.9-9.8-8c-8.3-0.1-6.4,16.5-6.4,16.5
			C1169.5,1660.3,1176.8,1656.9,1180.8,1653.3z"/>
		<path class="st3" d="M928.2,736.8c9.5,0.1,9.6-7.5,7.3-15.1c-2.3-7.6-11.6-16.5-19-17c-5.9-0.4-13.6-0.3-22.1,1.3
			c-19,3.6-4,18.9-4,18.9S909.2,736.6,928.2,736.8z"/>
		<path class="st3" d="M1781.5,2084.2c3.9,1.7,8.1,2.5,9.7-1.1c3.2-7.1,17.1,3.3,17.5-10.8c0.5-14-24.6-2.3-24.6-2.3
			S1777.6,2082.5,1781.5,2084.2z"/>
		<path class="st3" d="M1423.4,2045.4c-12.7,2.4,2.4,12.7,2.4,12.7c2.4,12.7,15.2-4.9,15.2-4.9S1436.1,2043,1423.4,2045.4z"/>
		<path class="st3" d="M1384.2,1080.4c12.7,3.3,12.5-2.9,14.9-12.2c5.8-22-25.4-37.6-36.6-21.1
			C1351.2,1063.5,1384.2,1080.4,1384.2,1080.4z"/>
		<path class="st3" d="M1539.3,1285.2c-17.6-0.2-7.3,21.1-7.3,21.1s6.9,14.2,17.6,0.2C1560.4,1292.5,1557,1285.4,1539.3,1285.2z"/>
		<path class="st3" d="M498.8,1664.7c-17.6-0.2-7.3,21.1-7.3,21.1s6.9,14.2,17.6,0.2C519.9,1672,516.5,1664.9,498.8,1664.7z"/>
		<path class="st3" d="M1533,2117.8c-11.5,3.7-17.1,12.4-19.8,19.9c-2.5,7,2.2,17.9,8.4,20.2c5.9,2.2,13,2,18.5-6.9
			C1551.3,2132.7,1555.2,2110.7,1533,2117.8z"/>
		<path class="st3" d="M1691.1,2141.9c6.2-9-3.6-15.8-11.3-19.5c-4.2-2-16.8,0-18.8,2.1C1650.1,2135.6,1683,2153.6,1691.1,2141.9z"
			/>
		<path class="st3" d="M1349,2110.9c-3.2,2.5-6.5,6.2-8.1,11.6c-3.7,12.7,17.3,21.2,25.4,7.4c4-6.9,1.9-12.8-1.2-17
			C1362,2108.8,1353.4,2107.5,1349,2110.9z"/>
		<path class="st3" d="M1158,2102.9c-16.7-0.2-13.7,36.6-13.7,36.6l30.1-3C1174.3,2136.4,1174.7,2103.1,1158,2102.9z"/>
	</g>
</g>
</svg>
