<?xml version="1.0" encoding="utf-8"?>
<!-- Generator: Adobe Illustrator 25.2.0, SVG Export Plug-In . SVG Version: 6.00 Build 0)  -->
<svg version="1.1" id="Calque_1" xmlns="http://www.w3.org/2000/svg" xmlns:xlink="http://www.w3.org/1999/xlink" x="0px" y="0px"
	 viewBox="0 0 500 500" style="enable-background:new 0 0 500 500;" xml:space="preserve">
<style type="text/css">
	.st0{fill:#F4F3F4;}
	.st1{fill:#D8D8D4;}
	.st2{fill:#A2A19F;}
	.st3{fill:#F9C89F;}
	.st4{fill:#ECA87F;}
	.st5{fill:#88412D;}
	.st6{fill:#E41B16;}
	.st7{fill:#B91818;}
	.st8{fill:#571110;}
	.st9{fill:#FFE119;}
	.st10{fill:#EBA800;}
	.st11{fill:#B86317;}
	.st12{fill:#6C1510;}
	.st13{fill:#3D1011;}
	.st14{fill:#EE7677;}
	.st15{fill:#E65858;}
	.st16{fill:#C02129;}
	.st17{fill:#7BB1E1;}
	.st18{fill:#3D78BD;}
	.st19{fill:#2A59A5;}
	.st20{fill:#1F335E;}
	.st21{fill:#15233B;}
	.st22{fill:#384E65;}
	.st23{fill:#EA4E4F;}
	.st24{fill:#D1D1D1;}
	.st25{fill:#7C7C7D;}
	.st26{fill:#DDA376;}
	.st27{opacity:0.5;fill:#E0F1F7;}
	.st28{fill:#FFD625;}
	.st29{fill:#F6A02C;}
	.st30{opacity:0.5;fill:#F9AE0D;}
	.st31{fill:#F6A019;}
	.st32{fill:#7A6B70;}
	.st33{fill:#FFFFFF;}
	.st34{fill:#9F9F9F;}
	.st35{fill:#BABABA;}
	.st36{fill:#F18513;}
	.st37{fill:#BB6A15;}
	.st38{fill:#FAB61D;}
	.st39{fill:#D09A01;}
	.st40{opacity:0.4;fill:#FFFFFF;}
	.st41{fill:#FFF0B1;}
	.st42{opacity:0.8;fill:#FFD65E;}
	.st43{fill:#FBDEC5;}
</style>
<g>
	<g>
		<path class="st0" d="M325.8,193.8c-1.5-3.7-3.3-12.6-3.3-12.6l-6.3-6c0,0-5.5,16.8-5.2,26.1c0.3,9.3,2,29.6,2,29.6
			s8.6,2.1,13.5-1.5c4.8-3.5,3.7-10.4,2-14.4c3.1,2.1,4.6,0,4.6,0s-2.7-4.4-3.7-9.7C328.3,200.1,327.3,197.5,325.8,193.8z"/>
		<path class="st1" d="M329.3,205.3c-1-5.2-2-7.8-3.5-11.5c-1.5-3.7-3.3-12.6-3.3-12.6l-3.3-3.2c1.6,10.2,3.3,20.3,7.6,30
			c-1.7-1.8-3.3-3-5-4.1c2.2,4.1,3.3,8.3,1.7,12.4c-1.9,4.6-6.8,5.7-11.3,4.7c0.4,5.6,0.8,9.9,0.8,9.9s8.6,2.1,13.5-1.5
			c4.8-3.5,3.7-10.4,2-14.4c3.1,2.1,4.6,0,4.6,0S330.4,210.5,329.3,205.3z"/>
		<path class="st2" d="M329.7,205.2c-1-5.2-2.1-7.9-3.5-11.5l0-0.1c-1.5-3.7-3.2-12.4-3.2-12.5l0-0.1l-6.9-6.6l-0.2,0.6
			c-0.2,0.7-5.5,17-5.2,26.3c0.3,9.2,1.9,29.4,2,29.6l0,0.3l0.3,0.1c0.1,0,2.6,0.6,5.7,0.6c3.5,0,6.2-0.7,8.1-2.2
			c4.4-3.2,4.2-9.2,2.6-13.8c0.6,0.3,1.2,0.4,1.7,0.4c1.5,0,2.3-1,2.3-1.1l0.2-0.2l-0.2-0.3C333.4,214.7,330.7,210.3,329.7,205.2z
			 M331,215.4c-0.7,0-1.5-0.3-2.3-0.9l-1.2-0.8l0.6,1.4c1.9,4.4,2.5,10.6-1.9,13.8c-1.8,1.3-4.4,2-7.7,2c-2.4,0-4.4-0.4-5.2-0.5
			c-0.2-2.7-1.7-20.7-1.9-29.2c-0.2-8.1,4-22.2,5-25.3l5.7,5.5c0.2,1.2,1.8,9,3.2,12.6l0,0.1c1.5,3.7,2.5,6.2,3.5,11.3
			c0.9,4.5,3,8.4,3.6,9.5C332.3,215.1,331.8,215.4,331,215.4z"/>
	</g>
	<g>
		<path class="st3" d="M330.3,481.5c-2.9-4.7-5.6-16.1-5.6-20.6c2.6-8.4,9.2-28,4-39.9c-11.6,5.9-24.3,9.3-36.9,8.1
			c0,0-1.7,12.9,3.3,21.9c5,9,9.6,13.7,10.2,19.1c0.3,2.5-5.4,11.8-3.8,17.6c1.5,4.7,15.3,5.6,22.3,4.7c7-0.9,11.7-4,11.7-4
			S333.2,486.2,330.3,481.5z"/>
		<path class="st4" d="M299.2,435.4c0,0,2.7,3.8,7.7,3.7c5-0.1,7.7-2.4,9.3-4.4C312.2,435.3,307.2,438.5,299.2,435.4z"/>
		<path class="st4" d="M330.3,481.5c-2.9-4.7-5.6-16.1-5.6-20.6c2.6-8.4,9.2-28,4-39.9c-3,1.5-6,2.8-9.1,4
			c7.1,14.3,0.9,30.8-1.9,45.1c8.1,0.3,10.2,18.9,8.4,21.9c5.7-1.2,9.4-3.6,9.4-3.6S333.2,486.2,330.3,481.5z"/>
		<path class="st5" d="M330.7,481.3c-2.9-4.7-5.5-15.9-5.5-20.3l0.3-1c2.8-8.9,8.7-27.6,3.7-39.1l-0.2-0.4l-0.4,0.2
			c-10.8,5.5-21.5,8.3-31.7,8.3c-1.7,0-3.4-0.1-5-0.2l-0.4,0l-0.1,0.4c-0.1,0.5-1.7,13.1,3.4,22.2c1.8,3.1,3.4,5.8,4.9,8.1
			c2.8,4.3,4.8,7.5,5.2,10.8c0.1,0.8-0.6,2.7-1.4,4.7c-1.5,3.9-3.5,9.2-2.4,13c1.3,3.9,10.1,5.3,17.3,5.3c2,0,3.9-0.1,5.5-0.3
			c7-0.9,11.7-3.9,11.9-4.1l0.5-0.3l-0.4-0.4C335.9,488,333.5,485.8,330.7,481.3z M323.8,491.9c-1.6,0.2-3.4,0.3-5.4,0.3
			c-7.4,0-15.4-1.5-16.5-4.7c-1-3.5,0.9-8.7,2.3-12.4c0.9-2.3,1.6-4.1,1.4-5.1c-0.4-3.6-2.4-6.8-5.3-11.2c-1.5-2.3-3.2-4.9-4.9-8
			c-4.4-7.9-3.5-18.9-3.3-21.2c1.5,0.1,3.1,0.2,4.7,0.2c10.2,0,20.8-2.7,31.7-8.2c4.6,11.3-1.1,29.3-3.9,38.1l-0.3,1.1l0,0.1
			c0,4.6,2.6,16,5.6,20.9c2.2,3.6,4.1,5.7,4.9,6.5C333.5,489,329.4,491.2,323.8,491.9z"/>
	</g>
	<g>
		<path class="st5" d="M299.8,436.1c0,0,2.3,3.4,7.1,3.4c5.1,0,8.1-3.5,8.1-3.5C305.8,441.9,300,436.4,299.8,436.1z"/>
	</g>
	<g>
		<path class="st5" d="M319.6,468.4c0,0,3.4-2.2,6.2-9.5l-0.8-0.3C322.3,465.6,319.6,468.3,319.6,468.4z"/>
	</g>
	<g>
		<path class="st3" d="M307.6,483.9c-4.1-1.1-8.1,0.8-8.9,4.2c-0.8,3.4,1.9,7.1,6,8.2c4.1,1.1,8.1-0.8,8.9-4.2
			C314.5,488.6,311.8,485,307.6,483.9z"/>
		<path class="st4" d="M298.7,488c0,0,0,0.1,0,0.1c-0.8,3.4,1.9,7.1,6,8.2c4.1,1.1,8.1-0.8,8.9-4.2c0.1-0.4,0.1-0.7,0.1-1.1
			C309.2,495.5,302.6,494.4,298.7,488z"/>
		<path class="st5" d="M307.7,483.5c-0.8-0.2-1.6-0.3-2.4-0.3c-3.5,0-6.3,2-7,4.9c-0.4,1.8,0,3.7,1.2,5.4c1.2,1.6,3,2.8,5.1,3.4
			c0.8,0.2,1.6,0.3,2.4,0.3c3.5,0,6.3-2,7-4.9c0.4-1.8,0-3.7-1.2-5.4C311.6,485.2,309.8,484,307.7,483.5z M313.3,492
			c-0.6,2.5-3.1,4.2-6.2,4.2c-0.7,0-1.5-0.1-2.2-0.3c-1.9-0.5-3.6-1.6-4.6-3.1c-1.1-1.4-1.4-3.1-1.1-4.6c0.6-2.5,3.1-4.2,6.2-4.2
			c0.7,0,1.5,0.1,2.2,0.3c1.9,0.5,3.6,1.6,4.6,3.1C313.2,488.8,313.6,490.4,313.3,492z"/>
	</g>
	<g>
		<path class="st3" d="M334.2,486.1c-1.1,0.3-1.7,1.9-1.3,3.5c0.4,1.6,1.6,2.7,2.8,2.4c1.1-0.3,1.7-1.9,1.3-3.5
			C336.6,486.8,335.3,485.7,334.2,486.1z"/>
		<path class="st4" d="M337,488.4c-0.1-0.4-0.2-0.7-0.4-1c-0.3,2.3-2,3-3.5,2.4c0.5,1.5,1.6,2.5,2.7,2.2
			C336.8,491.6,337.4,490.1,337,488.4z"/>
		<path class="st5" d="M334.6,485.6c-0.2,0-0.3,0-0.5,0.1c-1.3,0.4-2,2.2-1.6,4.1c0.4,1.6,1.6,2.8,2.8,2.8c0.2,0,0.3,0,0.5-0.1
			c1.3-0.4,2-2.2,1.6-4.1C337,486.7,335.8,485.6,334.6,485.6z M335.6,491.5c-0.9,0.2-1.9-0.7-2.2-2.1c-0.3-1.4,0.1-2.7,1-3
			c0.1,0,0.2,0,0.3,0c0.8,0,1.6,0.9,2,2.1C336.9,489.9,336.5,491.3,335.6,491.5z"/>
	</g>
	<g>
		<path class="st3" d="M330.6,486.7c-1.6,0-2.9,1.6-2.9,3.7c0,2,1.3,3.7,2.9,3.7c1.6,0,2.9-1.6,2.9-3.7
			C333.5,488.3,332.2,486.7,330.6,486.7z"/>
		<path class="st4" d="M327.8,491.2c0.3,1.6,1.4,2.8,2.8,2.8c1.6,0,2.9-1.6,2.9-3.7c0-0.5-0.1-0.9-0.2-1.4
			C332.4,491.5,330.6,492.4,327.8,491.2z"/>
		<path class="st5" d="M330.6,486.2c-1.8,0-3.3,1.8-3.3,4.1s1.5,4.1,3.3,4.1c1.8,0,3.3-1.8,3.3-4.1S332.5,486.2,330.6,486.2z
			 M330.6,493.6c-1.4,0-2.5-1.4-2.5-3.2c0-1.8,1.1-3.2,2.5-3.2c1.4,0,2.5,1.4,2.5,3.2C333.1,492.1,332,493.6,330.6,493.6z"/>
	</g>
	<g>
		<path class="st3" d="M324.9,488.3c-2,0-3.6,1.8-3.6,4c0,2.2,1.6,4,3.6,4c2,0,3.6-1.8,3.6-4C328.5,490.1,326.9,488.3,324.9,488.3z"
			/>
		<path class="st4" d="M321.4,492.9c0.2,2,1.7,3.5,3.5,3.5c2,0,3.6-1.8,3.6-4c0-0.3,0-0.7-0.1-1
			C326.7,493.5,323.8,494.4,321.4,492.9z"/>
		<path class="st5" d="M324.9,487.8c-2.2,0-4,2-4,4.5c0,2.5,1.8,4.5,4,4.5s4-2,4-4.5C328.9,489.8,327.1,487.8,324.9,487.8z
			 M324.9,495.9c-1.7,0-3.1-1.6-3.1-3.6c0-2,1.4-3.6,3.1-3.6c1.7,0,3.1,1.6,3.1,3.6C328.1,494.3,326.6,495.9,324.9,495.9z"/>
	</g>
	<g>
		<path class="st3" d="M317.7,488.6c-2.3,0-4.1,1.9-4.1,4.2c0,2.3,1.8,4.2,4.1,4.2s4.1-1.9,4.1-4.2
			C321.9,490.5,320,488.6,317.7,488.6z"/>
		<path class="st4" d="M313.6,492.3c0,0.2,0,0.4,0,0.5c0,2.3,1.8,4.2,4.1,4.2s4.1-1.9,4.1-4.2c0-0.2,0-0.3,0-0.5
			C319.6,494.6,315.9,495.1,313.6,492.3z"/>
		<path class="st5" d="M317.7,488.2c-2.5,0-4.5,2.1-4.5,4.6c0,2.5,2,4.6,4.5,4.6c2.5,0,4.5-2.1,4.5-4.6
			C322.3,490.3,320.2,488.2,317.7,488.2z M317.7,496.5c-2,0-3.7-1.7-3.7-3.7c0-2.1,1.7-3.7,3.7-3.7c2,0,3.7,1.7,3.7,3.7
			C321.4,494.9,319.8,496.5,317.7,496.5z"/>
	</g>
	<g>
		<g>
			<path class="st3" d="M256.6,430.4c-11.1-0.7-37.7-9.4-37.7-9.4s0.1,22.7,9.4,42.6c-5.4,1.4-12.6,7-18.1,11.1
				c-4,2.6-7,3.4-9.5,3.1c-2.5-0.4-9.5-2-10.7-0.6c-1.2,1.4,0,3.2,0,3.2s-3.4,0.9-2.7,4.8c0.2,1.2,1.7,2.3,1.7,2.3s-1.1,2.4,1,5.3
				c2.1,3,4.7,3.5,7.4,3.3s5.9-1.1,5.9-1.1s1.7,4.4,9.2,4.1c7.5-0.3,9.3-3.9,13.3-6.5c4-2.6,7.5-1.1,12.7-0.3
				c5.2,0.8,9.7,1.1,13.2-0.4c3.5-1.5,5.4-6.4,4.6-11.3c-0.7-4.9-3.7-6.2-4.9-10.1c-1.2-3.9-0.4-10,3.3-17.8
				C258.6,444.6,258.8,436,256.6,430.4z"/>
			<path class="st4" d="M237,484.4c0,0,7.1,2.7,9-1.4c0.9-2.4-0.7-5-1.8-6.7C244.6,480.8,245.8,485,237,484.4z"/>
			<path class="st4" d="M196.3,479.9c-1.9-1.6-4.9-1-6.7-2c-0.4,1.2,0.4,2.4,0.4,2.4s-0.1,0-0.2,0.1l0.1,0.1
				C192,480.4,194.2,479.3,196.3,479.9z"/>
			<path class="st4" d="M197.4,484c-2.9-2.4-7.1-1.2-9.8-1.8c-0.3,0.7-0.5,1.6-0.3,2.8c0.1,1,1.2,1.8,1.6,2.2
				C190.4,484,194.4,483.5,197.4,484z"/>
			<path class="st4" d="M251.5,470.3c-1.2-3.9-0.4-10,3.3-17.8c3.8-7.8,3.9-16.4,1.7-22c-3-0.2-7.1-1-11.6-2
				c1.1,10.1,3.2,16.3,0.8,31.6c-0.5,3.1-0.8,8.8,0.8,11.8c3.9,4.7,5.2,8.3,4.1,13c-0.8,3.5-6.7,4.6-8.9,4.2
				c-9.4-1.5-13-3.8-22.5,2.1c-4.1,2.6-12.6,3.1-15.1,0.1c-3.2,1.9-10,3.6-14.4,1.2c0.1,0.1,0.1,0.2,0.2,0.3c2.1,3,4.7,3.5,7.4,3.3
				s5.9-1.1,5.9-1.1s1.7,4.4,9.2,4.1c7.5-0.3,9.3-3.9,13.3-6.5c4-2.6,7.5-1.1,12.7-0.3c5.2,0.8,9.7,1.1,13.2-0.4
				c3.5-1.5,5.4-6.4,4.6-11.3C255.7,475.5,252.7,474.2,251.5,470.3z"/>
			<path class="st5" d="M257,430.2l-0.1-0.3l-0.3,0c-10.9-0.7-37.4-9.3-37.6-9.4l-0.5-0.2l0,0.6c0,0.2,0.2,22.6,9.2,42.3
				c-5.1,1.5-11.7,6.5-17,10.5l-0.8,0.6c-3.8,2.4-6.7,3.4-9.2,3c-0.4-0.1-0.9-0.2-1.5-0.3c-2.1-0.4-4.9-0.9-6.9-0.9
				c-1.4,0-2.2,0.2-2.6,0.7c-0.9,1.1-0.7,2.4-0.3,3.2c-1,0.5-3.1,1.8-2.5,5.1c0.2,1.1,1.1,2,1.6,2.4c-0.3,0.8-0.6,2.9,1.1,5.4
				c1.7,2.3,3.8,3.5,6.6,3.5c0.4,0,0.7,0,1.1-0.1c2.2-0.2,4.8-0.8,5.7-1c0.6,1,2.7,4,8.8,4c0.2,0,0.5,0,0.7,0
				c5.7-0.2,8.2-2.4,10.7-4.4c0.9-0.7,1.8-1.5,2.8-2.2c1.5-0.9,3-1.4,4.7-1.4c1.5,0,3,0.3,4.8,0.6c0.9,0.2,1.9,0.4,2.9,0.5
				c3,0.5,5.2,0.7,7.1,0.7h0c2.5,0,4.5-0.4,6.3-1.1c3.6-1.5,5.7-6.5,4.9-11.8c-0.4-2.9-1.6-4.6-2.8-6.2c-0.9-1.2-1.7-2.4-2.2-4
				c-1.3-4.2-0.1-10.4,3.3-17.5C258.7,445.3,259.4,436.5,257,430.2z M251.1,470.4c0.5,1.8,1.4,3,2.3,4.2c1.1,1.6,2.2,3.1,2.6,5.8
				c0.7,4.8-1.2,9.5-4.4,10.9c-1.6,0.7-3.6,1-6,1c-1.9,0-4.1-0.2-7-0.6c-1-0.2-2-0.3-2.9-0.5c-1.8-0.3-3.4-0.6-5-0.6
				c-1.9,0-3.6,0.5-5.2,1.5c-1.1,0.7-2,1.5-2.9,2.2c-2.5,2.1-4.8,4-10.2,4.2c-7.1,0.3-8.8-3.7-8.8-3.8l-0.1-0.3l-0.3,0.1
				c0,0-3.3,0.8-5.9,1.1c-0.4,0-0.7,0.1-1.1,0.1c-2.6,0-4.4-1-6-3.1c-1.9-2.7-1-4.8-0.9-4.9l0.2-0.4l-0.3-0.2
				c-0.4-0.3-1.4-1.1-1.5-2c-0.6-3.4,2.3-4.2,2.4-4.3l0.6-0.2l-0.4-0.5c0,0-1-1.5,0-2.6c0.1-0.1,0.5-0.4,2-0.4c2,0,4.8,0.5,6.8,0.9
				c0.6,0.1,1.1,0.2,1.6,0.3c2.7,0.4,5.7-0.5,9.8-3.1l0.8-0.6c5.4-4.1,12.1-9.2,17.2-10.5l0.5-0.1l-0.2-0.5
				c-8.3-17.8-9.2-38-9.3-41.8c3.9,1.2,26.7,8.5,37,9.2c2.2,6.1,1.5,14.4-1.8,21.4C251,459.5,249.8,466,251.1,470.4z"/>
		</g>
		<g>
			<path class="st5" d="M197.7,483.8c-3.4-0.4-7.4-1-9,3.3l0.8,0.3c1.4-3.7,4.9-3.2,8.2-2.8l0.5,0.1c3.5,0.4,7,0.6,7,0.6
				c0,0-3.5-1-6.9-1.5L197.7,483.8z"/>
		</g>
		<g>
			<path class="st5" d="M189.9,479.9l0.2,0.9c3.6-1,8-0.5,8-0.5C197.9,480.2,193.7,478.8,189.9,479.9z"/>
		</g>
		<g>
			<path class="st5" d="M244.2,476.3c0,0.1,3.2,5,1,7.4c-2.3,2.4-8.2,0.7-8.2,0.7c0.2,0.1,2.7,1.2,5.2,1.2c1.3,0,2.6-0.3,3.6-1.3
				C248.5,481.5,244.2,476.3,244.2,476.3z"/>
		</g>
	</g>
	<g>
		<path class="st6" d="M327.6,342.4c0,0-63.6,51.2-124.4-0.8c0,0-2.4,56-6.1,74.3c6.7,3.5,35.7,18.7,61.7,17.5
			c2.8-9.7,5.2-36.2,5.2-36.2s2.5-0.1,4.6-0.4c0.6,5.1,3.4,23.9,3.4,34.9c10,3,43.2,4.4,69.2-15.1c-2.2-12.4-4.3-23.1-8-43
			C329.4,353.8,327.6,342.4,327.6,342.4z"/>
		<path class="st7" d="M288.3,383.5c-10.3,11.6-37.4,11.2-55.2,5.9c14.8,9,12.1,28.1,5.5,42.1c6.6,1.4,13.5,2.1,20.1,1.8
			c2.8-9.7,5.2-36.2,5.2-36.2s2.5-0.1,4.6-0.4c0,0.1,0,0.2,0,0.2C276.5,394.7,288.3,393.9,288.3,383.5z"/>
		<path class="st7" d="M333.1,373.7c-3.7-19.9-5.6-31.3-5.6-31.3s-8.7,7-22.7,13.2c10.2,9.2,14.5,24.8,16.3,38.7
			c2,11.6,1.3,25-4.7,34.9c8.3-2.6,16.8-6.6,24.6-12.4C338.9,404.2,336.9,393.6,333.1,373.7z"/>
		<path class="st8" d="M336.6,389.9c-0.9-4.7-1.9-10.1-3-16.3c-3.7-19.7-5.6-31.2-5.6-31.3l-0.1-0.7l-0.5,0.4
			c-0.3,0.2-28.3,22.5-64.3,22.5c-21.5,0-41.6-7.8-59.6-23.2l-0.6-0.5l0,0.9c0,0.6-2.5,56.1-6.1,74.2l-0.1,0.3l0.3,0.2
			c21.5,11.4,42.5,17.7,59,17.7c1,0,2,0,2.9-0.1l0.3,0l0.1-0.3c2.6-9,4.9-32.6,5.2-35.9c0.7,0,2.3-0.1,3.8-0.3
			c0.1,1.1,0.3,2.6,0.6,4.5c1,8,2.7,21.3,2.7,29.9v0.3l0.3,0.1c3.7,1.1,9.7,1.8,15.9,1.8c11.6,0,34.1-2.2,53.7-16.9l0.2-0.2
			l-0.1-0.3C340,408,338.6,400.4,336.6,389.9z M287.7,433c-6,0-11.7-0.6-15.4-1.6c0-8.6-1.7-21.8-2.8-29.7c-0.3-2.1-0.5-3.8-0.6-4.9
			l0-0.4l-0.4,0.1c-2,0.2-4.5,0.4-4.5,0.4l-0.4,0l0,0.4c0,0.3-2.4,26.1-5.1,35.8c-0.9,0-1.7,0.1-2.6,0.1c-16.3,0-37-6.2-58.3-17.4
			c3.4-17.2,5.7-66,6-73.2c18,15.2,38,22.9,59.4,22.9c33.5,0,60.1-19.1,64.2-22.2c0.5,2.8,2.3,13.7,5.5,30.6
			c1.2,6.2,2.2,11.5,3,16.3c2,10.4,3.4,18,4.9,26.4C321.3,430.9,299.2,433,287.7,433z"/>
	</g>
	<g>
		<path class="st8" d="M265.6,396.7c-17.5,1.1-33.8-8.1-33.9-8.2c0,0,3.7,3.1,9.9,5.3c5.7,2,13.2,3.9,21.1,3.9c1,0,2,0,3-0.1
			c5.9-0.4,10.5-1.6,13.9-3c6.9-2.8,8.6-7.3,8.6-7.3C288.1,387.4,283,395.5,265.6,396.7z"/>
	</g>
	<g>
		<g>
			<path class="st9" d="M197,415.9c6.7,3.5,35.7,18.7,61.7,17.5c0.5-1.8,1.1-4.3,1.5-7.1c-37.1-4.8-56.5-16.7-61.8-20.4
				C198.1,409.8,197.6,413.2,197,415.9z"/>
			<path class="st10" d="M258.8,433.4c0.5-1.8,1.1-4.3,1.5-7.1c-6.7-0.9-12.9-2-18.4-3.2c-0.9,2.9-2,5.8-3.2,8.5
				C245.3,432.9,252.1,433.7,258.8,433.4z"/>
			<path class="st11" d="M198.8,405.6l-0.6-0.4l-0.1,0.7c-0.5,4.1-1,7.4-1.5,9.9l-0.1,0.3l0.3,0.2c21.5,11.4,42.5,17.7,59,17.7h0
				c1,0,2,0,2.9-0.1l0.3,0l0.1-0.3c0.5-1.7,1-4.1,1.6-7.2l0.1-0.5l-0.4-0.1C223.3,421.1,203.9,409.1,198.8,405.6z M258.5,433
				c-0.9,0-1.7,0.1-2.6,0.1h0c-16.3,0-37-6.2-58.3-17.4c0.5-2.3,0.9-5.3,1.4-8.9c5.8,4,25.2,15.3,60.9,20
				C259.4,429.3,258.9,431.4,258.5,433z"/>
		</g>
		<g>
			<path class="st9" d="M307.5,421.6c-17.8,3.6-30.8,2.8-35.9,2.6c0.2,2.7,0.3,5.3,0.3,7.6c10,3,43.2,4.4,69.2-15.1
				c-0.6-3.1-1.1-6.1-1.7-9.1C334.4,411.2,323.7,418.3,307.5,421.6z"/>
			<path class="st10" d="M339.5,407.5c-3.5,2.5-9.6,6.7-18.5,10.1c-0.9,4.1-2.4,8-4.5,11.5c8.3-2.6,16.8-6.6,24.6-12.4
				C340.6,413.6,340,410.6,339.5,407.5z"/>
			<path class="st11" d="M339.9,407.4l-0.1-0.7l-0.5,0.4c-9.5,6.9-20.2,11.6-31.8,14c-9.3,1.9-18.5,2.8-27.4,2.8
				c-3.6,0-6.4-0.2-8.3-0.3l-0.6,0l0,0.5c0.2,2.9,0.3,5.5,0.3,7.6v0.3l0.3,0.1c3.7,1.1,9.7,1.8,15.9,1.8c0,0,0,0,0,0
				c11.6,0,34.1-2.2,53.7-16.9l0.2-0.2l-0.1-0.3C341,413.5,340.4,410.5,339.9,407.4z M287.7,433L287.7,433c-6,0-11.7-0.6-15.4-1.6
				c0-1.9-0.1-4.2-0.3-6.8c1.9,0.1,4.6,0.2,8,0.2c9,0,18.2-1,27.5-2.8c11.5-2.3,22.2-7,31.6-13.7c0.5,2.7,1,5.4,1.5,8.2
				C321.3,430.9,299.2,433,287.7,433z"/>
		</g>
	</g>
	<g>
		<g>
			<path class="st3" d="M195.6,235.7c-9.3,9.7-20.6,21.7-20.8,24.4c-6.1-10.2-12.1-16.8-17.8-21.3c2-8.9,1.9-20.2,0-25.4
				c-1.9-5.2-2.1-6.6-3.4-12.1c-1.3-5.4-5-12.8-9.4-14c-2.9-1-6.5,2.2-5.6,6.4c-1.4-2.8-4.5-4.6-6.9-2.9c-2.4,1.8-2.7,5.4-1.3,8.8
				c-2.8-2.1-8.8-1.8-7.2,5c-2.2,0.3-5.6,6.8-0.7,11.4c3.4,3.6,4.8,5.9,5.4,7.5c0.1,7.3,0,15.8,12,20.8c0.6,6.8,3.4,53.1,24.6,63.6
				c5.8,2.8,9.6,0.8,16.4-2.2c8.3-3.8,30-8.9,31.1-28.8c-0.6-18.1,4.8-51.3,4.8-51.3S204.9,226.1,195.6,235.7z"/>
			<path class="st4" d="M150.6,239.3c13.9,10.1,24,25.4,29.6,42c-0.4-7.6-2.8-14.4-5.4-21.3c0,0.1,0,0.1,0,0.2
				c-6.1-10.2-12.1-16.8-17.8-21.3c0.4-1.7,0.7-3.4,0.9-5.2C155.8,236.1,153.5,238,150.6,239.3z"/>
			<path class="st4" d="M156.7,212.9c-1.6-4.6-2-6.2-3.2-11.4c-1.3-5.4-5-12.8-9.4-14c-0.5-0.2-1.1-0.2-1.7-0.1
				c3,2.7,5.7,5.5,4.9,10.1c4,4.8,6,12,5.5,18.2C154.2,214.7,155.2,213.3,156.7,212.9z"/>
			<path class="st4" d="M138.4,193c0,0.3,0.1,0.6,0.1,0.8c-1.4-2.7-4.4-4.6-6.8-2.9c4,1.5,7.1,4.8,5.7,9.4c3.7,1.8,3.2,7.1,4.3,10.6
				c1-1,1.9-2,3.2-2.7C142.9,203.3,141.3,198,138.4,193z"/>
			<path class="st4" d="M138.3,212.7c-3-4.3-4.2-10-8.1-13.2c0,0.1,0.1,0.2,0.1,0.3c-1.2-0.9-3-1.3-4.5-1c3,1.6,5.1,4.3,5.3,8.7
				c3.6,0.7,5,4.9,4.5,8.2C136.5,214.6,137.4,213.7,138.3,212.7z"/>
			<path class="st4" d="M126.6,214.8c2.2,1.1,4.5,2.3,4.7,4.6c0.5-0.7,0.9-1.5,1.3-2.2c-3.5-3.9-4.8-9.6-9.8-12.3
				c-0.6,0.3-1.2,0.9-1.7,1.8C123.9,208.4,126.3,210.9,126.6,214.8z"/>
			<path class="st4" d="M214.6,244.6c-9.1,5.2-13.4,27-17.9,37.3c-3.3,7.7-12.8,16.3-20.6,18.1c-2.8,1.2-12.8,5.9-19.7,1.5
				c2.4,2.8,5.1,5.1,8.2,6.7c5.8,2.8,9.6,0.8,16.4-2.2c8.3-3.8,30-8.9,31.1-28.8C211.8,272.4,214.1,250.6,214.6,244.6z"/>
			<path class="st5" d="M195.3,235.4c-9.8,10.1-18.9,19.9-20.6,23.7c-5.3-8.8-11-15.5-17.3-20.4c1.9-8.6,1.9-19.9-0.1-25.4
				c-1.7-4.6-2.1-6.3-3-10.4l-0.4-1.6c-1.2-4.8-4.8-13-9.7-14.3c-0.4-0.1-0.8-0.2-1.2-0.2c-1.4,0-2.9,0.8-3.9,2.1
				c-0.7,1-1.1,2.1-1.2,3.3c-1.2-1.4-2.7-2.3-4.3-2.3c-0.8,0-1.6,0.3-2.3,0.8c-2.2,1.6-2.9,4.8-1.9,8.2c-0.8-0.4-1.8-0.6-2.7-0.6
				c-1.5,0-2.8,0.6-3.5,1.6c-0.8,1.1-1,2.7-0.6,4.7c-1.1,0.4-2.2,1.9-2.8,3.8c-0.4,1.4-1,5.1,2.3,8.3c2.9,3.2,4.6,5.6,5.3,7.3l0,0.3
				c0.1,7.3,0.2,15.7,12,20.7l0.1,0.6c2.6,34.1,11.4,56.5,24.8,63.1c1.9,1,3.7,1.4,5.6,1.4h0c3.2,0,6.2-1.4,10.3-3.3l0.8-0.4
				c1.2-0.5,2.7-1.1,4.4-1.8c9.7-3.8,26-10.1,27-27.4c-0.6-17.9,4.8-50.9,4.8-51.2l0.1-0.5l-0.5,0
				C216.6,225.4,204.6,225.8,195.3,235.4z M211.5,277.1c-0.9,16.7-16.9,22.9-26.4,26.6c-1.7,0.7-3.2,1.2-4.4,1.8l-0.8,0.4
				c-4,1.9-7,3.2-10,3.2c-1.7,0-3.4-0.4-5.2-1.3c-13.1-6.5-21.7-28.6-24.3-62.3l-0.1-1.2l-0.2-0.1c-11.5-4.8-11.6-12.9-11.7-20
				l0-0.4l0-0.2c-0.7-1.8-2.5-4.3-5.5-7.7c-3-2.8-2.5-6.1-2.1-7.4c0.6-1.9,1.7-3.2,2.5-3.3l0.5-0.1l-0.1-0.5
				c-0.5-1.9-0.3-3.4,0.4-4.3c0.6-0.8,1.6-1.3,2.9-1.3c1.2,0,2.4,0.4,3.3,1l1.2,0.9l-0.6-1.5c-1.4-3.4-0.9-6.7,1.2-8.2
				c0.6-0.4,1.2-0.6,1.8-0.6c1.7,0,3.4,1.3,4.4,3.3l1.5,3l-0.7-3.3c-0.3-1.6,0-3.1,0.9-4.3c1.1-1.4,2.7-2.1,4.2-1.6
				c4.3,1.2,7.9,8.7,9.1,13.7l0.4,1.6c1,4.2,1.4,5.9,3.1,10.5c1.9,5.3,1.9,16.8,0,25.1l-0.1,0.3l0.2,0.2c6.5,5.1,12.3,12,17.7,21.2
				l0.7,1.1l0.1-1.3c0.2-2.8,14.6-17.8,20.7-24.2c8-8.3,18-9.6,20.4-9.8C215.6,230.7,211,260.4,211.5,277.1z"/>
		</g>
		<g>
			<path class="st3" d="M358.6,254.4c-5-13-16.2-35.6-54-30.6c-37.8,4.9-86,4.6-86,4.6s-19.5,22.8-9.2,55.3
				c-7.3,10.9-17.1,32.5-9.8,53.5c8.9,25.4,27.3,31.7,53.5,33.8c26.2,2.1,67.5-10.3,75.3-27.8c7.8-17.4-3.9-39.6-3.9-39.6
				s9.8,15,21.8,25c12,10.1,28.4,9.8,32.3-3.5c3.9-13.3-1.6-22.8-4.8-31C370.6,285.7,363.6,267.4,358.6,254.4z"/>
			<path class="st4" d="M207.9,278.1l1.5,5.5c0,0,4.1-6.5,15.3-4.6C220.3,275.4,207.9,278.1,207.9,278.1z"/>
			<path class="st4" d="M326.6,306.5c-3.8-11.1-5-23-7-35.3c-1.1-4.7-2.8-8.9-4.5-13c-1.1,8.3-2.2,20.1-12.3,22.5
				c-10,2.4-19.5,0-29,1.2c15.6,3,32.7,9.9,34.6,28.4c6,58.6-60.7,62.2-91.4,50.7c9.5,6.3,21.6,8.8,36.2,10
				c26.2,2.1,67.5-10.3,75.3-27.8c7.8-17.4-3.9-39.6-3.9-39.6S325.3,304.6,326.6,306.5z"/>
			<path class="st4" d="M373.9,294c-3.3-8.3-10.2-26.6-15.2-39.6c-3.7-9.7-10.9-24.6-29.8-29.6c4,2.9,9.2,6,12,10
				c11.4,16.7,21.1,36.6,21.2,57.8c9.1,1.1,13.3,14.3,11.7,23c-0.6,4.1-3.3,10.1-7.3,10.6c-8.9,1.8-21.2-1.2-25.1-11.8
				c-1.5,2.4-1.2,5.3-1.4,8.2c2,2.1,4.2,4.1,6.4,6c12,10.1,28.4,9.8,32.3-3.5C382.6,311.7,377.1,302.2,373.9,294z"/>
			<path class="st5" d="M374.2,293.8c-2-5-5.3-13.6-8.7-22.7c-2.2-5.9-4.5-11.8-6.5-17c-5.2-13.6-15.5-31.6-44.2-31.6
				c-3.2,0-6.7,0.2-10.2,0.7c-33.8,4.4-76.2,4.6-84.4,4.6c-1,0-1.6,0-1.6,0l-0.2,0l-0.1,0.1c-0.2,0.2-19.5,23.2-9.4,55.5
				c-4.5,6.9-17.9,30.2-9.7,53.7c9,25.5,27.3,32,53.9,34.1c1.9,0.2,3.9,0.2,6,0.2c26.9,0,62.4-12.1,69.7-28.3
				c5.8-12.9,0.9-28.5-2-35.8c3.7,5.1,11,14.5,19.2,21.4c5.4,4.5,11.9,7.1,17.9,7.1c7.5,0,13-4,15.1-10.9
				c3.4-11.7-0.2-20.3-3.4-27.9C375.2,296,374.7,294.9,374.2,293.8z M378.3,324.9c-1.9,6.5-7.1,10.3-14.3,10.3
				c-5.8,0-12.1-2.5-17.4-6.9c-11.8-9.9-21.6-24.8-21.7-24.9l-0.7,0.5c0.1,0.2,11.5,22.2,3.9,39.2c-3.3,7.4-13,14.4-27.3,19.8
				c-13.1,5-28.6,7.9-41.6,7.9c-2.1,0-4.1-0.1-5.9-0.2c-26.3-2.1-44.4-8.4-53.2-33.5c-8.2-23.3,5.4-46.5,9.7-53.1l0.1-0.2l-0.1-0.2
				c-9.7-30.5,7.4-52.7,9-54.7c0.2,0,0.7,0,1.4,0c8.2,0,50.6-0.2,84.5-4.6c3.5-0.5,6.9-0.7,10.1-0.7c28.2,0,38.3,17.7,43.4,31.1
				c2,5.1,4.3,11.1,6.5,17c3.5,9.1,6.8,17.7,8.7,22.7c0.4,1.1,0.9,2.3,1.4,3.5C378,305.1,381.6,313.5,378.3,324.9z"/>
		</g>
		<g>
			<path class="st5" d="M173.2,258.5c5.6,10.5,6.8,23.3,6.8,23.4c0,0,0.3-6.2-1.8-13.4c-1-3.4-2.4-7-4.2-10.5L173.2,258.5z"/>
		</g>
		<g>
			<path class="st5" d="M121.7,214.8l-0.4,0.8c0.7,0.3,1.3,0.5,1.9,0.5c2,0,3.4-1.4,3.5-1.5C126.8,214.6,124,215.9,121.7,214.8z"/>
		</g>
		<g>
			<path class="st5" d="M122.9,205.1c0.1,0.1,6.1,6.5,9.5,12.7l0.7-0.4c-3.5-6.3-9.6-12.8-9.6-12.8L122.9,205.1z"/>
		</g>
		<g>
			<path class="st5" d="M130,200.1c0,0.1,4.8,5.5,7.7,12.8l0.8-0.3c-2.9-7.5-7.8-13-7.9-13.1L130,200.1z"/>
		</g>
		<g>
			<path class="st5" d="M138.1,194.1c0,0.1,4.6,8,6.3,14.5l0.8-0.2c-1.7-6.6-6.3-14.6-6.4-14.7L138.1,194.1z"/>
		</g>
		<g>
			<path class="st5" d="M127.5,223.5l0.7,0.4c6.2-11.1,21.4-17.4,21.6-17.5c0,0-2.1-0.1-4.5,1.2
				C140.2,210.4,131.8,215.8,127.5,223.5z"/>
		</g>
		<g>
			<path class="st5" d="M126.4,208l-0.2,0.9c0.4,0.1,0.7,0.1,1,0.1c2.4,0,4.3-2.4,4.4-2.5C131.6,206.5,128.8,208.7,126.4,208z"/>
		</g>
		<g>
			<path class="st5" d="M132.4,201.8l-0.1,0.9c0.3,0.1,0.6,0.1,0.9,0.1c3.2,0,5.5-2.9,5.7-3C138.8,199.8,135.6,202.4,132.4,201.8z"
				/>
		</g>
		<g>
			<path class="st5" d="M141.1,197.8l-0.2,0.8c0.8,0.3,1.7,0.4,2.4,0.4c2.4,0,4.1-1.1,4.2-1.1C147.4,197.8,144.3,198.8,141.1,197.8z
				"/>
		</g>
		<g>
			<path class="st5" d="M137.5,228.5c0-0.1,2.7-7.8,9.8-9.6c0,0-3.3,0.3-4.5,1.1c-2,1.4-3.5,3.2-4.4,4.8
				C137.2,226.6,137.5,228.5,137.5,228.5z"/>
		</g>
		<g>
			<path class="st3" d="M165.4,202.4c-3.8,2.8-3.1,6.1-5.2,8.4c-2.1,2.3-2.5,1.7-6,4.1c-3.5,2.4-4.5,6.5-4.5,6.5l5.2,17.9
				c11.4-2.9,13.5-19.2,14.9-23.7c0.8-2.6,1.7-3.1,4.3-6.1c2.6-3,5.5-7.7,3.7-9.7C176,197.7,169.2,199.6,165.4,202.4z"/>
			<path class="st4" d="M169.8,215.6c0.8-2.6,1.7-3.1,4.3-6.1c2.6-3,5.5-7.7,3.7-9.7c-0.2-0.2-0.5-0.4-0.7-0.5
				c-2,5.3-8.2,7.1-9.2,11.6c-3,9.5-6,20.8-14,26.5l0.6,2.3C165.9,236.8,168.4,220.1,169.8,215.6z"/>
			<path class="st5" d="M165.1,202c-2.4,1.7-3.1,3.7-3.7,5.5c-0.4,1.1-0.8,2.2-1.6,3c-1.2,1.3-1.8,1.6-2.8,2.2
				c-0.7,0.4-1.7,0.9-3.1,1.9c-0.4,0.3-0.8,0.6-1.1,0.9c-2.7,2.5-2.7,6.1-2.7,6.1c0,0,1-4,4.3-6.3c1.4-1,2.3-1.5,3-1.8
				c1.1-0.6,1.8-0.9,3-2.3c0.9-1,1.3-2.1,1.7-3.3c0.6-1.7,1.2-3.5,3.4-5c3.7-2.7,10.3-4.5,11.9-2.6c1.5,1.7-0.9,5.9-3.7,9.1
				c-0.6,0.6-1,1.1-1.4,1.6c-1.6,1.7-2.3,2.5-3,4.6c-0.2,0.7-0.5,1.8-0.8,3c-1.5,6.5-4.4,18.5-13.8,20.8c0,0,2.8,0,4-0.7
				c6.9-4.3,9.3-14.2,10.6-19.9c0.3-1.2,0.5-2.3,0.8-3c0.6-1.9,1.2-2.6,2.8-4.3c0.4-0.5,0.9-1,1.4-1.6c2.9-3.4,5.7-8.1,3.7-10.3
				C176,197.1,168.8,199.4,165.1,202z"/>
		</g>
	</g>
	<g>
		<path class="st0" d="M254.1,126.6c-21.8-0.4-27.6,9.1-29.2,17.3c0,0-4.6,21.2-4.1,38.4c-0.2,12.2-2.2,17.9-4.5,23.1
			c-2.2,5.1-6.1,11.9-3.6,23.9c-0.6,8.3,0.9,14.4,5.7,21.3c1.3,7.5,5.5,13.2,8.1,16.5c2.6,3.4,5,9.2,5,9.2s2-2,1.6-6.1
			c2.7,4.9,6.5,9.4,5.1,17.7c3.9-1,17.3-4.8,22.5-18.4c1.4,5.2-1,10.1-1,10.1s15.1,0.9,21.3-17.6c0.6,3.5-1.1,7.1-1.1,7.1
			s17-3.5,19.8-19.1c1.4,3,1,6.7,1,6.7s13.5-13.3,10-30c2,4.6,2.4,7.7,2.4,7.7s5-8.7,1.3-31c1.5,1.9,3.3,5.5,3.3,5.5
			s4.8-21.3-2.3-40.2C313.3,162.7,275.9,126.9,254.1,126.6z"/>
		<path class="st1" d="M228.1,228.6c0,0-2.2-4.6-2.1-9.5c-2.7,5.4-1.6,11.9,1.6,16.6c0-1.8,0-3.5,0-5.3c1.1,2.7,2.6,7.4,7.4,10.6
			c-3.7-6.4-5.1-10.4-6.3-18C227.6,224.8,228,227.3,228.1,228.6z"/>
		<path class="st1" d="M282,219.8c-0.6-2.4-1.1-5.4-2.9-8c0.8,5.4-2.5,18.3-3.7,20.7c3.3-3.2,5.2-6.4,5.4-9.9
			c1.1,1.8,1.1,3.9,0.6,6.9c2.5-4.8,3.6-7.7,4.6-14c1,3.2,0.3,5.2,0.4,8.7c2.2-6.5,3.3-13.6-1.1-19.5C285.2,210,284.2,215,282,219.8
			z"/>
		<path class="st1" d="M315.5,168.6c-0.8-2.1-5.9-7.8-13.2-14.4c3.9,10.9,7.4,21.8,8.4,33.7c-1.7-1.8-2.8-3.5-4.5-5.3
			c3.3,10.6,5.6,21.9,5,33.1c-3.3-2.4-4.5-6.5-7.8-8.9c0,10.6,0.6,21.3-1.7,31.9c-1.7-4.1-3.9-7.7-6.1-11.8c0,9.5-3.3,19.5-8.9,26.6
			c0.6-6.5-0.6-13.6-2.8-19.5c-2.8,11.8-6.1,27.2-19,31.3c1.1-7.7,1.1-15.4-2.2-21.9c-3.9,11.8-5.6,24.2-16.7,30.7
			c-0.6-1.8-1.7-3.5-2.8-4.1c-6.7-5.9-10-13-13.9-20.1c-0.6,4.1-1.7,8.3-1.1,12.4c-6.7-6.5-6.7-16.6-8.4-25.4
			c-1.7,1.8-2.2,8.3-3.9,4.7c-1.2-2-2.2-4-3.1-6.2c0.4,5.4,2.2,10.1,5.7,15.2c1.3,7.5,5.5,13.2,8.1,16.5c2.6,3.4,5,9.2,5,9.2
			s2-2,1.6-6.1c2.7,4.9,6.5,9.4,5.1,17.7c3.9-1,17.3-4.8,22.5-18.4c1.4,5.2-1,10.1-1,10.1s15.1,0.9,21.3-17.6
			c0.6,3.5-1.1,7.1-1.1,7.1s17-3.5,19.8-19.1c1.4,3,1,6.7,1,6.7s13.5-13.3,10-30c2,4.6,2.4,7.7,2.4,7.7s5-8.7,1.3-31
			c1.5,1.9,3.3,5.5,3.3,5.5S322.6,187.5,315.5,168.6z"/>
		<path class="st2" d="M254.1,126.1c-0.4,0-0.9,0-1.3,0c-16.6,0-26.1,6-28.3,17.7c0,0.2-4.6,21.5-4.1,38.5
			c-0.2,12.2-2.2,17.8-4.4,22.9c-0.2,0.5-0.4,1-0.7,1.5c-2.2,4.9-5.3,11.7-3,22.7c-0.6,8.6,1,14.7,5.7,21.5
			c1.4,7.9,5.9,13.8,8.1,16.6c2.5,3.3,4.9,9,5,9.1l0.2,0.6l0.4-0.4c0.1-0.1,1.6-1.6,1.7-4.8c0.2,0.3,0.4,0.6,0.5,0.9
			c2.4,4,4.9,8.2,3.7,15.1l-0.1,0.7l0.6-0.2c10.6-2.7,18.5-8.8,22.3-17.4c0.6,4.4-1.2,8.4-1.3,8.4l-0.3,0.6l0.6,0c0,0,0.1,0,0.4,0
			c2.5,0,14.6-0.8,20.7-16c-0.1,2.6-1.2,4.8-1.2,4.8l-0.4,0.8l0.8-0.2c0.2,0,16.3-3.6,19.8-18c0.7,2.5,0.5,5.1,0.4,5.1l-0.1,1.2
			l0.8-0.8c0.1-0.1,11.7-11.7,10.7-26.7c0.8,2.5,1,4.1,1,4.1l0.2,1.2l0.6-1.1c0.2-0.4,4.8-8.6,1.6-29.5c1.2,1.8,2.3,3.9,2.3,3.9
			l0.5,1l0.3-1.1c0-0.2,4.8-21.7-2.3-40.5C313.6,162.4,275.9,126.5,254.1,126.1z M317.6,207.6c-0.7-1.2-1.8-3.2-2.8-4.5l-1-1.3
			l0.3,1.6c2.9,17.4,0.5,26.5-0.7,29.6c-0.3-1.3-0.9-3.6-2.1-6.5l-1.7-3.9l0.9,4.2c2.9,13.9-6.4,25.6-9.2,28.8
			c0-1.4-0.1-3.7-1.1-5.7l-0.6-1.2l-0.2,1.3c-2.4,13.1-15.3,17.6-18.7,18.5c0.5-1.3,1.2-3.9,0.8-6.5l-0.3-1.7l-0.5,1.6
			c-5.4,15.9-17.2,17.2-20.3,17.3c0.6-1.5,1.9-5.5,0.8-9.7l-0.3-1.2l-0.5,1.2c-4.5,11.7-15.2,16.2-21.6,18c0.9-6.8-1.5-11-3.9-15.1
			c-0.4-0.7-0.9-1.5-1.3-2.3l-1-1.8l0.2,2c0.2,2.7-0.6,4.4-1.1,5.2c-0.7-1.6-2.7-5.9-4.8-8.6c-2.2-2.8-6.7-8.6-8-16.3l0-0.1
			l-0.1-0.1c-4.6-6.7-6.2-12.6-5.6-21l0-0.1l0-0.1c-2.2-10.7,0.7-17.3,2.9-22.2c0.2-0.5,0.5-1,0.7-1.5c2.3-5.2,4.3-10.9,4.5-23.3
			c-0.5-17,4-38.1,4.1-38.3c2.1-11.3,11.3-17,27.5-17c0.4,0,0.9,0,1.3,0c21.5,0.4,58.8,35.9,61,41.7
			C321.1,184.8,318.4,202.9,317.6,207.6z"/>
	</g>
	<g>
		<g>
			<path class="st3" d="M254.1,126.6c-21.8-0.4-27.6,9.1-29.2,17.3c0,0-4.6,21.2-4.1,38.4c2.8,3.3,6.1,6.7,9.9,9.3
				c9.9,6.9,42.7,10.3,50.7,5.6c8-4.7,8.4-7.7,8.9-12.1c0.6-4.4,1.4-7.9,7.3-15c3.5-6.8,3.9-12.8,3-17.4
				C287.3,140.8,267.7,126.8,254.1,126.6z"/>
			<path class="st1" d="M231.6,150.8c0.4,0,9.2,1.1,10.3-2.3c1.1-3.4,1-8.8-0.6-9c-1.7-0.2-7.5-3.6-17.1,8.5
				C228.7,149.3,231.6,150.8,231.6,150.8z"/>
			<path class="st0" d="M240,144.8c1.6-0.6,2.5-2.4,2.3-4.2c-0.2-0.6-0.5-1-1-1.1c-1.5-0.2-6.6-3-14.8,5.8c0.1,0,0.2,0,0.3,0
				C231.2,144.7,235.7,146.6,240,144.8z"/>
			<path class="st1" d="M267.4,151.9c0,0-0.1-6.4,1.7-8.5c2.2-2.5,6.7-9,21,1.1c1.3,7.1,1.7,7.3,1.7,7.3H267.4z"/>
			<path class="st0" d="M269.1,146.1c4,2.1,9.7,1.8,14.1,0.3c-1.9-3.9-5.2-5.9-9-6.8c-2.5,0.9-4,2.8-5.1,3.7
				c-0.2,0.1-0.3,0.3-0.5,0.5C268.4,144.9,268.6,145.8,269.1,146.1z"/>
			<path class="st4" d="M227,144.8c0,0,3.9-8.4,17.7-9.5c13.8-1.2,22.4,0.7,30.9,3.8C265.5,129.3,225,124,227,144.8z"/>
			<path class="st4" d="M300.7,152.7c-3.8-3.4-8-6.9-12.5-10.2c-2.8,14.4,2.5,34.6-6.3,47.8c-5.4,8-13,7.3-21.5,8.8
				c9.1,0.7,17.5,0.2,21-1.9c8-4.7,8.4-7.7,8.9-12.1c0.6-4.4,1.4-7.9,7.3-15C301.2,163.3,301.5,157.3,300.7,152.7z"/>
			<path class="st5" d="M301.1,152.4l-0.1-0.1c-6.8-6.1-30.4-25.9-46.8-26.2c-0.4,0-0.9,0-1.3,0c-16.6,0-26.1,6-28.3,17.7
				c0,0.2-4.6,21.4-4.1,38.5l0,0.2l0.1,0.1c3.3,4,6.7,7.1,9.9,9.4c7,4.9,24.7,7.9,37.2,7.9h0c4.6,0,10.8-0.4,13.9-2.2
				c8.2-4.8,8.6-8,9.1-12.4c0.5-4.3,1.3-7.7,7.2-14.7l0.1-0.1c3.1-6,4.1-11.9,3.1-17.7L301.1,152.4z M297.3,169.9
				c-6,7.2-6.8,10.7-7.4,15.2c-0.5,4.3-0.9,7.2-8.7,11.8c-2.3,1.4-7.1,2.1-13.5,2.1h0c-12.3,0-29.9-3-36.7-7.7
				c-3.2-2.2-6.4-5.3-9.7-9.1c-0.5-16.9,4-37.9,4.1-38.1c2.1-11.3,11.3-17,27.5-17c0.4,0,0.9,0,1.3,0c16,0.3,39.2,19.8,46.2,25.9
				C301.2,158.4,300.2,164.1,297.3,169.9z"/>
		</g>
	</g>
	<g>
		<path class="st3" d="M241.3,194.5l-8,6.6c0,0,1.5,7.7,1.3,14.3c-0.2,6.6-0.5,14,10.1,13.9c10.6-0.1,17.4-9.2,15.8-23.5
			C255.2,200.9,241.3,194.5,241.3,194.5z"/>
		<path class="st4" d="M260.5,205.9c-0.7-0.6-1.5-1.3-2.4-2c2.4,8-1,18.1-7.7,21.2c-5.7,2.6-12.9,2.3-15.1-1
			c1.1,3.1,3.6,5.3,9.4,5.2C255.3,229.2,262.1,220.2,260.5,205.9z"/>
		<path class="st5" d="M260.9,205.7l-0.1-0.1c-5.3-5-18.8-11.2-19.4-11.4l-0.2-0.1l-8.4,6.9l0.1,0.3c0,0.1,1.5,7.7,1.3,14.2l0,0.1
			c-0.1,4.1-0.2,8.6,2.3,11.5c1.7,1.8,4.3,2.7,8,2.7l0.2,0c4.9,0,9-1.9,11.9-5.5c3.6-4.3,5.1-10.9,4.3-18.5L260.9,205.7z
			 M256.1,223.7c-2.8,3.3-6.7,5.1-11.3,5.2l-0.2,0c-3.5,0-5.9-0.8-7.4-2.5c-2.3-2.6-2.2-6.8-2.1-10.8l0-0.1c0.2-5.9-1-12.7-1.3-14.1
			l7.6-6.3c1.8,0.8,13.9,6.5,18.8,11C260.9,213.4,259.5,219.6,256.1,223.7z"/>
	</g>
	<g>
		<path class="st12" d="M240.9,196.2l-4.5,3.5c0,0,2.1,5.2,2.2,10.8c0.1,5.6-1.8,7.6,0,9.1c1.8,1.6,8.2,3.3,13.1-0.7
			c4.9-3.9,6.3-7.3,4.9-13.2C250.9,203.7,240.9,196.2,240.9,196.2z"/>
		<path class="st13" d="M256.7,205.8c-2.9-1-6.9-3.4-10.1-5.6c-5,5.6-5.1,14.5-1.6,21.2c2.2-0.1,4.7-0.7,6.8-2.4
			C256.7,215,258.1,211.7,256.7,205.8z"/>
		<g>
			<g>
				<path class="st14" d="M248.4,211.6c-5.9-1.1-9.1,3.3-10.4,5.8c-0.1,0.9,0.1,1.6,0.7,2.2c1.8,1.6,8.2,3.3,13.1-0.7
					c4.4-3.5,6-6.5,5.3-11.3C252.7,206.6,250.3,209.2,248.4,211.6z"/>
				<path class="st15" d="M257.1,207.7c-4.4-1.1-6.8,1.5-8.7,4c-2-0.4-3.7-0.1-5.1,0.5c2.3,0.3,3.3,0.8,3.6,4.2
					c0.6-3,3.9-5.4,5.7-3.7c1.5,2-1.6,7.3-6,8.6c1.8-0.3,3.6-0.9,5.3-2.3C256.2,215.5,257.8,212.4,257.1,207.7z"/>
				<path class="st16" d="M257.5,207.3l-0.3-0.1c-0.7-0.2-1.4-0.3-2.1-0.3c-3.2,0-5.2,2-6.9,4.2c-0.6-0.1-1.1-0.1-1.7-0.1
					c-5,0-7.7,3.9-8.9,6.2l0,0.1l0,0.1c-0.1,0.9,0,1.8,0.9,2.6c1,0.9,3.4,1.8,6.3,1.8h0c1.9,0,4.8-0.4,7.4-2.5
					c4.7-3.7,6.1-6.9,5.4-11.7L257.5,207.3z M251.6,218.6c-2.4,1.9-5.1,2.3-6.9,2.3c-2.6,0-4.8-0.8-5.7-1.6
					c-0.5-0.4-0.7-0.9-0.6-1.8c1.1-2.2,3.7-5.7,8.2-5.7c0.6,0,1.2,0.1,1.8,0.2l0.2,0l0.2-0.2c1.6-2.1,3.5-4.1,6.4-4.1
					c0.5,0,1,0.1,1.6,0.2C257.2,212.3,255.8,215.2,251.6,218.6z"/>
			</g>
		</g>
		<g>
			<path class="st16" d="M246.9,216.1c0,0,0.6-2.5,2.3-4.8l-0.7-0.6C246.7,213.2,246.9,216.1,246.9,216.1z"/>
		</g>
		<path class="st5" d="M257.1,205.4l-0.2-0.1c-5.7-2-15.6-9.4-15.7-9.5l-0.2-0.2l-5,4l0.1,0.3c0,0.1,2.1,5.2,2.2,10.6
			c0,2.3-0.3,4-0.5,5.3c-0.3,1.9-0.6,3.1,0.6,4.2c1,0.9,3.4,1.8,6.3,1.8h0c1.9,0,4.8-0.4,7.4-2.5c5.2-4.1,6.5-7.7,5.1-13.7
			L257.1,205.4z M251.6,218.6c-2.4,1.9-5.1,2.3-6.9,2.3c-2.6,0-4.8-0.8-5.7-1.6c-0.8-0.7-0.7-1.4-0.4-3.3c0.2-1.3,0.6-3.1,0.5-5.5
			c-0.1-4.9-1.7-9.4-2.1-10.6l4-3.1c1.6,1.2,10,7.4,15.4,9.4C257.6,211.6,256.4,214.8,251.6,218.6z"/>
	</g>
	<g>
		<path class="st0" d="M270.5,190.9c-7.1-2.2-16.7-5.2-24.7-3.7c-6.4,0.6-8.4-0.7-12.2-3.4c-3.8-2.7-7.5-2.7-10.4-3.4
			c-5.3-1.3-7.2-6.8-7.2-6.8s-6.8,9.8,0.8,19.5c0,0-1.2-0.2-2.6-0.6c1.9,3.8,3.5,8.1,11.9,7c-2.5,2.1-3.8,2.3-3.8,2.3
			s7.8,5.2,17.5-2.8c2.9,4.9,6.5,11.6,20.8,11.5c-2.2-1.6-2.8-3.9-2.8-3.9s5.4,6,18.5-0.1c-1.7-0.4-4.3-1.8-4.3-1.8
			s11.5,1.3,16.4-13.7C283.2,192.3,277.6,193.2,270.5,190.9z"/>
		<path class="st1" d="M263.8,200.9c1.7,1.8,2.8,4.1,5,5.3c-6.1,0.6-12.3-1.8-16.2-6.5c-0.6,2.4,0.6,4.1,0.6,6.5
			c-6.1-2.4-10-8.9-14.5-13.6c-0.6,4.1-5,7.1-8.4,7.1c1.1-1.8,1.7-3.5,1.7-5.3c-3.9,3-8.4,3-12.8,1.8c1.7,0,3.3-0.6,4.5-1.8
			c-8-1.6-9.7-11.7-8.4-19.3c-1.5,3-4.3,10.6,1.6,18.1c0,0-1.2-0.2-2.6-0.6c1.9,3.8,3.5,8.1,11.9,7c-2.5,2.1-3.8,2.3-3.8,2.3
			s7.8,5.2,17.5-2.8c2.9,4.9,6.5,11.6,20.8,11.5c-2.2-1.6-2.8-3.9-2.8-3.9s5.4,6,18.5-0.1c-1.7-0.4-4.3-1.8-4.3-1.8
			s11.5,1.3,16.4-13.7c-0.4,0.1-0.9,0.2-1.3,0.3C282.5,198.7,272.3,202.6,263.8,200.9z"/>
		<path class="st2" d="M279.1,191.9c-2.8,0-5.6-0.4-8.5-1.3c-5.6-1.7-13.2-4.1-20.2-4.1c-1.7,0-3.2,0.1-4.6,0.4
			c-1,0.1-1.9,0.1-2.7,0.1c-4.1,0-5.9-1.1-9.2-3.4c-2.9-2.1-5.8-2.6-8.3-3c-0.8-0.1-1.6-0.3-2.3-0.5c-5-1.3-6.8-6.5-6.9-6.5
			l-0.3-0.8l-0.5,0.7c-0.1,0.1-6.5,9.5,0.2,19.1c-0.4-0.1-0.9-0.2-1.4-0.4l-0.9-0.3l0.7,1.4c1.6,3.2,3.3,6.9,9.6,6.9
			c0.3,0,0.7,0,1,0c-1.6,1.1-2.4,1.3-2.4,1.3l-1.2,0.1l1,0.7c0.1,0.1,2.6,1.7,6.6,1.7c3.7,0,7.4-1.4,11-4.3l0,0
			c2.8,4.7,6.7,11.2,20.5,11.2l1.8,0l-1.1-0.8c-0.9-0.7-1.5-1.5-1.9-2.2c1.3,0.8,3.4,1.7,6.7,1.7c3.3,0,7-0.9,11-2.8l1.2-0.6
			l-1.3-0.3c-0.8-0.2-1.7-0.6-2.5-0.9c3.5-0.3,11.2-2.4,15-14l0.2-0.8l-0.7,0.2C285.7,191.2,282.6,191.9,279.1,191.9z M272.9,204.3
			c-0.4,0-0.7,0-0.7,0l-2.2-0.2l1.9,1.1c0.1,0,1.6,0.9,3.2,1.5c-3.5,1.5-6.7,2.2-9.5,2.2c-5.1,0-7.4-2.5-7.4-2.5l-1.2-1.3l0.5,1.7
			c0,0.1,0.5,1.8,2,3.3c-12.7-0.2-16.2-6.1-19-10.8l-0.5-0.9l-0.4,0.3c-3.5,2.9-7.2,4.4-10.8,4.4c-2.4,0-4.3-0.7-5.3-1.1
			c0.7-0.3,1.7-0.9,3-2l1.1-1l-1.4,0.2c-0.8,0.1-1.6,0.2-2.4,0.2c-5.6,0-7.2-2.9-8.7-6.1c0.9,0.2,1.7,0.4,1.7,0.4l1.1,0.2l-0.7-0.9
			c-6.3-8-2.6-15.9-1.2-18.3c0.7,1.6,2.8,5.2,7.1,6.3c0.7,0.2,1.5,0.3,2.3,0.5c2.4,0.4,5.1,0.9,7.9,2.9c3.4,2.3,5.3,3.6,9.7,3.6
			c0.8,0,1.8,0,2.9-0.1c1.4-0.3,2.9-0.4,4.5-0.4c6.9,0,14.4,2.4,20,4.1c3,0.9,5.8,1.4,8.7,1.4c3.2,0,6.2-0.5,8.9-1.2
			C283.8,203.3,275.5,204.3,272.9,204.3z"/>
	</g>
	<g>
		<path class="st2" d="M239.3,195.7c0,0.1-0.4,2.7,0.6,4.2l0.7-0.5C239.8,198.2,239.3,195.7,239.3,195.7z"/>
	</g>
	<g>
		<g>
			<path class="st2" d="M218.1,251.2l0.8-0.1c-0.6-4.4,0.1-8.5,0.1-8.5C219,242.5,217.5,246.6,218.1,251.2z"/>
		</g>
		<g>
			<path class="st2" d="M212.3,230.2l0.8,0.1c0.4-6.2,2.3-8.5,2.4-8.5C215.5,221.7,212.8,223.6,212.3,230.2z"/>
		</g>
	</g>
	<g>
		<path class="st17" d="M302.9,150.7c-13.7-4.3-29.8-0.9-34.5-0.2c-4.6,0.7-8.7,2-16.1,1.5c-7.3-0.5-11-2.7-22.4-4.6
			c-11.4-2-16,1.2-16.2,3.2c-0.4,17.5,4.8,23.2,10.9,24.5c8.7,2.1,15.4-6.8,18.2-12.2c2.8-5.4,4.6-6.1,6.9-6c4.3,0.1,5,2.9,9.3,11.2
			c4.3,8.4,12.5,13.9,23.5,13.1c14.1-1.1,19-11,20.4-16.8C304.4,158.3,304.5,151.3,302.9,150.7z"/>
		<path class="st18" d="M302.9,150.7c-13.7-4.3-29.6,0.5-34.3,1.2c-4.6,0.7-9.6,2-16.9,1.5c-7.3-0.5-10.5-2.2-22-4.1
			c-11.4-2-15.4,1.5-15.5,3.4c-0.4,15.8,4.4,21.1,10.5,22.4c8.7,2.1,15.4-6.8,18.2-12.2c2.8-5.4,4.6-6.1,6.9-6
			c4.3,0.1,5,2.9,9.3,11.2c4.3,8.4,12.5,13.9,23.5,13.1c14.1-1.1,19-11,20.4-16.8C304.4,158.3,304.5,151.3,302.9,150.7z"/>
		<path class="st19" d="M302.9,150.7c-0.2-0.1-0.3-0.1-0.5-0.2c1.5,12.9-4.4,26.9-18,28.4c-12.3,1.2-20.8-4.6-27.3-19.5
			c-2.4-5.4-8.8-6.6-12.7-2.4c-4.5,5.3-6.1,10.5-11.6,14.6c-4.9,3.3-12.5,1.6-16-3c2,3.9,4.9,5.7,7.9,6.4
			c8.7,2.1,15.4-6.8,18.2-12.2c2.8-5.4,4.6-6.1,6.9-6c4.3,0.1,5,2.9,9.3,11.2c4.3,8.4,12.5,13.9,23.5,13.1c14.1-1.1,19-11,20.4-16.8
			C304.4,158.3,304.5,151.3,302.9,150.7z"/>
		<path class="st20" d="M303.1,150.3c-4.5-1.4-9.8-2.2-15.7-2.2c-7.2,0-13.7,1.1-17.2,1.7c-0.7,0.1-1.3,0.2-1.8,0.3
			c-1.1,0.2-2.1,0.3-3.1,0.5c-2.8,0.5-5.8,1-9.7,1c-1,0-2.1,0-3.2-0.1c-3.9-0.3-6.8-1-10.4-2c-3.1-0.8-6.7-1.8-12-2.7
			c-2.4-0.4-4.7-0.6-6.7-0.6c-7,0-9.8,2.5-9.9,4.2c-0.3,15,3.3,23.2,11.2,25c0.9,0.2,1.8,0.3,2.7,0.3c7,0,12.8-6.6,16-12.8
			c2.8-5.4,4.4-5.8,6.3-5.8l0.2,0c3.5,0.1,4.4,1.9,7.5,8c0.4,0.9,0.9,1.9,1.5,3c4.4,8.5,12.3,13.4,21.7,13.4c0.7,0,1.4,0,2.2-0.1
			c15.8-1.2,19.9-13.4,20.7-17.1C304.6,159.2,305.2,151.1,303.1,150.3z M302.5,164.3c-0.8,3.6-4.8,15.3-20,16.4
			c-10.1,0.7-18.6-4-23.1-12.9c-0.5-1.1-1-2.1-1.5-2.9c-3.1-6.1-4.2-8.4-8.2-8.5l-0.2,0c-2.5,0-4.3,1-7,6.2
			c-1.1,2.1-6.8,12.3-15.3,12.3c-0.8,0-1.7-0.1-2.5-0.3c-7.4-1.7-10.9-9.6-10.5-24.1c0.1-1.1,2.5-3.4,9.1-3.4c2,0,4.2,0.2,6.6,0.6
			c5.2,0.9,8.8,1.8,11.9,2.6c3.7,1,6.5,1.7,10.6,2c1.1,0.1,2.2,0.1,3.2,0.1c4,0,7-0.5,9.8-1.1c1.1-0.2,2.1-0.4,3.1-0.5
			c0.5-0.1,1.1-0.2,1.8-0.3c3.5-0.6,10-1.7,17.1-1.7c5.8,0,11,0.7,15.4,2.1C303.8,151.5,304.1,157.6,302.5,164.3z"/>
	</g>
	<g>
		<path class="st21" d="M216.8,152.5c-0.3,11.5,4.8,18.5,7.6,19c4,0.6,6.6-0.8,10.5-5.4c3.9-4.6,7.8-10.8,7.8-10.8
			C238.7,152.4,220.1,149.6,216.8,152.5z"/>
		<path class="st22" d="M241.3,154.5c-5.8-2.6-21.5-4.7-24.5-2c-0.2,5.3,0.9,9.6,2.3,12.8C223.6,158.2,231.9,153.9,241.3,154.5z"/>
		<path class="st20" d="M223.2,150.8c-3.4,0-5.6,0.5-6.6,1.4l-0.1,0.1l0,0.2c-0.4,11.9,5,19,8,19.4c0.6,0.1,1.1,0.1,1.7,0.1
			c3.1,0,5.6-1.5,9.1-5.7c3.9-4.6,7.8-10.8,7.9-10.8l0.2-0.4l-0.3-0.2C240.1,152.9,230.3,150.8,223.2,150.8z M234.6,165.8
			c-3.4,4-5.6,5.4-8.5,5.4c-0.5,0-1,0-1.6-0.1c-2.6-0.4-7.5-7.2-7.3-18.3c0.9-0.7,3-1,6-1c6.6,0,15.9,1.8,19,3.7
			C241.2,156.9,237.8,162,234.6,165.8z"/>
	</g>
	<g>
		<path class="st21" d="M275,153.6c-7.3,1-16.1,3.1-16.1,3.1s5.3,20.2,24.1,20c12.2-0.2,18.3-13.3,17-23.6
			C292.9,151.2,282.4,152.6,275,153.6z"/>
		<path class="st22" d="M275,153.6c-7.3,1-16.1,3.1-16.1,3.1s2.3,8.8,9.3,14.7c0.3-3.4,2.7-6.4,5.1-9c7.1-5.7,15.4-9,23.8-10
			C290.2,151.6,281.4,152.7,275,153.6z"/>
		<path class="st20" d="M300.4,152.7l-0.3-0.1c-2.3-0.6-5.3-0.9-8.7-0.9c-5.8,0-11.9,0.8-16.5,1.4c-7.3,1-16.1,3.1-16.2,3.1
			l-0.4,0.1l0.1,0.4c0.1,0.2,5.5,20.3,24.1,20.3c0.1,0,0.3,0,0.4,0c4.9-0.1,9.2-2.2,12.4-6.2c3.9-4.7,5.8-11.6,5-17.9L300.4,152.7z
			 M294.8,170.3c-3.1,3.8-7.2,5.8-11.8,5.9l-0.4,0c-16.4,0-22.3-16.3-23.2-19.2c1.9-0.4,9.3-2.1,15.6-3c4.5-0.6,10.7-1.4,16.4-1.4
			c3.2,0,6,0.3,8.2,0.8C300.3,159.4,298.5,165.8,294.8,170.3z"/>
	</g>
	<g>
		<path class="st2" d="M272,140.1c-4.7,2.5-4.6,8.6-4.6,8.6c0-0.1,0.6-5.5,4.9-7.9c4.1-2.2,10.1-1,17.8,3.7l0.4-0.8
			C282.6,139,276.3,137.7,272,140.1z"/>
	</g>
	<g>
		<path class="st2" d="M239.3,138.3c-6.1-0.9-13.1,6.3-13.4,6.6l0.6,0.6c0.1-0.1,7-7.2,12.7-6.4c1.3,0.2,2.1,0.8,2.7,1.7
			c1.6,2.7,0,7.5,0,7.6c0,0,2.5-5,0.7-8.1C241.9,139.3,240.8,138.6,239.3,138.3z"/>
	</g>
	<g>
		<g>
			<path class="st6" d="M345.1,171.3c0-21.9,1-24.1-0.3-32.6c-1.3-8.5-16.4-16-16.4-16s-5.4-9.8-12.7-13.5
				c-7.4-3.7-34.7-15.4-61.1-1.2c12.4,0.8,71.9,19.3,71.1,81c0,0,7,15.2,27.5,13.4c1.5-2.3,1.5-2.3,1.5-2.3S345.1,193.2,345.1,171.3
				z"/>
			<path class="st23" d="M332.6,131c5.7-0.6,8.3,4.5,9.9,10.2c1.5,4.2,1.4,11,2.8,16.2c0.2-9.6,0.5-12.4-0.4-18.6
				c-1.3-8.5-16.4-16-16.4-16s-5.4-9.8-12.7-13.5c-7.4-3.7-34.7-15.4-61.1-1.2c2.1,0.1,5.6,0.8,9.9,2.1
				C287.7,99.7,322,109.6,332.6,131z"/>
			<path class="st7" d="M340,190.2c-12.8-21.9-2-53.2-24.4-67.4c0.9,7.2,0.3,14.8-5.3,18c9.1,11.9,15.6,27.6,15.3,48.2
				c0,0,7,15.2,27.5,13.4c0.6-0.8,0.9-1.4,1.2-1.7C349.8,199.5,342.6,194.7,340,190.2z"/>
			<path class="st8" d="M345.5,171.3c0-8.4,0.1-13.9,0.2-17.9c0.2-6.5,0.2-9.4-0.5-14.7c-1.2-8.3-15-15.5-16.5-16.3
				c-0.7-1.2-5.8-10-12.9-13.5c-4.9-2.4-17.8-8.1-33.5-8.1c-10,0-19.4,2.3-27.9,6.9l-1.4,0.7l1.5,0.1c6.1,0.4,24.1,5.3,40.3,17.6
				c14.1,10.7,30.8,30.4,30.4,62.9l0,0.1l0,0.1c0.1,0.1,6.5,13.8,24.5,13.8h0c1.1,0,2.2-0.1,3.4-0.2l0.2,0l1.9-2.8l-0.4-0.3
				C354.8,199.7,345.5,192.6,345.5,171.3z M352.9,202c-1.1,0.1-2.1,0.1-3.1,0.1h0c-16.7,0-23.1-12-23.7-13.2
				c0.4-32.9-16.5-52.7-30.8-63.6c-15.2-11.6-32-16.6-39.2-17.6c8-4.1,16.9-6.1,26.2-6.1c15.5,0,28.4,5.6,33.2,8
				c7.2,3.6,12.5,13.2,12.6,13.3l0.1,0.1l0.1,0.1c0.1,0.1,14.9,7.5,16.2,15.7c0.8,5.2,0.7,7.9,0.5,14.6c-0.1,4-0.2,9.6-0.2,18
				c0,19.8,7.7,27.4,9.5,28.9L352.9,202z"/>
		</g>
		<g>
			<path class="st8" d="M327.8,122.5c3.2,6,4.7,10.3,4.7,10.3c0,0-0.8-4.7-4-10.7L327.8,122.5z"/>
		</g>
		<g>
			<path class="st8" d="M319,126.8c0.1,0.1,10.2,14.9,5.1,32.8l0.8,0.3c1.9-6.6,1.7-12.8,0.8-18C324,132.6,319,126.8,319,126.8z"/>
		</g>
		<g>
			<ellipse class="st0" cx="362.5" cy="205.8" rx="11.3" ry="12"/>
			<path class="st24" d="M352,201.3c-0.5,1.4-0.8,2.9-0.8,4.4c0,6.6,5.1,12,11.3,12c5.6,0,10.2-4.2,11.1-9.8
				C364.5,217.2,352.9,209.4,352,201.3z"/>
			<path class="st25" d="M362.5,193.3c-6.5,0-11.8,5.6-11.8,12.5c0,6.9,5.3,12.5,11.8,12.5c6.5,0,11.8-5.6,11.8-12.5
				C374.3,198.9,369,193.3,362.5,193.3z M362.5,217.4c-6,0-10.9-5.2-10.9-11.6c0-6.4,4.9-11.6,10.9-11.6c6,0,10.9,5.2,10.9,11.6
				C373.4,212.2,368.5,217.4,362.5,217.4z"/>
		</g>
	</g>
	<g>
		<path class="st5" d="M271,282.3c0.4,0,37,0.3,55,25.4l0.7-0.5C308.5,281.7,271,282.3,271,282.3z"/>
	</g>
	<g>
		<path class="st5" d="M237.5,321.6c0,0-2.7,5.6-3,13.6c-0.2,5.3,0.3,11.7,2.4,18.1c1,2.9,4.7,8.1,4.7,8.1
			C230.5,343.3,237.5,321.8,237.5,321.6z"/>
	</g>
	<g>
		<path class="st5" d="M208.2,284.8l0.7,0.5c5.4-7.6,15.8-6.3,15.9-6.3C224.7,279,213.9,276.8,208.2,284.8z"/>
	</g>
	<g>
		<path class="st26" d="M218.3,270.1c-1.3,0-2.4,0.9-2.4,1.9s1.1,1.9,2.4,1.9c1.3,0,2.4-0.9,2.4-1.9S219.6,270.1,218.3,270.1z"/>
		<path class="st5" d="M218.3,269.6c-1.6,0-2.8,1.1-2.8,2.4s1.3,2.4,2.8,2.4c1.6,0,2.8-1.1,2.8-2.4S219.8,269.6,218.3,269.6z
			 M218.3,273.5c-1.1,0-2-0.7-2-1.5s0.9-1.5,2-1.5c1.1,0,2,0.7,2,1.5S219.4,273.5,218.3,273.5z"/>
	</g>
	<g>
		<ellipse class="st26" cx="290.8" cy="275.9" rx="2.4" ry="1.9"/>
		<path class="st5" d="M290.8,273.5c-1.6,0-2.8,1.1-2.8,2.4c0,1.3,1.3,2.4,2.8,2.4c1.6,0,2.8-1.1,2.8-2.4
			C293.6,274.6,292.3,273.5,290.8,273.5z M290.8,277.4c-1.1,0-2-0.7-2-1.5c0-0.8,0.9-1.5,2-1.5c1.1,0,2,0.7,2,1.5
			C292.8,276.7,291.9,277.4,290.8,277.4z"/>
	</g>
	<g>
		<path class="st5" d="M344,302.2l0.6,0.6c14.6-17.4,27.5-5.9,28-5.4c0,0-2.4-3.3-7-4.4C360.2,291.6,352.3,292.4,344,302.2z"/>
	</g>
	<g>
		<path class="st3" d="M350.3,279.8c-7.1-2.2-15.5,5.8-18.8,17.9s-0.1,23.6,7,25.7c7.1,2.2,15.5-5.8,18.8-17.9
			C360.6,293.5,357.5,282,350.3,279.8z"/>
		<path class="st4" d="M357.6,288.6c0.1,6.4-0.7,14.7-5.6,18.4c-7.1,4.7-15.3,1.9-21.6-2.4c-0.7,9.3,2.4,17.1,8.2,18.8
			c7.1,2.2,15.5-5.8,18.8-17.9C359,299.4,359,293.3,357.6,288.6z"/>
		<path class="st5" d="M350.5,279.4c-0.8-0.2-1.7-0.4-2.5-0.4c-6.8,0-13.9,7.8-16.8,18.6c-3.3,12.3-0.1,24,7.3,26.3
			c0.8,0.2,1.7,0.4,2.5,0.4c6.8,0,13.9-7.8,16.8-18.6c1.6-5.9,1.7-11.9,0.4-16.8C356.8,283.8,354,280.5,350.5,279.4z M356.9,305.4
			c-2.8,10.4-9.5,17.9-16,17.9c-0.8,0-1.5-0.1-2.3-0.3c-6.9-2.1-9.9-13.4-6.7-25.2c2.8-10.4,9.5-17.9,16-17.9c0.8,0,1.5,0.1,2.3,0.3
			c3.3,1,5.8,4.1,7.1,8.9C358.6,293.9,358.5,299.7,356.9,305.4z"/>
	</g>
	<g>
		<path class="st27" d="M349.1,266.5C349.1,266.5,349.1,266.5,349.1,266.5L349.1,266.5c-0.3-1.3-8.6-2.2-18.7-2.1
			c-10.2,0.1-18.5,1.3-18.6,2.5l0,0c0,0,0,0,0,0c0,0,0,0,0,0c0,0,0,0,0,0c0.2,2.2,5.5,56.8,6.7,57.8c2.7,2.3,25.2,1.4,25.8,0
			C344.9,323.5,348.9,269,349.1,266.5C349.1,266.6,349.1,266.6,349.1,266.5C349.1,266.5,349.1,266.5,349.1,266.5z"/>
		<path class="st28" d="M314,289.4c1.7,16,3.8,34.9,4.4,35.4c2.7,2.3,25.2,1.4,25.8,0c0.4-0.8,1.8-18.8,3-34.7L314,289.4z"/>
		<g>
			<g>
				<path class="st29" d="M318.6,324.9c3.1,2.1,24.1,1.3,25.6,0c-1.1-1.1-6.4-1.9-12.8-1.9C325,323,319.7,323.8,318.6,324.9z"/>
			</g>
		</g>
		<path class="st30" d="M340.1,290c-0.3,17.2-3.5,36-21.8,34.5c0.1,0.2,0.1,0.3,0.2,0.4c2.7,2.3,25.2,1.4,25.8,0
			c0.4-0.8,1.8-18.8,3-34.7L340.1,290z"/>
		<g>
			<path class="st31" d="M330.6,286.9c-9.1,0-16.5,1.2-16.5,2.6c0,1.4,7.2,3,16.3,3c9.1,0,16.7-1.6,16.7-3
				C347.1,288.1,339.7,286.9,330.6,286.9z"/>
		</g>
		<path class="st32" d="M349.5,266l-0.9,1.3c-1.7,22.4-4.2,55.5-4.7,57.3c-0.8,0.5-6.9,1.2-13.9,1.2c-6,0-10.3-0.5-11.3-1.3
			c-0.7-1.5-2.9-21.2-4.9-40.4H313c1.9,18.3,4.3,40.3,5.2,41c1.5,1.3,8.1,1.5,11.8,1.5c0.1,0,13.9,0,14.6-1.6
			c0.6-1.4,4.2-49,4.9-58.5L349.5,266L349.5,266z"/>
	</g>
	<g>
		<path class="st32" d="M332.2,264c-0.6,0-1.2,0-1.8,0c-0.7,0-17.6,0.2-19,2.7l0.8,0.3c0.7-0.8,7.4-2,18.2-2.1c0.6,0,1.2,0,1.8,0
			c9.8,0,15.8,1,16.4,1.7c-0.1,0.1-0.3,0.2-0.6,0.4l0.2,0.8c0.8-0.3,1.3-0.7,1.3-1.2C349.5,264.1,335.1,264,332.2,264z"/>
	</g>
	<g>
		<g>
			<g>
				<path class="st33" d="M338.7,242.6c-1.7,0-1.8,1.6-1.5,3c-2.2,0.2-1.2,2.6-1.2,2.6l-11.7,44l4.6-0.1l11.1-42.5
					c0,0,1.4-0.7,1.4-2.1c1.3-0.2,1.2-2.1,1.2-2.1l25.8-20l-2-3.8C366.6,221.4,340.6,240.8,338.7,242.6z"/>
				<path class="st24" d="M368.6,225.2l-0.9-1.7l-27,20.7c0.4,1.3-0.3,1.9-1.5,2.1c0.6,0.6,0.5,2.8-1.2,2.5l-11.2,43.2l2.2-0.1
					l11.1-42.5c0,0,1.4-0.7,1.4-2.1c1.3-0.2,1.2-2.1,1.2-2.1L368.6,225.2z"/>
				<g>
					<path class="st34" d="M335.8,248.5c0.1,0.1,2.2,1.2,4.3,1.4l0.1-0.9c-1.8-0.1-3.9-1.3-3.9-1.3L335.8,248.5z"/>
				</g>
				<g>
					<path class="st34" d="M337.1,246c0,0,2.9,0.9,4.2,1.8l0.4-0.8c-1.4-0.9-4.3-1.9-4.4-1.9L337.1,246z"/>
				</g>
				<g>
					<path class="st34" d="M338.5,243c0,0,3.1,1.8,4,2.6l0.6-0.7c-0.9-0.9-4-2.7-4.1-2.7L338.5,243z"/>
				</g>
				<path class="st34" d="M324,292.4l11.6-44.2c-0.1-0.4-0.4-1.4,0-2.1c0.2-0.4,0.6-0.7,1.1-0.8c-0.1-0.8-0.1-1.7,0.4-2.3
					c0.3-0.4,0.8-0.7,1.4-0.7c2.6-2.3,26.7-20.4,27.7-21.1l0.4-0.3l2.4,4.6l-25.9,20.1c0,0.8-0.3,1.9-1.3,2.3
					c-0.2,1.1-1.1,1.8-1.5,2l-11.1,42.6L324,292.4z M338.7,243.1c-0.4,0-0.8,0.1-1,0.4c-0.3,0.4-0.4,1.1-0.2,2l0.1,0.5l-0.5,0
					c-0.5,0-0.8,0.2-0.9,0.5c-0.3,0.5,0,1.2,0.1,1.5l0.1,0.1l0,0.2l-11.5,43.4l3.8-0.1l11.1-42.4l0.2-0.1c0,0,1.2-0.6,1.2-1.7V247
					l0.3-0.1c0.9-0.2,0.9-1.7,0.9-1.7l0-0.2l25.7-19.9l-1.6-3.1c-3.2,2.4-25.7,19.3-27.4,20.9l-0.1,0.1H338.7z"/>
			</g>
		</g>
		<g>
			<path class="st35" d="M367,221.1c-0.5,0.2-0.5,1.4,0,2.5c0.5,1.2,1.3,1.9,1.8,1.7c0.5-0.2,0.5-1.4,0-2.5
				C368.2,221.6,367.4,220.9,367,221.1z"/>
			<path class="st34" d="M367.2,220.6c-0.1,0-0.2,0-0.4,0.1c-0.8,0.4-0.7,1.9-0.2,3.1c0.4,1,1.2,2,2,2c0.1,0,0.2,0,0.4-0.1
				c0.2-0.1,0.6-0.4,0.6-1.3c0-0.5-0.2-1.2-0.4-1.8C368.7,221.6,367.9,220.6,367.2,220.6z M368.9,225.2
				C368.9,225.2,368.9,225.2,368.9,225.2c-0.3,0-1-0.6-1.5-1.8c-0.6-1.3-0.4-2.3-0.3-2.3c0.3,0,1,0.6,1.4,1.8
				c0.3,0.6,0.4,1.2,0.4,1.7C369,225,368.9,225.2,368.9,225.2z"/>
		</g>
	</g>
	<g>
		<path class="st31" d="M311.8,250.6c-11.6-1.9-19.9,10.9-13.9,21.8c4.9,8.9,15.1,7,15.1,7l-1.1-12c0,0,0.7,0.4,4.7,1.1
			c1.9,0.3,6.6,0.5,6.6,0.5S324.7,252.7,311.8,250.6z"/>
		<path class="st36" d="M318.3,253.7c1.4,3,1.9,6.5,0.7,9.8c-1.7,4.7-7,2.7-8.5,2.6c-0.5,0.4-0.2,6.3-3.3,8.5
			c-3,2.6-8.3-1.2-10.4-4.7c0.3,0.8,0.7,1.7,1.1,2.5c4.9,8.9,15.1,7,15.1,7l-1.1-12c0,0,0.7,0.4,4.7,1.1c1.9,0.3,6.6,0.5,6.6,0.5
			S324.1,259.1,318.3,253.7z"/>
		<path class="st37" d="M311.8,250.2c-0.8-0.1-1.6-0.2-2.3-0.2c-5.1,0-9.6,2.8-12.1,7.4c-2.5,4.7-2.5,10.4,0.2,15.2
			c3.5,6.5,9.8,7.4,13.2,7.4h0c1.4,0,2.3-0.2,2.4-0.2l0.3,0l-1.1-12c0.7,0.2,2,0.8,4.3,1.2c1.9,0.3,6.5,0.5,6.6,0.5l0.4,0l0-0.4
			C323.7,268.9,325,252.3,311.8,250.2z M322.9,268.6c-1.2-0.1-4.6-0.2-6.1-0.5c-3.8-0.6-4.6-1-4.6-1l-0.7-0.4l1.1,12.4
			c-0.4,0-1,0.1-1.8,0.1h0c-3.2,0-9.1-0.9-12.5-7c-2.5-4.6-2.6-9.9-0.2-14.3c2.4-4.4,6.6-7,11.4-7c0.7,0,1.5,0.1,2.2,0.2
			C323.1,252.9,323,266,322.9,268.6z"/>
	</g>
	<g>
		<path class="st28" d="M314.4,256.3c-1.2-3.3-5.9-4-8.1-1.5c-2.3-0.9-6.6,1.5-6,5.3c0,0-2.9,3.6,0,8c-0.4,3,2.4,6.7,5.6,5.8
			c1.8,3,4.6,3.5,6.7,1.6c0,0-0.5-5.2-0.7-8.1c3.9,1.3,7.3,1.5,7.3,1.5c1.7-1.1,1.1-4.5,0-6C320.1,260.3,317.8,255.6,314.4,256.3z"
			/>
		<path class="st38" d="M310.2,266.3c-0.7,3.1-1.9,6.2-3.6,8.7c1.8,2,4.1,2.2,5.9,0.5c0,0-0.5-5.2-0.7-8.1c3.9,1.3,7.3,1.5,7.3,1.5
			c1.3-0.9,1.3-3.2,0.6-4.9C317.7,266.8,313.7,266.8,310.2,266.3z"/>
		<path class="st39" d="M318.8,258c-1-1.6-2.5-2.4-4.1-2.3c-0.8-1.8-2.7-2.9-4.9-2.9c-1.4,0-2.8,0.5-3.7,1.5
			c-0.3-0.1-0.6-0.1-0.9-0.1c-1.5,0-3.3,0.9-4.3,2.2c-0.9,1.1-1.2,2.3-1.1,3.7c-0.6,0.8-2.5,4.2,0,8.3c-0.1,1.5,0.4,3.2,1.5,4.4
			c1.2,1.5,2.8,2.1,4.4,1.8c1.1,1.7,2.7,2.6,4.2,2.6c1.1,0,2.1-0.4,3-1.2l0.2-0.2l-0.3-0.4c0,0-0.3-4.6-0.5-7.6
			c3.6,1.1,6.7,1.1,6.8,1.1l0.3,0.2l0,0.3c0.7-0.4,1.1-1.2,1.2-2.2c0.2-1.4-0.2-3.2-0.9-4.4C320.1,261.4,319.7,259.5,318.8,258z
			 M319.6,267c-0.1,0.4-0.2,1-0.7,1.3c-0.7-0.1-3.6-0.3-7-1.4l-0.7-0.2l0,0.8c0.2,2.5,0.6,6.8,0.7,7.9c-0.7,0.5-1.4,0.8-2.2,0.8
			c-1.4,0-2.6-0.9-3.6-2.5l-0.2-0.3l-0.3,0.1c-1.3,0.4-2.7-0.2-3.8-1.4c-0.9-1.1-1.4-2.6-1.2-3.8l0-0.2l-0.1-0.2
			c-2.6-4-0.1-7.2,0-7.3l0.2-0.2l0-0.2c-0.2-1.4,0.3-2.4,0.8-3c0.9-1.1,2.3-1.8,3.6-1.8c0.3,0,0.6,0.1,0.9,0.2l0.3,0.1l0.2-0.3
			c0.7-0.9,1.9-1.4,3.2-1.4c1.6,0,3.5,0.8,4.1,2.7l0.1,0.4l0.4-0.1c0.2,0,0.4-0.1,0.6-0.1c1.5,0,2.5,1.1,2.9,1.8
			c0.8,1.3,1.1,3,0.7,4.1l-0.1,0.3l0.2,0.2C319.3,264,319.8,265.6,319.6,267z"/>
	</g>
	<g>
		<polygon class="st39" points="300.1,267.6 300.4,268.6 319.2,263.4 319,262.4 		"/>
	</g>
	<g>
		<polygon class="st39" points="305.8,255 309.1,265.5 305.4,273.7 306.3,274.2 310.2,265.5 306.7,254.7 		"/>
	</g>
	<g>
		<polygon class="st39" points="300,260.6 309.4,266 309.9,265 300.5,259.7 		"/>
	</g>
	<g>
		<polygon class="st39" points="313.9,256 309,265.6 311.5,267.8 312.2,267 310.3,265.4 314.8,256.5 		"/>
	</g>
	<g>
		<path class="st3" d="M234.8,342c-2.6,1.8-2.4,6.9,0,9.3c2.4,2.4,6.6-1,6.6-1V343C241.3,343,237.4,340.2,234.8,342z"/>
		<path class="st4" d="M232.9,345.3c0,0,0.2,6.2,3.6,6.8c3.3,0.6,4.9-2.2,5.8-4.3C238.2,350.2,233.3,347.3,232.9,345.3z"/>
		<path class="st5" d="M235.1,351c-1.2-1.2-1.9-3.4-1.7-5.3c0.1-1.5,0.7-2.6,1.7-3.3c2.4-1.6,6.1,1,6.1,1c0,0-3.7-3.7-6.5-1.8
			c-1.2,0.8-1.9,2.2-2,3.9c-0.2,2.3,0.6,4.7,2,6.1c0.7,0.7,1.5,1,2.4,1c2.3,0,4.2-2.7,4.2-2.7C241.1,350,237.2,353.1,235.1,351z"/>
	</g>
	<g>
		<path class="st3" d="M345.5,306.6c-3,0-5.5,1.6-5.5,3.6c0,2,2.5,3.6,5.5,3.6s5.5-1.6,5.5-3.6C351,308.2,348.5,306.6,345.5,306.6z"
			/>
		<path class="st4" d="M340,309.8c0,0.1,0,0.2,0,0.4c0,2,2.5,3.6,5.5,3.6s5.5-1.6,5.5-3.6c0-0.2,0-0.3-0.1-0.5
			C348.1,312.1,343.6,312.1,340,309.8z"/>
		<path class="st5" d="M345.5,306.1c-3.3,0-5.9,1.8-5.9,4s2.6,4,5.9,4c3.3,0,5.9-1.8,5.9-4S348.8,306.1,345.5,306.1z M345.5,313.3
			c-2.7,0-5.1-1.4-5.1-3.2c0-1.7,2.3-3.2,5.1-3.2c2.7,0,5.1,1.4,5.1,3.2C350.6,311.9,348.2,313.3,345.5,313.3z"/>
	</g>
	<g>
		<path class="st3" d="M345,297.7c-4.3,0-7.7,2-7.7,4.4c0,2.5,3.5,4.4,7.7,4.4c4.3,0,7.7-2,7.7-4.4
			C352.8,299.7,349.3,297.7,345,297.7z"/>
		<path class="st4" d="M337.5,301.2c-0.1,0.3-0.2,0.6-0.2,0.9c0,2.5,3.5,4.4,7.7,4.4c4.3,0,7.7-2,7.7-4.4c0-0.6-0.2-1.1-0.5-1.6
			C349.1,304.6,340.9,304.7,337.5,301.2z"/>
		<path class="st5" d="M345,297.2c-4.6,0-8.1,2.1-8.1,4.9c0,2.7,3.6,4.9,8.1,4.9s8.1-2.1,8.1-4.9C353.2,299.4,349.6,297.2,345,297.2
			z M345,306.1c-4,0-7.3-1.8-7.3-4c0-2.2,3.3-4,7.3-4c4,0,7.3,1.8,7.3,4C352.3,304.3,349,306.1,345,306.1z"/>
	</g>
	<g>
		<path class="st3" d="M345.1,289c-4.7,0-8.6,2.2-8.6,5c0,2.8,3.8,5,8.6,5c4.7,0,8.6-2.2,8.6-5C353.7,291.3,349.9,289,345.1,289z"/>
		<path class="st4" d="M336.8,292.9c-0.1,0.4-0.2,0.7-0.2,1.1c0,2.8,3.8,5,8.6,5c4.7,0,8.6-2.2,8.6-5c0-0.4-0.1-0.8-0.2-1.1
			C348.2,296.1,342.6,297.4,336.8,292.9z"/>
		<path class="st5" d="M345.1,288.6c-5,0-9,2.4-9,5.5s3.9,5.5,9,5.5c5,0,9-2.4,9-5.5S350.2,288.6,345.1,288.6z M345.1,298.6
			c-4.4,0-8.1-2.1-8.1-4.6c0-2.5,3.7-4.6,8.1-4.6c4.4,0,8.1,2.1,8.1,4.6C353.3,296.5,349.5,298.6,345.1,298.6z"/>
	</g>
	<g>
		
			<ellipse transform="matrix(0.1064 -0.9943 0.9943 0.1064 27.4873 598.238)" class="st3" cx="346.6" cy="283.8" rx="5.7" ry="8.7"/>
		<path class="st4" d="M337.9,282.7c0,0.1,0,0.2-0.1,0.3c-0.3,3.1,3.4,6,8.2,6.5c4.8,0.5,8.9-1.7,9.2-4.8c0-0.1,0-0.2,0-0.2
			C349.8,287.1,343,286.2,337.9,282.7z"/>
		<path class="st5" d="M347.1,277.7c-0.5,0-0.9-0.1-1.4-0.1c-4.5,0-8,2.2-8.3,5.3c-0.1,1.7,0.7,3.3,2.4,4.6c1.6,1.3,3.8,2.1,6.2,2.3
			c0.5,0,0.9,0.1,1.4,0.1c4.5,0,8-2.2,8.3-5.3C356,281.4,352.1,278.2,347.1,277.7z M354.8,284.6c-0.2,2.5-3.4,4.4-7.4,4.4
			c-0.4,0-0.9,0-1.3-0.1c-2.2-0.2-4.3-1-5.8-2.2c-1.4-1.1-2.1-2.5-2-3.8c0.2-2.5,3.4-4.4,7.4-4.4c0.4,0,0.9,0,1.3,0.1
			C351.6,279.1,355.1,281.8,354.8,284.6z"/>
	</g>
	<g>
		<path class="st0" d="M319.4,145.3c-20.7-30.5-49.1-39.6-66.6-37.7c-17.4,1.9-19,9-19,12.3c0,0-8.5,7.9-10.8,15.3
			c-2.3,7.4-1.3,11,1.4,11c2.6,0,3-5,3.2-7.4c29.3-20.5,57.8,7.4,57.8,7.4c19.7,14.5,36.3,38,40.4,47c6.7-5,2-16,2-16
			C330.4,176.9,333.4,165.9,319.4,145.3z"/>
		<path class="st24" d="M319.4,145.3c-0.5-0.8-1.1-1.5-1.6-2.3c2,5.3,5,11.1,4.3,17.2c-0.6,1.8-6.4-0.7-8-2.5
			c2.5,3.2,3.9,7.4,1.1,8.3c-1.4-0.1-6.7-7.1-10-11.2c-19.9-24-59.6-41.9-82.9-16.5c-1.1,5.3-0.1,8,2.2,7.9c2.6,0,3-5,3.2-7.4
			c29.3-20.5,57.8,7.4,57.8,7.4c19.7,14.5,36.3,38,40.4,47c6.7-5,2-16,2-16C330.4,176.9,333.4,165.9,319.4,145.3z"/>
		<path class="st25" d="M329.7,175.8c1.9-4.6,0.5-15.4-10-30.8c-19.1-28.1-44.7-38.1-62.3-38.1c-1.6,0-3.1,0.1-4.6,0.2
			c-15.8,1.7-19.2,7.7-19.3,12.5c-1.2,1.1-8.6,8.4-10.8,15.4c-1.5,4.9-1.7,8.6-0.5,10.4c0.5,0.8,1.3,1.2,2.2,1.2h0
			c3,0,3.4-5.5,3.6-7.6c7-4.9,14.6-7.4,22.5-7.3c19.2,0,34.4,14.6,34.6,14.8l0,0c19.8,14.5,36.2,38.1,40.3,46.9l0.2,0.5l0.4-0.3
			c6.1-4.5,3.1-13.8,2.3-16C328.9,177.2,329.3,176.6,329.7,175.8z M327.7,176.8l-0.6,0.1l0.2,0.6c0,0.1,4.3,10.2-1.4,15.1
			c-4.4-9.2-20.8-32.4-40.3-46.7c-0.7-0.7-15.9-15-35.1-15c-8.2,0-16,2.6-23.2,7.6l-0.2,0.1l0,0.2c-0.3,4.6-1.2,6.9-2.8,7
			c-0.6,0-1.2-0.3-1.5-0.8c-1-1.5-0.8-5,0.6-9.6c2.2-7.2,10.6-15,10.7-15.1l0.1-0.1v-0.2c0-6.4,6.4-10.5,18.6-11.8
			c1.5-0.2,3-0.2,4.5-0.2c17.4,0,42.7,9.9,61.7,37.8c11,16.1,11.4,26.4,9.9,29.9C328.6,176.2,328.1,176.7,327.7,176.8z"/>
	</g>
	<g>
		<path class="st25" d="M233.6,119.5l0.5,0.7c4.4-3,10.8-4.5,10.8-4.5C244.6,115.8,238.1,116.3,233.6,119.5z"/>
	</g>
	<g>
		<path class="st25" d="M320.4,166.8c0.1,0.1,5.5,7,7.7,12.5l0.8-0.3C326.6,173.3,320.4,166.8,320.4,166.8z"/>
	</g>
	<g>
		<g>
			<path class="st25" d="M225.3,141.3c0,0,1.4-1.6,3.4-2.8l-0.4-0.8C226.2,139.1,225.3,141.3,225.3,141.3z"/>
		</g>
	</g>
	<path class="st32" d="M330.5,268.7c-0.6,0-1.2,0-1.8,0c-1.5,0-3,0-4.3-0.1l0.1,0.9c1.9,0.1,3.4,0.1,4.2,0.1c0.6,0,1.2,0,1.8,0
		c0.7,0,13.6-0.2,17.8-1.9l-0.2-0.8C346.1,267.7,339.8,268.6,330.5,268.7z"/>
	<path class="st40" d="M317.1,269c0,0,4.9,0.4,6.5,0.4c-0.2,6.7,2.6,56.2,2.6,56.2c-2.2,0-2.6-0.1-4.1-0.3
		C321.4,319.8,317.1,269,317.1,269z"/>
	<path class="st41" d="M302.1,263.4c0,0-0.9-0.9-1.2-0.4C300.6,263.5,301.3,263.6,302.1,263.4z"/>
	<path class="st41" d="M303.9,264.6c0,0-0.9-0.9-1.2-0.4C302.5,264.7,303.1,264.9,303.9,264.6z"/>
	<path class="st41" d="M306.4,264.9c0,0-1.2-0.7-1.3-0.1C305,265.4,306.1,265,306.4,264.9z"/>
	<path class="st41" d="M302.1,265.3c0,0-1.6-0.8-1.7,0C300.3,266.1,301.6,265.6,302.1,265.3z"/>
	<path class="st41" d="M304.3,265.7c0,0-1.5-0.2-1.4,0.3C303,266.6,303.8,266.4,304.3,265.7z"/>
	<path class="st41" d="M303.2,269.3c0,0-1.3,0-1.1,0.6C302.2,270.4,302.8,270,303.2,269.3z"/>
	<path class="st41" d="M305.4,268.8c0,0-1.3,0-1.1,0.6C304.4,270,304.9,269.6,305.4,268.8z"/>
	<path class="st41" d="M307.3,267.2c0,0-1.3,0.3-1,0.8C306.7,268.6,307.2,267.5,307.3,267.2z"/>
	<path class="st41" d="M304.4,270.7c0,0-1.6,0.6-1.2,1.2C303.7,272.5,304.3,271.2,304.4,270.7z"/>
	<path class="st41" d="M306.3,269.4c0,0-1.2,1-0.8,1.2C306,270.9,306.4,270.2,306.3,269.4z"/>
	<path class="st41" d="M308.5,272.7c0,0-0.8,1.1-0.3,1.3C308.7,274.2,308.8,273.5,308.5,272.7z"/>
	<path class="st41" d="M309.6,270.7c0,0-0.8,1.1-0.3,1.3C309.8,272.2,309.8,271.5,309.6,270.7z"/>
	<path class="st41" d="M309.6,268c0,0-0.6,1.3,0,1.3C310.2,269.4,309.7,268.3,309.6,268z"/>
	<path class="st41" d="M310.3,272.6c0,0-0.6,1.7,0.1,1.8C311.2,274.4,310.6,273,310.3,272.6z"/>
	<path class="st41" d="M310.5,270.2c0,0-0.1,1.6,0.3,1.5C311.5,271.4,311.2,270.6,310.5,270.2z"/>
	<path class="st41" d="M317.2,267.4c0,0,1.1,0.7,1.2,0.2C318.6,267.1,317.9,267.1,317.2,267.4z"/>
	<path class="st41" d="M315.2,266.5c0,0,1.1,0.7,1.2,0.2C316.6,266.1,315.9,266.1,315.2,266.5z"/>
	<path class="st41" d="M312.7,266.6c0,0,1.3,0.5,1.3-0.1C314,265.9,312.9,266.5,312.7,266.6z"/>
	<path class="st41" d="M316.9,265.5c0,0,1.7,0.5,1.6-0.3C318.6,264.4,317.3,265.2,316.9,265.5z"/>
	<path class="st41" d="M314.7,265.5c0,0,1.5-0.1,1.3-0.5C315.8,264.4,315,264.7,314.7,265.5z"/>
	<path class="st41" d="M316.6,261.3c0,0,1.3-0.1,1.1-0.6C317.5,260.1,317,260.5,316.6,261.3z"/>
	<path class="st41" d="M314.4,261.8c0,0,1.3-0.1,1.1-0.6C315.3,260.6,314.8,261,314.4,261.8z"/>
	<path class="st41" d="M312.5,263.4c0,0,1.3-0.4,1-0.9C313.1,262.1,312.6,263.2,312.5,263.4z"/>
	<path class="st41" d="M315.3,259.9c0,0,1.6-0.6,1.2-1.3C316,258,315.4,259.4,315.3,259.9z"/>
	<path class="st41" d="M313.4,261.3c0,0,1.2-1,0.8-1.2C313.7,259.7,313.3,260.5,313.4,261.3z"/>
	<path class="st41" d="M311.2,256.6c0,0,0.7-1.1,0.2-1.3S310.9,255.8,311.2,256.6z"/>
	<path class="st41" d="M310.2,258.7c0,0,0.7-1.1,0.2-1.3C310,257.2,309.9,257.9,310.2,258.7z"/>
	<path class="st41" d="M310.2,261.3c0,0,0.6-1.3,0-1.3C309.6,259.9,310.1,261.1,310.2,261.3z"/>
	<path class="st41" d="M309.4,256.8c0,0,0.6-1.7-0.2-1.8C308.5,255,309.1,256.4,309.4,256.8z"/>
	<path class="st41" d="M309.2,259.2c0,0,0-1.6-0.4-1.5C308.3,257.9,308.6,258.7,309.2,259.2z"/>
	<path class="st41" d="M304.8,257.7c0,0-0.3-1.3-0.7-1.1C303.6,256.9,304,257.4,304.8,257.7z"/>
	<path class="st41" d="M305.5,259.9c0,0-0.3-1.3-0.7-1.1C304.3,259.1,304.8,259.6,305.5,259.9z"/>
	<path class="st41" d="M307.4,261.7c0,0-0.5-1.3-0.9-0.9C306,261.2,307.1,261.6,307.4,261.7z"/>
	<path class="st41" d="M303.7,259.3c0,0-0.8-1.6-1.3-1C301.8,258.8,303.2,259.2,303.7,259.3z"/>
	<path class="st41" d="M305.2,261c0,0-1.1-1.1-1.3-0.7C303.7,260.9,304.5,261.2,305.2,261z"/>
	<path class="st32" d="M312.2,267.4l0.1,0l-1-0.9l-0.1,0l0,0.5c0.4,4.5,1,10.7,1.7,17.3h0.8C313.3,278.4,312.7,272.6,312.2,267.4z"
		/>
	<path class="st32" d="M311.3,267c0,1.8,7.8,2.4,13.1,2.5v-0.9c-7.3-0.2-11.7-1-12.2-1.6c0,0,0,0,0,0l-0.8-0.3
		C311.4,266.8,311.3,266.9,311.3,267z"/>
	<path class="st42" d="M297.6,269c0,0-2.8-6.3,2.3-13c5-6.6,14.4-3.5,14.4-3.5S296.8,248.3,297.6,269z"/>
	<g>
		<g>
			<path class="st3" d="M259.7,173.7c-4-0.5-5.1,3-5.1,3l-7.6-7.5c0,0-8.4-3-13.2,3.7c-3.4,5.5-2.1,15,5.4,17.6
				c7.5,2.7,10.9-0.6,12.9-2.4c2.2,0.1,5.9,1,9.7-3C265.7,181.3,264,174.4,259.7,173.7z"/>
			<path class="st4" d="M262.5,175.4c1.9,7.6-5.2,10-6.7,5.9c-4.8,6.6-16.7,9.1-23,2.7c1,3,3.1,5.5,6.5,6.7
				c7.5,2.7,10.9-0.6,12.9-2.4c2.2,0.1,5.9,1,9.7-3C264.7,182.4,264.5,177.8,262.5,175.4z"/>
			<path class="st5" d="M259.8,173.3c-1.1-0.1-2,0-2.7,0.3c-2.2,0.8-2.1,3.3-2.1,3.3c0-0.1,1-3.2,4.6-2.7c1.7,0.3,3,1.7,3.6,3.6
				c0.7,2.5,0.1,5.3-1.7,7.2c-3.2,3.3-6.2,3.1-8.5,2.9c-0.3,0-0.6-0.1-0.9-0.1l-0.2,0l-0.3,0.3c-2.1,1.8-5.3,4.6-12.3,2.1
				c-3-1.1-5.3-3.4-6.3-6.6c-1.1-3.5-0.7-7.5,1.1-10.4c4.5-6.4,12.6-3.6,12.7-3.6c0,0-2.6-1.8-6-1.4c-2.5,0.3-5.3,1.5-7.4,4.5
				c-2,3.2-2.4,7.4-1.2,11.2c1.1,3.4,3.5,6,6.8,7.1c2.1,0.7,3.9,1,5.4,1c3.9,0,6.2-2,7.7-3.3l0.1-0.1c0.2,0,0.5,0,0.7,0.1
				c2.2,0.2,5.6,0.5,9.1-3.1c2-2.1,2.8-5.2,1.9-8.1C263.4,175.2,261.8,173.6,259.8,173.3z"/>
		</g>
		<g>
			<path class="st5" d="M251.1,188.6l0.5,0.7c2.1-1.5,4.1-5.6,4.2-5.8C255.7,183.6,253,187.3,251.1,188.6z"/>
		</g>
	</g>
	<path class="st43" d="M240.7,175.4c-2.5,0.7-4.8,0.3-5.1-1c-0.3-1.2,1.5-2.8,4-3.5c2.5-0.7,4.8-0.3,5.1,1
		C245,173.1,243.2,174.7,240.7,175.4z"/>
</g>
</svg>
