<svg width="72" height="53" viewBox="0 0 72 53" fill="none" xmlns="http://www.w3.org/2000/svg">
<path d="M9.85854 42.1379C9.86795 42.1285 9.87422 42.1191 9.88362 42.1097C9.89929 42.0941 9.9181 42.0784 9.93378 42.0627C9.98707 42.0126 10.0372 41.9624 10.0936 41.9122C10.1093 41.8966 10.125 41.884 10.1407 41.8684C10.3476 41.6834 10.5701 41.5016 10.8084 41.3166C10.824 41.3072 10.8366 41.2947 10.8523 41.2853C10.9181 41.2351 10.9871 41.185 11.056 41.1348C11.0905 41.1097 11.1219 41.0878 11.1563 41.0627C11.219 41.0188 11.2817 40.9718 11.3476 40.9279C11.3914 40.8966 11.4353 40.8684 11.4792 40.837C11.5388 40.7963 11.6015 40.7555 11.661 40.7148C11.7143 40.6803 11.7676 40.6427 11.824 40.6082C11.8805 40.5706 11.9369 40.5361 11.9933 40.4985C12.0686 40.4514 12.1469 40.4013 12.2222 40.3543C12.2629 40.3292 12.3005 40.3041 12.3413 40.279C12.4604 40.2038 12.5827 40.1317 12.708 40.0565C12.7457 40.0345 12.7833 40.0126 12.8178 39.9906C12.9118 39.9342 13.0027 39.8778 13.0999 39.8214C13.1469 39.7931 13.1908 39.7681 13.2378 39.7398C13.3256 39.6866 13.4165 39.6364 13.5074 39.5831C13.5576 39.5549 13.6077 39.5235 13.6579 39.4953C13.7488 39.442 13.8397 39.3919 13.9306 39.3386C13.9839 39.3072 14.0372 39.2759 14.0905 39.2446C14.1751 39.1975 14.2598 39.1474 14.3444 39.1004C14.545 38.9844 14.7488 38.8684 14.9588 38.7493C15.2911 38.5612 15.6265 38.3668 15.9713 38.1725C15.9776 38.1693 15.9807 38.1662 15.9839 38.1631C16.3287 37.9656 16.6798 37.7618 17.0372 37.5518C13.7112 34.8778 11.6234 31.6365 10.824 27.9061C10.0404 24.2478 9.78017 18.9877 12.9964 14.7024C14.3789 12.8623 16.0058 11.7369 17.1281 11.1194C18.3694 10.436 19.686 9.9846 20.6516 9.91564C20.7205 9.90937 20.8052 9.90937 20.8992 9.90937C23.1468 9.93445 27.943 11.2511 31.758 16.0128C32.5574 16.3513 33.3819 17.2479 34.4508 18.6491C34.4508 18.6491 34.4508 18.6522 34.4539 18.6522C34.501 18.7118 34.5449 18.7714 34.5919 18.8341C34.5981 18.8435 34.6044 18.8497 34.6107 18.8591C34.6546 18.9187 34.7016 18.9783 34.7486 19.041C34.7518 19.0472 34.758 19.0535 34.7643 19.0598C34.9618 19.3231 35.1687 19.6052 35.385 19.8999C35.3881 19.903 35.3912 19.9062 35.3944 19.9124C35.6138 20.2134 35.8458 20.5331 36.0872 20.8654C36.2627 21.1068 36.4414 21.3513 36.6232 21.6021C36.8489 21.9124 37.0809 22.229 37.3223 22.5582C37.3223 22.5613 37.3254 22.5613 37.3254 22.5644C37.3944 22.6585 37.4665 22.7525 37.5417 22.8466C37.5762 22.8905 37.6107 22.9343 37.6451 22.9782C37.6734 23.0127 37.7016 23.0472 37.7298 23.0817C38.5762 24.1287 39.7611 25.3262 41.2031 26.6052C41.2188 26.6208 41.2376 26.6334 41.2533 26.649C45.6137 21.0315 43.2846 15.4172 42.9398 14.6648C42.921 14.6209 42.9053 14.5959 42.9022 14.5833C42.8175 14.4297 41.0652 11.2887 37.4414 8.09434C34.3787 5.40157 29.4759 2.24172 22.6578 1.27308C22.15 1.20098 21.6265 1.16023 21.0936 1.15709C16.7519 1.10693 11.8836 3.30441 8.06232 7.03165C3.88053 11.11 1.43855 16.4234 1.18777 21.9908C0.971467 26.7776 1.73322 31.1067 3.44794 34.859C4.82096 37.8527 6.80214 40.4922 9.34444 42.7116C9.36011 42.6897 9.37892 42.6709 9.3946 42.6489C9.42281 42.6144 9.45416 42.5768 9.48237 42.5423C9.52626 42.4922 9.56701 42.442 9.61403 42.3919C9.63911 42.3636 9.66732 42.3354 9.69553 42.3041C9.74882 42.2477 9.80212 42.1944 9.85854 42.1379ZM12.9808 37.6678C13.009 36.5675 13.7206 37.4421 13.7206 37.4421C13.7206 37.4421 14.0623 38.4295 13.8146 38.5455C13.8146 38.5455 12.9526 38.7681 12.9808 37.6678ZM10.5576 35.6427C11.0278 35.5549 11.3852 37.2446 10.4541 36.58C10.4541 36.5769 10.0874 35.7305 10.5576 35.6427ZM40.2407 23.5049C39.9053 23.9437 39.689 23.4986 39.689 23.4986C39.689 23.4986 39.363 22.8309 39.9179 22.8372C40.4696 22.8434 40.5762 23.066 40.2407 23.5049ZM39.9837 13.9313C40.4445 13.9375 41.3598 14.6397 40.6639 15.0943C39.968 15.5488 39.7454 14.7369 39.7454 14.7369C39.7454 14.7369 39.5229 13.9281 39.9837 13.9313ZM38.9962 18.1914C39.1686 18.135 39.4947 18.3168 39.5918 18.5143C39.7266 18.7902 39.7956 19.1099 39.3505 19.0598C39.3505 19.0598 38.8144 18.8999 38.7423 18.5143C38.7078 18.3325 38.8426 18.2385 38.9962 18.1914ZM36.758 9.831C37.2188 9.83727 37.5605 10.1852 37.4414 10.5301C37.3818 10.7025 37.2063 10.8153 37.0495 10.8874C36.8897 10.9564 36.6514 10.7464 36.595 10.4862C36.526 10.1727 36.5072 9.82787 36.758 9.831ZM34.3693 15.3701C34.7204 14.856 35.6985 15.3419 35.5166 16.0316C35.4414 16.3231 35.4477 16.5206 35.0496 16.414C35.0527 16.4172 34.0182 15.8874 34.3693 15.3701ZM31.595 10.5896C31.1091 11.1006 30.8239 10.8906 30.8239 10.8906L30.6765 10.3514C30.6765 10.3514 30.7581 9.96893 31.1436 9.97206C31.5261 9.9752 31.9054 10.2667 31.595 10.5896ZM30.0182 5.68057C30.0182 5.68057 30.4602 5.35768 30.7581 5.58966C31.0559 5.82163 31.1405 6.07868 30.8239 6.1163C30.5073 6.15705 29.9524 6.00972 30.0182 5.68057ZM27.1593 3.7182C27.1593 3.7182 27.8082 4.20095 27.5763 4.89374C27.3474 5.58652 26.8615 5.07869 26.6045 4.45801C26.3537 3.83732 27.1593 3.7182 27.1593 3.7182ZM25.059 6.64607C25.3662 6.57397 25.6766 6.42037 25.6766 6.42037C25.6766 6.42037 25.8239 6.95955 25.592 7.03478C25.36 7.11002 25.128 7.10689 25.128 7.10689C25.128 7.10689 24.7518 6.71817 25.059 6.64607ZM19.6954 4.68057C19.9619 4.63042 20.2033 4.62728 20.3882 4.63982C20.6202 4.6555 20.9117 4.93135 20.9838 5.17273C21.0559 5.41097 21.0528 5.64922 20.755 5.64608C20.1594 5.63981 19.5701 5.27618 19.5701 5.27618C19.5701 5.27618 19.0998 4.79342 19.6954 4.68057ZM17.4917 7.36394C18.1281 7.7213 18.1281 7.7213 18.1281 7.7213C18.1281 7.7213 18.5419 8.62411 17.7049 8.69621C16.8679 8.76831 16.8553 7.00344 17.4917 7.36394ZM2.69559 23.7807C2.46048 24.0848 2.23164 24.0848 1.92757 23.5425C1.92757 23.5425 1.81159 23.276 2.31628 23.1632C2.31942 23.16 2.9307 23.4735 2.69559 23.7807ZM13.2754 5.10063C13.4573 5.02226 13.6798 4.94703 13.8428 4.94389C14.0309 4.94076 14.0403 5.13825 14.0152 5.30439C13.9964 5.42978 13.8272 5.59279 13.661 5.65862C13.5011 5.72132 13.3068 5.79342 13.1626 5.84671C12.9964 5.90627 12.9526 5.70878 12.9432 5.52696C12.9369 5.38903 13.0936 5.179 13.2754 5.10063ZM10.1375 8.35766C10.1595 8.12882 10.382 8.226 10.5137 8.46738C10.5137 8.46738 10.7645 9.10687 10.2222 9.13508C9.67672 9.16643 10.1156 8.58963 10.1375 8.35766ZM9.75823 12.7871C10.2974 12.7934 9.83033 13.1727 9.83033 13.1727L9.9808 13.5582C9.78958 13.9344 9.59522 13.7087 9.59522 13.7087C9.59522 13.7087 9.21905 12.784 9.75823 12.7871ZM5.08115 27.7149C5.08115 27.7149 4.60467 28.3481 4.45733 27.8246C4.31 27.3011 5.36328 26.8309 5.08115 27.7149ZM4.52003 18.6648C4.52003 18.6648 4.9056 19.4798 4.52943 19.5927C4.15012 19.7024 3.77082 18.1131 4.52003 18.6648ZM5.34761 32.439C5.27237 33.022 4.10624 32.8747 4.38523 31.9311C4.48868 31.5769 5.41971 31.8528 5.34761 32.439ZM5.93694 15.041C5.67362 14.9877 5.81469 14.7401 6.11563 14.6209C6.11563 14.6209 6.88991 14.414 6.8523 15.0473C6.81468 15.6773 6.20026 15.0943 5.93694 15.041ZM7.62345 35.4013C7.28803 35.8402 7.07173 35.3951 7.07173 35.3951C7.07173 35.3951 6.74571 34.7273 7.30057 34.7336C7.85229 34.7399 7.95887 34.9625 7.62345 35.4013ZM7.84288 25.229C7.78959 25.9563 7.19399 25.5832 6.79587 25.0409C6.57017 24.7337 6.71437 24.5017 6.88051 24.3575C7.00903 24.2478 7.33819 24.2666 7.51687 24.4359C7.69868 24.6052 7.8711 24.8654 7.84288 25.229ZM7.97454 19.5582C7.97454 19.5582 7.98081 18.925 8.26921 18.8685C8.55761 18.8153 8.95886 19.2228 8.72375 19.508C8.48865 19.7964 7.97454 19.5582 7.97454 19.5582ZM9.04977 39.2978C8.45416 39.0941 8.45416 39.0941 8.45416 39.0941C8.45416 39.0941 8.16263 38.4953 8.75824 38.5988C9.35384 38.7054 9.64224 39.5016 9.04977 39.2978ZM9.00275 32.0377C8.77391 31.881 8.87109 31.4139 8.99961 31.3418C9.26607 31.1913 9.67672 31.0816 9.69553 31.812C9.70807 32.1976 9.23159 32.1913 9.00275 32.0377Z" fill="#BE7539"/>
<path d="M60.5605 40.6781C60.5261 40.6592 60.4884 40.6404 60.454 40.6216C60.432 40.6091 60.4101 40.5965 60.385 40.5871C60.3348 40.5589 60.2816 40.5307 60.2283 40.5056C60.222 40.5025 60.2189 40.4994 60.2126 40.4994C59.9054 40.3395 59.5762 40.1671 59.2251 39.9821C59.037 39.885 58.8396 39.7815 58.6358 39.6749C58.6013 39.6561 58.5637 39.6373 58.5292 39.6185C58.5229 39.6154 58.5198 39.6122 58.5135 39.6122C57.3568 39.0104 56.0057 38.2894 54.407 37.3583L54.0684 37.164L54.0716 37.1608C52.6202 36.3082 50.9713 35.2831 49.0873 34.0167C41.6077 28.9916 38.1626 25.5622 36.5796 23.5058C36.5764 23.5026 36.5733 23.4964 36.5701 23.4932C36.5043 23.4086 36.4416 23.324 36.3821 23.2425C36.0341 22.7691 35.7081 22.3208 35.3946 21.8882C35.31 21.7723 35.2253 21.6563 35.1438 21.5434C33.4385 19.1892 32.0906 17.3271 31.2254 17.0482L31.1815 17.0325C31.1376 17.0231 31.0937 17.0137 31.0498 17.0137C30.9934 17.0137 30.821 17.0105 30.5545 17.3021C30.3633 17.5748 28.3727 20.534 28.3288 24.5998C28.31 26.2581 28.5702 27.6844 29.1 28.8662L29.1063 28.8788C29.1439 28.9603 29.1815 29.0387 29.2191 29.117C29.2316 29.139 29.2411 29.164 29.2536 29.186C29.2912 29.2612 29.3288 29.3333 29.3696 29.4054C29.3821 29.4305 29.3978 29.4556 29.4103 29.4775C29.5326 29.6875 29.6611 29.8913 29.8022 30.0825C29.8335 30.1264 29.868 30.1703 29.8994 30.2142C29.9307 30.2581 29.9652 30.2988 29.9997 30.3396C30.0436 30.3929 30.0874 30.4462 30.1313 30.4963C30.1595 30.5277 30.1878 30.5621 30.216 30.5935C30.2912 30.6781 30.3696 30.7596 30.4479 30.838C30.4511 30.8411 30.4573 30.8443 30.4605 30.8505C30.589 30.9791 30.7238 31.1076 30.8555 31.233C32.6768 32.9822 36.9871 36.8536 43.9149 41.5715L43.9306 41.5683L44.15 41.7157C48.8647 44.8943 53.1311 47.3614 55.2534 48.5495L55.6076 48.747C55.8302 48.8692 56.0559 48.9946 56.2816 49.12C57.153 49.5965 57.8302 49.935 58.6421 49.9444C59.2377 49.9507 59.8866 49.7783 60.6326 49.4147C63.8991 47.8253 64.0621 44.1702 63.664 43.2799C63.1969 42.2298 62.2627 41.5903 60.5605 40.6781ZM31.1752 25.5246C31.0749 25.7346 30.9401 25.8976 30.8022 25.7001C30.542 25.3365 30.5608 24.7785 30.9965 24.8945C31.0906 24.9196 31.2724 25.3208 31.1752 25.5246ZM31.7081 21.4901C31.7081 21.4901 31.658 20.766 32.0968 21.1108C32.0968 21.1108 32.7081 21.4243 32.4761 21.7315C32.241 22.0356 32.0091 22.0324 31.7081 21.4901ZM33.2285 29.8913C33.1313 30.2643 32.567 30.2581 32.567 30.2581C32.567 30.2581 32.2034 29.2236 32.6736 29.1327C33.1438 29.0449 33.3257 29.5183 33.2285 29.8913ZM35.0811 26.1703C34.9181 25.65 34.2598 24.9885 35.1689 25.0575C35.1689 25.0575 35.846 25.5183 35.8209 25.8192C35.7959 26.1233 35.2441 26.6907 35.0811 26.1703ZM35.7959 32.2643C35.6485 31.7408 36.4103 31.7252 36.4197 32.1546C36.4197 32.1546 35.9463 32.7878 35.7959 32.2643ZM39.94 34.0104C39.94 34.0104 38.7237 34.6624 38.846 33.1954C38.8805 32.769 39.7363 33.2361 39.7363 33.2361C39.7363 33.2361 40.0748 33.07 40.241 33.3427C40.6892 34.0762 39.94 34.0104 39.94 34.0104ZM43.7488 39.1702C43.7488 39.1702 43.3726 38.4743 43.9086 38.5558C44.4478 38.6405 44.4353 39.794 43.7488 39.1702ZM44.4854 36.3364C44.4854 36.3364 43.567 36.3364 43.429 35.8505C43.2911 35.3646 43.7394 35.1044 44.1751 35.2424C44.6077 35.3803 45.1124 35.7627 45.0936 36.1608C45.0748 36.5621 44.4854 36.3364 44.4854 36.3364ZM47.8773 41.7501C47.7174 41.957 47.4729 41.9915 47.2879 41.979C47.1375 41.9696 47.0121 41.7815 47.0215 41.5997C47.0403 41.2956 47.1186 40.8912 47.4133 40.8944C47.8867 40.8975 48.1657 41.374 47.8773 41.7501ZM49.1751 37.5057C48.755 37.6781 48.6453 37.2831 48.6453 37.2831C48.6453 37.2831 48.8052 36.7815 48.9399 36.7094C49.2189 36.559 49.3381 36.722 49.3851 36.9257C49.4321 37.1295 49.244 37.4775 49.1751 37.5057ZM51.1249 40.1357C51.1249 40.1357 51.0308 39.5276 51.4352 39.5339C51.8396 39.537 52.0246 40.9539 51.1249 40.1357ZM53.3255 44.6623C52.6358 44.4241 52.6358 44.4241 52.6358 44.4241C52.6358 44.4241 52.0685 43.6091 52.8772 43.3865C53.686 43.1671 54.0151 44.9006 53.3255 44.6623ZM55.6828 41.1671C55.6828 41.1671 55.6891 40.7345 56.0496 40.7376C56.4101 40.7407 56.4759 41.2486 56.1875 41.3175C55.896 41.3834 55.6828 41.1671 55.6828 41.1671ZM57.1844 45.5652C56.9399 45.7721 56.2785 45.1514 56.2785 45.1514C56.081 44.7439 56.7894 44.5495 57.1907 44.7564C57.595 44.9633 57.1844 45.5652 57.1844 45.5652ZM58.5355 48.0981C57.8584 47.9539 58.5574 47.6216 58.7173 47.4899C58.8772 47.3583 59.0527 47.1733 59.3913 47.6372C59.3944 47.6341 59.2126 48.2391 58.5355 48.0981ZM59.7267 43.9664C59.4947 43.6749 59.8333 43.4304 60.059 43.4335C60.2847 43.4367 60.432 44.0448 60.432 44.0448C60.432 44.0448 60.1562 44.5025 59.7267 43.9664Z" fill="#BE7539"/>
<path d="M70.6323 19.1293C69.8957 12.2955 66.3596 8.09495 63.5227 5.77522C59.6951 2.64672 55.4632 1.49939 52.7798 1.47118C52.4538 1.46804 52.1372 1.48058 51.8362 1.50566C45.0118 2.12321 40.9084 5.06049 38.595 7.58398C38.6953 7.67489 38.7956 7.7658 38.8896 7.8567C39.0088 7.96642 39.1247 8.07927 39.2376 8.18899C39.2533 8.20466 39.2689 8.22034 39.2846 8.23601C39.3693 8.31752 39.4539 8.40215 39.5354 8.48366C39.5699 8.51814 39.6012 8.54949 39.6357 8.58397C39.6984 8.64667 39.7611 8.7125 39.8238 8.77519C39.8677 8.81908 39.9116 8.8661 39.9555 8.90999C40.0056 8.96014 40.0526 9.0103 40.1028 9.06046C40.153 9.11375 40.2031 9.16704 40.2533 9.2172C40.294 9.25795 40.3348 9.30183 40.3724 9.34259C40.4257 9.39901 40.479 9.45857 40.5323 9.515C40.5667 9.55262 40.5981 9.5871 40.6326 9.62472C40.689 9.68428 40.7423 9.74697 40.7956 9.80653C40.8238 9.83788 40.852 9.86923 40.8802 9.90057C40.9366 9.96327 40.9899 10.026 41.0464 10.0887C41.0714 10.1169 41.0965 10.1451 41.1185 10.1733C41.1749 10.2391 41.2282 10.3018 41.2815 10.3645C41.3034 10.3896 41.3254 10.4147 41.3442 10.4398C41.4006 10.5056 41.4539 10.5683 41.5072 10.631C41.526 10.6529 41.5448 10.678 41.5636 10.6999C41.6169 10.7658 41.6702 10.8285 41.7203 10.8912C41.736 10.9131 41.7548 10.935 41.7705 10.9539C41.8207 11.0166 41.8708 11.0792 41.921 11.1419C41.9366 11.1608 41.9523 11.1827 41.968 11.2015C42.0181 11.2642 42.0652 11.3238 42.1122 11.3865C42.1279 11.4053 42.1435 11.4241 42.1561 11.446C42.2031 11.5056 42.247 11.5651 42.2909 11.6247C42.3065 11.6435 42.3191 11.6623 42.3348 11.6811C42.3786 11.7375 42.4225 11.7971 42.4633 11.8504C42.4758 11.8692 42.4915 11.888 42.504 11.9068C42.5448 11.9633 42.5855 12.0165 42.6232 12.0698C42.6357 12.0886 42.6514 12.1075 42.6639 12.1263C42.7015 12.1796 42.7391 12.2297 42.7736 12.2799C42.7862 12.2987 42.7987 12.3175 42.8112 12.3363C42.8457 12.3864 42.8802 12.4335 42.9147 12.4805C42.9272 12.4993 42.9398 12.5181 42.9523 12.5369C42.9836 12.5839 43.015 12.6278 43.0463 12.6717C43.0589 12.6905 43.0714 12.7093 43.084 12.7281C43.1122 12.7689 43.1404 12.8128 43.1686 12.8535C43.1811 12.8723 43.1937 12.8911 43.2062 12.91C43.2313 12.9476 43.2564 12.9852 43.2815 13.0228C43.294 13.0416 43.3065 13.0604 43.3191 13.0824C43.341 13.1168 43.363 13.1482 43.3849 13.1827C43.3974 13.2046 43.41 13.2234 43.4257 13.2454C43.4445 13.2736 43.4633 13.3018 43.4789 13.33C43.4915 13.352 43.5072 13.3739 43.5197 13.3958C43.5354 13.4209 43.5479 13.4429 43.5636 13.4648C43.5793 13.4868 43.5918 13.5087 43.6043 13.5306C43.6169 13.5494 43.6263 13.5683 43.6388 13.5839C43.6545 13.609 43.667 13.631 43.6827 13.6529C43.689 13.6654 43.6984 13.678 43.7046 13.6905C43.7203 13.7187 43.736 13.7438 43.7485 13.7657C43.7517 13.772 43.7548 13.7783 43.7579 13.7846C43.7736 13.8128 43.7893 13.8378 43.805 13.8629C43.805 13.8629 43.805 13.8661 43.8081 13.8661C43.8677 13.9695 43.9021 14.0322 43.9084 14.0479L43.9147 14.0573C43.9272 14.0792 44.0213 14.2673 44.1498 14.5933C46.1748 13.0259 49.0745 11.3865 51.2657 10.9539C51.8237 10.8441 52.3817 10.7908 52.924 10.7971C55.3723 10.8222 57.6168 12.051 59.2374 14.2516C60.7515 16.308 61.6105 19.0196 61.6543 21.8879C61.7484 28.1261 59.8519 33.1888 56.0118 36.9505C57.2907 37.6715 58.3973 38.2546 59.3409 38.7436C59.4004 38.7749 59.46 38.8063 59.5196 38.8345C59.5352 38.8408 59.5478 38.8502 59.5635 38.8564C59.6324 38.8909 59.6982 38.9254 59.7641 38.9599C60.3848 39.2828 60.9396 39.5712 61.438 39.8439C61.4474 39.8502 61.4537 39.8533 61.4631 39.8596C61.554 39.9097 61.6418 39.9568 61.7264 40.0069C61.7327 40.01 61.739 40.0132 61.7453 40.0163C61.833 40.0665 61.9177 40.1166 62.0023 40.1637C62.018 40.1731 62.0305 40.1825 62.0462 40.1887C62.1152 40.2295 62.1841 40.2702 62.25 40.311C62.2656 40.3204 62.2844 40.3329 62.3001 40.3423C62.3753 40.3894 62.4474 40.4332 62.5195 40.4803C62.5383 40.4928 62.554 40.5022 62.5697 40.5147C62.6261 40.5524 62.6794 40.5868 62.7358 40.6245C62.7578 40.637 62.7766 40.6527 62.7985 40.6652C62.8644 40.7091 62.9271 40.7561 62.9898 40.8C63.0054 40.8094 63.018 40.8219 63.0336 40.8314C63.0838 40.869 63.134 40.9035 63.181 40.9411C63.1998 40.9567 63.2186 40.9693 63.2374 40.985C63.297 41.032 63.3565 41.079 63.4129 41.126C63.4192 41.1323 63.4286 41.1386 63.4349 41.1448C63.4851 41.1887 63.5352 41.2326 63.5854 41.2765C63.5979 41.289 63.6136 41.3016 63.6261 41.3141C63.739 41.4176 63.8424 41.521 63.9427 41.6307C63.9459 41.6339 63.9521 41.6401 63.9553 41.6433C66.7233 38.7436 71.9646 31.5023 70.6323 19.1293ZM43.2532 10.2736C42.8771 10.3865 42.4978 8.79714 43.2438 9.34572C43.247 9.34886 43.6294 10.1639 43.2532 10.2736ZM46.0056 4.96645C45.6075 5.12005 45.1247 5.67177 45.1341 4.95704C45.1341 4.95704 45.457 4.40532 45.6952 4.40846C45.9335 4.40846 46.4037 4.81284 46.0056 4.96645ZM48.4287 9.11375C48.4287 9.11375 47.5447 9.80653 47.341 9.5965C47.341 9.5965 46.8112 8.80027 47.9397 8.44291C49.0682 8.08241 48.4287 9.11375 48.4287 9.11375ZM50.6858 5.91315C49.9961 5.6749 49.9961 5.6749 49.9961 5.6749C49.9961 5.6749 49.4287 4.85986 50.2375 4.63729C51.0494 4.41473 51.3786 6.15139 50.6858 5.91315ZM54.1309 4.30501C53.7861 4.30187 53.4412 3.95078 53.4412 3.95078C53.4412 3.95078 53.5635 3.37398 54.1403 3.38025C54.7171 3.38966 54.4757 4.30814 54.1309 4.30501ZM55.25 7.43351C54.8989 8.00717 54.3284 7.42411 54.3284 7.42411C54.3284 7.42411 54.3378 6.61533 55.0306 6.39277C55.7265 6.1702 55.6011 6.85985 55.25 7.43351ZM58.7139 7.23915C59.2907 7.12944 59.8613 7.94448 58.7077 7.93194C58.7077 7.93194 58.1371 7.34887 58.7139 7.23915ZM59.7359 12.1263C59.7359 12.1263 58.5823 12.1137 59.1685 11.3112C59.7547 10.5087 59.4036 10.8535 59.8613 11.3175C60.3189 11.7877 59.7359 12.1263 59.7359 12.1263ZM59.5948 38.0571C59.5948 38.0571 59.5227 37.6025 59.6011 37.3768C59.6794 37.1511 60.087 37.2546 60.0337 37.7279C60.018 37.8627 60.0493 37.9881 60.0493 38.0634C60.0462 38.2922 59.5948 38.0571 59.5948 38.0571ZM61.9271 35.2138C61.576 35.7875 61.2343 35.3204 61.2343 35.3204C61.2343 35.3204 60.5509 34.6214 61.2437 34.3957C61.9396 34.1762 62.2782 34.6433 61.9271 35.2138ZM67.8142 24.7343C68.391 24.8566 68.1465 26.007 67.228 25.6528C66.8863 25.5211 67.2374 24.6152 67.8142 24.7343ZM66.9176 13.6372C67.3032 13.5651 67.5164 15.1827 66.8298 14.5588C66.8298 14.562 66.532 13.7125 66.9176 13.6372ZM64.7672 13.2297C65.3064 13.3112 65.2938 14.4679 64.6073 13.8441C64.6042 13.8441 64.228 13.1482 64.7672 13.2297ZM63.8048 37.7154C63.1872 37.5022 63.1872 37.5022 63.1872 37.5022C63.1872 37.5022 62.8832 36.8784 63.5039 36.9881C64.1214 37.101 64.4223 37.9317 63.8048 37.7154ZM64.1496 28.9694C63.9145 29.2546 63.4004 29.0195 63.4004 29.0195C63.4004 29.0195 63.4067 28.3863 63.6951 28.3299C63.9835 28.2766 64.3816 28.6841 64.1496 28.9694ZM64.228 9.60904L63.764 9.83475C63.764 9.83475 63.0807 9.13569 63.6606 8.67801C64.2437 8.22347 64.228 9.60904 64.228 9.60904ZM65.0399 32.1637C65.0368 32.3361 65.0336 32.6841 64.8048 32.6809C64.5728 32.6778 64.576 32.449 64.576 32.449C64.576 32.449 64.6418 31.7562 64.8706 31.7593C65.1026 31.7593 65.0399 31.9913 65.0399 32.1637ZM65.3722 22.96C65.1371 23.2641 64.9051 23.3393 64.6763 23.1826C64.4474 23.0259 64.4506 22.6403 64.4506 22.6403L64.6073 22.5149C64.6073 22.5149 64.8926 22.2766 65.159 22.4303C65.3502 22.5431 65.507 22.7813 65.3722 22.96ZM66.5446 19.4052C66.5446 19.4052 66.2436 18.7876 66.7828 18.7155C67.322 18.6434 66.9302 19.2547 66.927 19.4867C66.927 19.7155 66.6982 19.6372 66.5446 19.4052ZM67.5289 34.8157L66.8393 34.6935C66.8393 34.6935 66.8455 34.1167 67.3063 34.1229C67.7672 34.1261 67.5289 34.8157 67.5289 34.8157ZM68.4913 29.7625C68.2562 30.0477 68.0744 30.2045 67.7922 30.2734C67.1653 30.4302 67.159 30.0352 67.159 30.0352C67.159 30.0352 67.6261 29.4647 67.974 29.4083C68.322 29.3581 68.7232 29.4772 68.4913 29.7625ZM69.6543 21.9161C69.4192 22.2202 69.1903 22.2202 68.8863 21.6779L69.275 21.2986C69.2781 21.2955 69.8894 21.6089 69.6543 21.9161Z" fill="#BE7539"/>
<path d="M35.4604 43.7033C32.9557 43.6751 30.5419 43.393 28.2849 42.8632L27.7551 43.2958C27.5169 43.4902 27.2849 43.6783 27.0592 43.8632C27.0372 43.882 27.0153 43.9008 26.9902 43.9165C26.8962 43.9917 26.8021 44.067 26.7112 44.1422C26.6423 44.1986 26.5733 44.2519 26.5075 44.3084C26.4761 44.3334 26.4479 44.3585 26.4166 44.3836C26.3413 44.4463 26.2629 44.5058 26.1877 44.5685L26.1846 44.5717C24.0279 46.3115 22.404 47.5591 20.4636 48.7472C23.4573 50.0544 28.4134 51.4682 36.0716 51.7127C36.1876 51.7158 36.3036 51.719 36.4259 51.719C40.5073 51.7628 47.8302 50.5998 50.4477 49.8161C50.7518 49.7252 51.0997 49.6312 51.4665 49.534C52.0746 49.371 52.78 49.1798 53.5793 48.9259C51.153 47.5403 47.5982 45.4212 43.7236 42.8193C41.3945 43.4055 38.3318 43.7347 35.4604 43.7033ZM24.9025 47.929C24.7865 47.9666 24.5953 47.8475 24.5169 48.0011C24.4385 48.1547 24.288 47.7284 24.288 47.7284C24.288 47.7284 24.6768 47.2331 24.9056 47.4275C25.1376 47.6218 25.0184 47.8914 24.9025 47.929ZM28.473 49.5215L27.5294 49.6155C27.5294 49.6155 27.4385 48.4651 27.9589 48.4682C28.4855 48.4776 28.473 49.5215 28.473 49.5215ZM28.8052 46.7347C28.7896 46.8287 28.6015 46.8413 28.4071 46.7692C28.1626 46.6782 27.8523 46.5623 27.7112 46.4964C27.4604 46.3773 27.9526 45.9949 27.9526 45.9949C27.9526 45.9949 28.4949 46.1516 28.7081 46.3554C28.8209 46.4682 28.8241 46.6218 28.8052 46.7347ZM32.1281 45.4431C32.0466 45.067 32.2002 44.8914 32.8083 45.0137L32.846 45.556C32.846 45.5591 32.2096 45.8193 32.1281 45.4431ZM34.4949 49.3177C34.2409 49.7534 33.5826 49.4839 33.6986 49.0857C33.7488 48.9165 33.8491 48.8005 33.9525 48.7221C34.0905 48.6155 34.3601 48.6563 34.4572 48.7848C34.5544 48.9165 34.6202 49.1014 34.4949 49.3177ZM36.3569 47.0638C36.3569 47.0638 35.8836 46.7409 36.2817 46.6657C36.6798 46.5905 36.8334 46.9102 36.8334 46.9102C36.8334 46.9102 36.4321 47.4619 36.3569 47.0638ZM39.9368 49.9792C39.7644 50.2581 39.5418 50.2644 39.3569 50.1954C39.1625 50.1233 39.0152 49.7817 39.0936 49.5622C39.1782 49.3271 39.3538 49.0544 39.7142 48.9384C40.4133 48.7158 40.291 49.4055 39.9368 49.9792ZM41.0967 46.2895C41.0967 46.2895 40.6484 46.6061 40.3537 46.371C40.0591 46.1359 39.9776 45.8757 40.2942 45.8413C40.6139 45.8068 41.1656 45.9604 41.0967 46.2895ZM47.5919 47.4431C47.5919 47.4431 48.3788 47.0764 48.3631 47.5152C48.3474 47.9541 47.9117 47.6281 47.8145 47.8538C47.7643 47.9666 47.6327 47.9416 47.5104 47.8883C47.385 47.8318 47.5919 47.4431 47.5919 47.4431ZM44.3192 49.0826C44.5606 49.1986 44.8709 49.4118 44.6735 49.6939C44.4195 50.0607 43.3851 49.4964 43.7268 49.1484C43.7926 49.0857 44.1876 49.0199 44.3192 49.0826Z" fill="#BE7539"/>
<path d="M25.8836 43.3227C25.9338 43.282 25.984 43.2412 26.0373 43.2005C26.1062 43.1441 26.1752 43.0876 26.2473 43.0312C26.2755 43.0093 26.3037 42.9873 26.3319 42.9622C26.5576 42.7804 26.7865 42.5923 27.0247 42.4011L27.8366 41.7428C30.1407 39.8714 32.3475 37.8244 34.2441 35.793C33.0372 34.7899 31.8617 33.7617 30.7425 32.7115C30.7143 32.6865 30.6861 32.6583 30.6579 32.6332C30.52 32.5015 30.3789 32.3699 30.2441 32.2382C30.2065 32.2037 30.1689 32.1661 30.1313 32.1316C29.9683 31.9749 29.8052 31.8181 29.6454 31.6583C29.5325 31.5485 29.4259 31.4357 29.3225 31.3197C29.3037 31.3009 29.288 31.279 29.2723 31.2601C29.1846 31.1598 29.0999 31.0564 29.0153 30.9529C29.0027 30.9373 28.9933 30.9216 28.9808 30.9059C28.893 30.7931 28.8084 30.6771 28.7269 30.558C28.7206 30.5486 28.7143 30.5391 28.7081 30.5329C28.6203 30.4044 28.5388 30.2727 28.4573 30.1379V30.1348C26.7927 32.0094 24.9589 33.6363 22.6141 35.3259C21.4009 36.2005 20.216 36.9717 19.0937 37.6645L19.1 37.6676L18.3633 38.1096C17.937 38.3667 17.5264 38.608 17.1251 38.84C17.1157 38.8463 17.1063 38.8494 17.1 38.8557C16.984 38.9215 16.868 38.9905 16.7552 39.0563C16.7207 39.0751 16.6862 39.0971 16.6518 39.1159C16.5734 39.1598 16.495 39.2068 16.4198 39.2507C16.3571 39.2883 16.2944 39.3228 16.2317 39.3604C16.2129 39.3698 16.1941 39.3823 16.1784 39.3917C15.9621 39.5171 15.7458 39.6394 15.5389 39.7554C13.7333 40.7836 12.3352 41.6018 11.354 42.3729C10.7364 42.8588 10.2662 43.3447 9.97782 43.8525L9.94021 43.9184C9.59538 44.5672 9.54209 45.26 9.78974 46.0939C10.3571 48.0124 12.8649 49.7177 15.1565 49.7428C15.8712 49.749 16.5358 49.5986 17.1282 49.2945C17.7301 48.9841 18.2881 48.6832 18.8179 48.3823L18.8774 48.3478C18.9088 48.3321 18.937 48.3133 18.9652 48.2976C21.3727 46.9121 23.1909 45.514 25.7708 43.4262C25.8021 43.3917 25.8429 43.3572 25.8836 43.3227ZM31.7739 34.9372C32.0059 34.9404 32.0247 35.1912 31.9432 35.3416C31.8585 35.5046 31.9369 35.862 31.7081 35.8589C31.4761 35.8557 31.4792 35.6269 31.4792 35.6269C31.4792 35.6269 31.545 34.9341 31.7739 34.9372ZM28.3068 33.6865C28.4259 33.6865 28.5325 33.8056 28.614 33.9372C28.7143 34.094 28.7394 34.3228 28.6767 34.3761C28.5513 34.489 28.3225 34.5955 28.1062 34.2037C28.1062 34.2037 28.0466 33.6833 28.3068 33.6865ZM27.7865 37.2256C28.1062 37.072 28.7614 37.3322 28.9212 37.5548C29.1814 37.9184 28.4228 37.9184 28.4228 37.9184L28.0905 37.862C27.5827 37.746 27.4667 37.3761 27.7865 37.2256ZM12.9496 44.0814C12.8336 44.0406 12.7458 44.0093 12.6769 43.9873C12.4731 43.9184 12.4323 43.8306 12.4198 43.7397C12.4041 43.6143 12.4418 43.4763 12.7145 43.5234C13.191 43.608 13.4229 44.2444 12.9496 44.0814ZM15.6518 45.4889C15.5483 45.7898 15.542 46.1942 15.238 46.2914C14.9339 46.3886 14.5326 46.0813 14.5326 46.0813C14.5326 46.0813 14.6392 45.5766 15.0467 45.1785C15.4574 44.7804 15.7552 45.1879 15.6518 45.4889ZM19.1596 45.4419C19.1094 45.6268 18.9464 45.7208 18.7959 45.7647C18.6423 45.8118 18.4511 45.6707 18.4135 45.4889C18.3477 45.1754 18.31 44.7428 18.6078 44.6864C19.0749 44.5955 19.2567 45.0657 19.1596 45.4419ZM20.4448 42.0751C20.3915 42.2757 20.2066 42.3823 20.0154 42.4419C19.7865 42.5108 19.5044 42.1911 19.5044 42.1911L19.4511 41.8463C19.4511 41.8463 19.3477 41.2914 20.0091 41.3008C20.6737 41.3008 20.5608 41.6331 20.4448 42.0751ZM22.6298 44.6707C22.589 44.7898 22.426 44.6864 22.3069 44.5892C22.2348 44.5296 22.2724 44.1973 22.2724 44.1973L22.379 43.887C22.379 43.887 22.5733 43.8243 22.636 44.0187C22.6987 44.2162 22.6956 44.4763 22.6298 44.6707ZM23.5138 39.8337C23.0028 40.3635 22.8523 39.8275 22.8523 39.8275C22.8523 39.8275 23.0028 39.3008 23.147 39.2538C23.2912 39.2068 23.5294 39.4983 23.5294 39.4983C23.658 39.5924 23.5138 39.8337 23.5138 39.8337ZM25.078 42.3886C24.846 42.6362 24.6141 42.6958 24.3821 42.5673C24.1533 42.4387 24.1564 42.1284 24.1564 42.1284C24.1564 42.1284 24.3006 41.8651 24.6203 41.8212C24.6235 41.8212 25.31 42.1409 25.078 42.3886Z" fill="#BE7539"/>
<path d="M64.6231 42.6023C67.4726 39.6933 73.1904 32.0946 71.7798 19.0038C70.4193 6.38006 59.6451 0.389508 52.7925 0.317408C52.4288 0.314273 52.0715 0.326812 51.7329 0.35816C44.5261 1.01019 40.1813 4.14183 37.7299 6.82519C34.5136 4.11362 29.567 1.0917 22.8147 0.129322C22.2598 0.0509526 21.683 0.00706657 21.1031 0.000797026C16.4699 -0.0493593 11.2975 2.27037 7.25993 6.20764C2.86811 10.4929 0.303872 16.079 0.0374161 21.9411C-0.188287 26.9128 0.607944 31.4206 2.40417 35.3391C3.87438 38.5459 6.00915 41.3641 8.75521 43.7183C8.40725 44.549 8.38531 45.4362 8.67684 46.4236C9.3853 48.8186 12.3445 50.8687 15.1376 50.8969C16.0436 50.9063 16.8868 50.712 17.6486 50.3233C18.2191 50.0317 18.7489 49.7465 19.2504 49.4612C22.2504 50.8969 27.5356 52.596 36.034 52.8656C36.1562 52.8687 36.2848 52.8718 36.4133 52.875C40.5919 52.9189 48.0966 51.7277 50.7799 50.922C51.0683 50.8342 51.3912 50.7496 51.7643 50.6493C52.6232 50.4173 53.6827 50.132 54.9241 49.6869C55.2282 49.8562 55.4978 50.0067 55.7329 50.1352C56.5479 50.5803 57.4727 51.0882 58.6357 51.1007C59.4131 51.1101 60.2344 50.8969 61.1435 50.4549C63.2407 49.433 64.1811 47.7434 64.6043 46.5051C65.1341 44.9471 65.0463 43.5271 64.7265 42.8124C64.6889 42.7371 64.6576 42.6682 64.6231 42.6023ZM9.48561 42.5428C9.45427 42.5773 9.42605 42.6149 9.39784 42.6494C9.38217 42.6713 9.36336 42.6901 9.34768 42.712C6.80539 40.4926 4.82108 37.8532 3.45118 34.8594C1.73333 31.1071 0.971577 26.7811 1.19101 21.9912C1.44179 16.4239 3.88378 11.1104 8.06556 7.03209C11.8868 3.30484 16.7551 1.10737 21.0905 1.15439C21.6203 1.16066 22.147 1.19828 22.6548 1.27038C29.4698 2.23902 34.3726 5.39887 37.4384 8.09164C41.0622 11.286 42.8145 14.4239 42.8991 14.5806C42.9054 14.59 42.9179 14.6182 42.9367 14.6621C43.2816 15.4145 45.6107 21.032 41.2502 26.6463C41.2346 26.6307 41.2158 26.6181 41.2001 26.6025C39.755 25.3266 38.5732 24.126 37.7268 23.079C37.6986 23.0445 37.6703 23.01 37.6421 22.9755C37.6076 22.9316 37.5732 22.8878 37.5387 22.8439C37.4666 22.7498 37.3913 22.6558 37.3224 22.5617C37.3224 22.5586 37.3192 22.5586 37.3192 22.5555C37.0779 22.2263 36.8459 21.9066 36.6202 21.5994C36.4384 21.3486 36.2597 21.1041 36.0841 20.8627C35.8428 20.5304 35.6139 20.2107 35.3914 19.9097C35.3882 19.9066 35.3851 19.9035 35.382 19.8972C35.1657 19.6025 34.9588 19.3204 34.7613 19.0571C34.755 19.0508 34.7519 19.0445 34.7456 19.0383C34.6986 18.9756 34.6547 18.916 34.6077 18.8564C34.6014 18.847 34.5951 18.8408 34.5889 18.8314C34.5418 18.7687 34.4979 18.7091 34.4509 18.6495C34.4509 18.6495 34.4509 18.6464 34.4478 18.6464C33.3788 17.2452 32.5544 16.3455 31.755 16.0101C27.94 11.2484 23.1438 9.93175 20.8962 9.90667C20.8021 9.90667 20.7206 9.90667 20.6485 9.91294C19.683 9.98191 18.3664 10.4333 17.1251 11.1167C16.0028 11.7342 14.3759 12.8596 12.9934 14.6997C9.77715 18.985 10.0373 24.2451 10.821 27.9034C11.6204 31.6369 13.7113 34.8783 17.0341 37.5491C16.6768 37.7591 16.3257 37.9629 15.9809 38.1604C15.9746 38.1635 15.9715 38.1666 15.9683 38.1698C15.6266 38.3673 15.2881 38.5585 14.9558 38.7466C14.7458 38.8657 14.542 38.9817 14.3414 39.0977C14.2567 39.1478 14.1721 39.1948 14.0875 39.2419C14.0342 39.2732 13.9809 39.3046 13.9276 39.3359C13.8367 39.3892 13.7458 39.4425 13.6549 39.4926C13.6047 39.5209 13.5545 39.5522 13.5044 39.5804C13.4135 39.6337 13.3226 39.687 13.2348 39.7372C13.1878 39.7654 13.1408 39.7904 13.0969 39.8187C13.0028 39.8751 12.9088 39.9315 12.8147 39.9879C12.7771 40.0099 12.7395 40.0318 12.705 40.0538C12.5796 40.129 12.4574 40.2042 12.3383 40.2763C12.2975 40.3014 12.2599 40.3265 12.2191 40.3516C12.1408 40.3986 12.0655 40.4487 11.9903 40.4958C11.9339 40.5334 11.8774 40.5679 11.821 40.6055C11.7677 40.64 11.7113 40.6776 11.658 40.7121C11.5953 40.7528 11.5358 40.7936 11.4762 40.8343C11.4323 40.8657 11.3884 40.8939 11.3445 40.9252C11.2787 40.9691 11.216 41.0161 11.1533 41.06C11.1188 41.0851 11.0875 41.107 11.053 41.1321C10.984 41.1823 10.9151 41.2324 10.8492 41.2826C10.8336 41.292 10.821 41.3045 10.8054 41.3139C10.5671 41.4958 10.3414 41.6776 10.1376 41.8657C10.122 41.8813 10.1063 41.8939 10.0906 41.9095C10.0373 41.9597 9.98404 42.0099 9.93075 42.06C9.91508 42.0757 9.89627 42.0914 9.8806 42.107C9.87119 42.1164 9.86492 42.1258 9.85552 42.1353C9.79909 42.1917 9.7458 42.245 9.69564 42.3014C9.66743 42.3296 9.64235 42.3578 9.61414 42.3892C9.57025 42.4425 9.5295 42.4926 9.48561 42.5428ZM44.9963 18.4113C44.9273 17.3643 44.7424 16.4615 44.5418 15.7499C46.6985 14.0007 49.6264 12.4458 51.4915 12.0791C51.9712 11.985 52.4508 11.938 52.9116 11.9443C54.9899 11.9662 56.9053 13.0258 58.3065 14.9286C59.6796 16.7938 60.457 19.2671 60.4977 21.8972C60.5886 27.9316 58.7266 32.7905 54.9649 36.3422C53.457 35.4645 51.7267 34.3955 49.7298 33.0538C47.7141 31.6996 44.7675 29.6244 42.1186 27.3956C44.7518 24.0319 45.1468 20.6777 44.9963 18.4113ZM27.9055 29.01C26.2159 30.9723 24.3601 32.6432 21.9369 34.3892C20.5984 35.3547 19.3163 36.1792 18.0968 36.919C14.7426 34.3359 12.7301 31.3046 11.9495 27.6651C10.8806 22.684 11.542 18.5555 13.915 15.3957C16.1313 12.4396 19.2724 11.17 20.7332 11.0665C20.7551 11.0665 20.8021 11.0634 20.8836 11.0634C21.0999 11.0665 25.9714 11.1763 30.2848 16.0571C30.0685 16.1731 29.8648 16.3392 29.6704 16.5587L29.6359 16.5994C29.5387 16.7342 27.2221 19.9536 27.172 24.5868C27.1563 26.267 27.4008 27.7467 27.9055 29.01ZM18.9526 48.2982C18.9244 48.3139 18.8931 48.3327 18.8648 48.3484L18.8053 48.3829C18.2786 48.6838 17.7207 48.9847 17.1156 49.2951C16.5232 49.5991 15.8617 49.7496 15.1439 49.7433C12.8524 49.7183 10.3445 48.0129 9.77715 46.0945C9.5295 45.2606 9.58279 44.5678 9.92762 43.9189L9.96523 43.8531C10.2536 43.3453 10.7238 42.8594 11.3414 42.3735C12.3226 41.6023 13.7207 40.7873 15.5263 39.756C15.7332 39.6368 15.9464 39.5146 16.1658 39.3923C16.1846 39.3829 16.2034 39.3704 16.2191 39.361C16.2818 39.3265 16.3445 39.2889 16.4072 39.2513C16.4856 39.2074 16.5608 39.1635 16.6392 39.1165C16.6736 39.0977 16.7081 39.0757 16.7426 39.0569C16.8555 38.9911 16.9714 38.9252 17.0874 38.8563C17.0968 38.85 17.1062 38.8469 17.1125 38.8406C17.5138 38.6055 17.9276 38.3641 18.3507 38.1102L19.0874 37.6682L19.0811 37.6651C20.2034 36.9723 21.3883 36.2011 22.6015 35.3265C24.9494 33.6369 26.7801 32.0099 28.4447 30.1353V30.1385C28.5231 30.2733 28.6077 30.4049 28.6955 30.5335C28.7018 30.5429 28.708 30.5523 28.7143 30.5585C28.7958 30.6777 28.8804 30.7936 28.9682 30.9065C28.9808 30.9222 28.9902 30.9378 29.0027 30.9535C29.0842 31.0601 29.172 31.1604 29.2598 31.2607C29.2754 31.2795 29.2942 31.3015 29.3099 31.3203C29.4134 31.4363 29.5199 31.5491 29.6328 31.6588C29.7927 31.8156 29.9557 31.9755 30.1187 32.1322C30.1563 32.1667 30.1939 32.2043 30.2315 32.2388C30.3695 32.3704 30.5074 32.5021 30.6453 32.6338C30.6735 32.6588 30.7017 32.687 30.73 32.7121C31.8491 33.7623 33.0246 34.7905 34.2315 35.7936C32.3318 37.8249 30.1281 39.8751 27.824 41.7434L27.0121 42.4017C26.7739 42.5961 26.545 42.781 26.3193 42.9628C26.2911 42.9848 26.2629 43.0067 26.2347 43.0318C26.1657 43.0882 26.0936 43.1446 26.0247 43.2011C25.9745 43.2418 25.9244 43.2826 25.8711 43.3233C25.8303 43.3578 25.7864 43.3923 25.7457 43.4236C23.1783 45.5114 21.3601 46.9126 18.9526 48.2982ZM35.1343 36.5271C37.523 38.4582 40.0089 40.2795 42.4101 41.9315C40.3412 42.3484 37.8428 42.5773 35.4697 42.5522C33.3694 42.5302 31.3381 42.3202 29.4165 41.9315C31.4729 40.2074 33.4259 38.361 35.1343 36.5271ZM51.4633 49.5333C51.0966 49.6305 50.7517 49.7245 50.4445 49.8154C47.827 50.5991 40.5042 51.7621 36.4227 51.7182C36.3004 51.7182 36.1813 51.7151 36.0685 51.712C28.4134 51.4706 23.4573 50.0537 20.4604 48.7465C22.4009 47.5553 24.0215 46.3108 26.1814 44.571L26.1845 44.5678C26.2598 44.5083 26.335 44.4456 26.4134 44.3829C26.4447 44.3578 26.4729 44.3327 26.5043 44.3076C26.5732 44.2512 26.6391 44.1979 26.708 44.1415C26.799 44.0663 26.893 43.991 26.987 43.9158C27.009 43.897 27.0309 43.8782 27.056 43.8625C27.2817 43.6776 27.5137 43.4895 27.7519 43.2951L28.2817 42.8625C30.5387 43.3923 32.9525 43.6744 35.4572 43.7026C38.3286 43.734 41.3913 43.4048 43.7173 42.8155C47.5919 45.4174 51.1467 47.5365 53.573 48.922C52.7768 49.1791 52.0683 49.3703 51.4633 49.5333ZM60.6357 49.4142C59.8927 49.7778 59.2407 49.9502 58.6451 49.944C57.8332 49.9346 57.1529 49.596 56.2846 49.1195C56.0589 48.9941 55.8332 48.8719 55.6106 48.7465L55.2564 48.549C53.1342 47.3609 48.8677 44.8907 44.153 41.7152L43.9336 41.5679L43.9179 41.571C36.9901 36.8532 32.6798 32.9817 30.8585 31.2325C30.7268 31.104 30.592 30.9755 30.4635 30.8501C30.4604 30.8469 30.4541 30.8438 30.451 30.8375C30.3695 30.7592 30.2942 30.6777 30.219 30.593C30.1908 30.5617 30.1626 30.5303 30.1344 30.4958C30.0905 30.4457 30.0466 30.3924 30.0027 30.3391C29.9682 30.2984 29.9369 30.2545 29.9024 30.2137C29.8679 30.1698 29.8365 30.1259 29.8052 30.0821C29.6641 29.8908 29.5325 29.6871 29.4134 29.477C29.4008 29.452 29.3851 29.4269 29.3726 29.4049C29.3318 29.3328 29.2942 29.2607 29.2566 29.1855C29.2441 29.1636 29.2347 29.1385 29.2221 29.1165C29.1845 29.0382 29.1438 28.9567 29.1093 28.8783L29.103 28.8658C28.5732 27.684 28.313 26.2576 28.3319 24.5993C28.3757 20.5335 30.3695 17.5743 30.5575 17.3016C30.824 17.0101 30.9964 17.0132 31.0528 17.0132C31.0936 17.0132 31.1375 17.0195 31.1845 17.032L31.2284 17.0477C32.0936 17.3298 33.4415 19.1887 35.1468 21.5429C35.2283 21.6558 35.313 21.7718 35.3976 21.8878C35.7111 22.3204 36.0371 22.7686 36.3851 23.242C36.4446 23.3235 36.5073 23.405 36.5732 23.4928C36.5763 23.4959 36.5794 23.5022 36.5826 23.5053C38.1656 25.5586 41.6076 28.9912 49.0903 34.0162C50.9743 35.2826 52.6232 36.3077 54.0746 37.1604L54.0715 37.1635L54.41 37.3579C56.0087 38.2889 57.3598 39.0068 58.5166 39.6118C58.5228 39.6149 58.526 39.618 58.5322 39.618C58.5667 39.6368 58.6043 39.6556 58.6388 39.6745C58.8426 39.781 59.0401 39.8813 59.2282 39.9817C59.5824 40.1666 59.9115 40.3359 60.2156 40.4989C60.2219 40.502 60.225 40.5052 60.2313 40.5052C60.2846 40.5334 60.3379 40.5616 60.388 40.5867C60.41 40.5992 60.4319 40.6118 60.457 40.6212C60.4915 40.64 60.5291 40.6588 60.5636 40.6776C62.2657 41.5898 63.1999 42.2293 63.6701 43.2794C64.0682 44.1697 63.9021 47.8249 60.6357 49.4142ZM63.9554 41.6337C63.9523 41.6306 63.946 41.6243 63.9429 41.6211C63.8425 41.5114 63.7391 41.408 63.6262 41.3045C63.6137 41.292 63.598 41.2795 63.5855 41.2669C63.5353 41.223 63.4883 41.1791 63.435 41.1353C63.4287 41.129 63.4193 41.1227 63.4131 41.1165C63.3566 41.0694 63.2971 41.0224 63.2375 40.9754C63.2187 40.9597 63.1999 40.9472 63.1811 40.9315C63.1341 40.8939 63.0839 40.8563 63.0338 40.8218C63.0181 40.8124 63.0056 40.7998 62.9899 40.7904C62.9272 40.7465 62.8645 40.6995 62.7987 40.6556C62.7799 40.6431 62.7579 40.6274 62.736 40.6149C62.6827 40.5773 62.6262 40.5428 62.5698 40.5052C62.551 40.4926 62.5353 40.4832 62.5197 40.4707C62.4476 40.4237 62.3755 40.3798 62.3002 40.3328C62.2846 40.3234 62.2657 40.3108 62.2501 40.3014C62.1842 40.2607 62.1153 40.2199 62.0463 40.1792C62.0306 40.1698 62.0181 40.1603 62.0024 40.1541C61.9178 40.1039 61.8331 40.0569 61.7454 40.0067C61.7391 40.0036 61.7328 40.0005 61.7266 39.9973C61.6388 39.9472 61.551 39.9002 61.4632 39.85C61.4538 39.8437 61.4476 39.8406 61.4382 39.8343C60.9397 39.5616 60.3849 39.2732 59.7642 38.9503C59.6984 38.9158 59.6325 38.8814 59.5636 38.8469C59.5479 38.8406 59.5354 38.8312 59.5197 38.8249C59.4601 38.7936 59.4006 38.7622 59.341 38.734C58.4006 38.245 57.2909 37.6619 56.0119 36.9409C59.852 33.1823 61.7516 28.1197 61.6545 21.8784C61.6106 19.01 60.7517 16.2985 59.2376 14.2421C57.6169 12.0415 55.3755 10.8158 52.9241 10.7875C52.3818 10.7813 51.8238 10.8346 51.2658 10.9443C49.0746 11.3769 46.175 13.0164 44.1499 14.5838C44.0214 14.2577 43.9273 14.0696 43.9148 14.0477L43.9085 14.0383C43.8991 14.0226 43.8646 13.9599 43.8082 13.8565C43.8082 13.8565 43.8082 13.8533 43.8051 13.8533C43.7925 13.8283 43.7769 13.8032 43.7581 13.775C43.7549 13.7687 43.7518 13.7624 43.7487 13.7562C43.733 13.7311 43.7204 13.706 43.7048 13.6809C43.6985 13.6684 43.6891 13.6559 43.6828 13.6433C43.6703 13.6214 43.6546 13.5963 43.6389 13.5744C43.6295 13.5555 43.617 13.5367 43.6045 13.5211C43.5919 13.4991 43.5762 13.4772 43.5637 13.4552C43.5512 13.4333 43.5355 13.4082 43.5198 13.3863C43.5073 13.3643 43.4947 13.3455 43.4791 13.3204C43.4634 13.2922 43.4446 13.264 43.4258 13.2358C43.4132 13.217 43.4007 13.195 43.385 13.1731C43.3631 13.1418 43.3411 13.1073 43.3192 13.0728C43.3067 13.054 43.2941 13.0352 43.2816 13.0132C43.2565 12.9756 43.2314 12.938 43.2063 12.9004C43.1938 12.8816 43.1813 12.8628 43.1687 12.844C43.1405 12.8032 43.1123 12.7624 43.0841 12.7186C43.0715 12.6998 43.059 12.6809 43.0465 12.6621C43.0151 12.6182 42.9869 12.5744 42.9524 12.5273C42.9399 12.5085 42.9273 12.4897 42.9148 12.4709C42.8803 12.4239 42.849 12.3737 42.8114 12.3267C42.7988 12.3079 42.7863 12.2891 42.7737 12.2703C42.7361 12.2201 42.7016 12.1668 42.664 12.1167C42.6515 12.0979 42.6358 12.0791 42.6233 12.0603C42.5857 12.007 42.5449 11.9537 42.5042 11.8973C42.4916 11.8784 42.4759 11.8596 42.4634 11.8408C42.4226 11.7844 42.3788 11.728 42.3349 11.6715C42.3192 11.6527 42.3067 11.6339 42.291 11.6151C42.2471 11.5556 42.2001 11.496 42.1562 11.4364C42.1405 11.4176 42.1248 11.3988 42.1123 11.3769C42.0653 11.3173 42.0183 11.2546 41.9681 11.1919C41.9524 11.1731 41.9368 11.1512 41.9211 11.1324C41.8709 11.0697 41.8208 11.007 41.7706 10.9443C41.7549 10.9223 41.7361 10.9035 41.7205 10.8816C41.6703 10.8189 41.617 10.7562 41.5637 10.6904C41.5449 10.6684 41.5261 10.6433 41.5073 10.6214C41.454 10.5587 41.4007 10.4929 41.3443 10.4302C41.3223 10.4051 41.3004 10.38 41.2816 10.3549C41.2283 10.2922 41.1719 10.2264 41.1186 10.1637C41.0935 10.1355 41.0684 10.1073 41.0465 10.0791C40.9932 10.0164 40.9368 9.95369 40.8803 9.891C40.8521 9.85965 40.8239 9.8283 40.7957 9.79696C40.7424 9.73739 40.686 9.6747 40.6327 9.61514C40.6013 9.58066 40.5669 9.54304 40.5324 9.50542C40.4791 9.449 40.4258 9.38944 40.3725 9.33301C40.3349 9.29226 40.2941 9.24837 40.2534 9.20762C40.2032 9.15433 40.1531 9.10417 40.1029 9.05088C40.0559 9.00072 40.0057 8.95057 39.9556 8.90041C39.9117 8.85652 39.8678 8.8095 39.8239 8.76561C39.7612 8.70292 39.6985 8.64022 39.6358 8.5744C39.6014 8.53991 39.57 8.50856 39.5355 8.47408C39.454 8.39258 39.3694 8.31107 39.2847 8.22643C39.2691 8.21076 39.2534 8.19509 39.2377 8.17941C39.1249 8.0697 39.0089 7.95998 38.8898 7.84713C38.7926 7.75622 38.6954 7.66531 38.5951 7.5744C40.9054 5.05091 45.0088 2.11363 51.8364 1.49608C52.1373 1.46787 52.4539 1.45846 52.7799 1.4616C55.4664 1.48981 59.6984 2.63714 63.5228 5.76564C66.3598 8.08537 69.8958 12.286 70.6325 19.1198C71.9647 31.5021 66.7234 38.7434 63.9554 41.6337Z" fill="#603813"/>
<path d="M30.4509 30.8379C30.4541 30.8411 30.4606 30.8476 30.4638 30.8508C30.4574 30.8443 30.4541 30.8411 30.4509 30.8379Z" fill="#603813"/>
<path d="M30.8584 31.233C30.7267 31.1045 30.5919 30.976 30.4634 30.8506C30.5919 30.976 30.7236 31.1045 30.8584 31.233Z" fill="#603813"/>
<path d="M59.1686 11.3111C58.5824 12.1136 59.736 12.1261 59.736 12.1261C59.736 12.1261 60.3159 11.7875 59.8613 11.3205C59.4037 10.8534 59.7548 10.5117 59.1686 11.3111Z" fill="white"/>
<path d="M50.241 4.63694C49.4322 4.85951 49.9996 5.67455 49.9996 5.67455C49.9996 5.67455 49.9996 5.67455 50.6892 5.91279C51.3789 6.15104 51.0497 4.41437 50.241 4.63694Z" fill="white"/>
<path d="M17.7051 8.6973C18.542 8.6252 18.1283 7.72239 18.1283 7.72239C18.1283 7.72239 18.1283 7.72239 17.4919 7.36503C16.8555 7.00453 16.8681 8.7694 17.7051 8.6973Z" fill="white"/>
<path d="M54.1405 3.38384C53.5637 3.37757 53.4414 3.95437 53.4414 3.95437C53.4414 3.95437 53.7831 4.30546 54.1311 4.3086C54.4759 4.3086 54.7173 3.39011 54.1405 3.38384Z" fill="white"/>
<path d="M55.0308 6.39243C54.3349 6.615 54.3286 7.42377 54.3286 7.42377C54.3286 7.42377 54.8991 8.00684 55.2502 7.43317C55.6013 6.85951 55.7267 6.16986 55.0308 6.39243Z" fill="white"/>
<path d="M27.5794 4.89429C27.8082 4.2015 27.1625 3.71875 27.1625 3.71875C27.1625 3.71875 26.3537 3.83474 26.6108 4.45856C26.8647 5.08238 27.3506 5.58707 27.5794 4.89429Z" fill="white"/>
<path d="M6.88056 24.3577C6.71442 24.5019 6.57022 24.7339 6.79592 25.0411C7.19404 25.5834 7.78965 25.9565 7.84294 25.2292C7.87115 24.8656 7.69874 24.6054 7.51692 24.4361C7.33824 24.27 7.00909 24.248 6.88056 24.3577Z" fill="white"/>
<path d="M40.6639 15.0947C41.3598 14.6401 40.4444 13.9379 39.9836 13.9317C39.5228 13.9254 39.7454 14.7373 39.7454 14.7373C39.7454 14.7373 39.9648 15.5492 40.6639 15.0947Z" fill="white"/>
<path d="M58.714 7.23914C58.1372 7.34886 58.7078 7.93193 58.7078 7.93193C59.8614 7.94446 59.294 7.13256 58.714 7.23914Z" fill="white"/>
<path d="M37.0497 10.8875C37.2096 10.8185 37.382 10.7025 37.4415 10.5301C37.5607 10.1853 37.219 9.83421 36.7582 9.83108C36.5074 9.82794 36.5262 10.1728 36.5951 10.4862C36.6547 10.7464 36.893 10.9565 37.0497 10.8875Z" fill="white"/>
<path d="M47.94 8.4397C46.8115 8.79707 47.3413 9.5933 47.3413 9.5933C47.545 9.80333 48.429 9.11054 48.429 9.11054C48.429 9.11054 49.0685 8.08234 47.94 8.4397Z" fill="white"/>
<path d="M13.8148 38.5463C14.0624 38.4303 13.7207 37.4429 13.7207 37.4429C13.7207 37.4429 13.0091 36.5683 12.9809 37.6686C12.9527 38.7689 13.8148 38.5463 13.8148 38.5463Z" fill="white"/>
<path d="M61.2439 34.3984C60.548 34.621 61.2345 35.3232 61.2345 35.3232C61.2345 35.3232 61.5762 35.7871 61.9273 35.2166C62.2784 34.6429 61.9398 34.1758 61.2439 34.3984Z" fill="white"/>
<path d="M63.6608 8.67848C63.0778 9.13302 63.7643 9.83521 63.7643 9.83521L64.2282 9.6095C64.2282 9.6095 64.2439 8.22394 63.6608 8.67848Z" fill="white"/>
<path d="M64.7673 13.2293C64.2281 13.1478 64.6074 13.8437 64.6074 13.8437C65.2908 14.4675 65.3033 13.3139 64.7673 13.2293Z" fill="white"/>
<path d="M4.45733 27.8255C4.60466 28.349 5.08115 27.7158 5.08115 27.7158C5.36328 26.8318 4.30999 27.302 4.45733 27.8255Z" fill="white"/>
<path d="M30.9964 24.8938C30.5607 24.7809 30.5419 25.3358 30.8021 25.6994C30.9431 25.8938 31.0779 25.7308 31.1751 25.5239C31.2723 25.3201 31.0905 24.9189 30.9964 24.8938Z" fill="white"/>
<path d="M35.7958 32.2644C35.9431 32.7879 36.4196 32.1546 36.4196 32.1546C36.4102 31.7252 35.6484 31.7409 35.7958 32.2644Z" fill="white"/>
<path d="M43.9086 38.5555C43.3694 38.474 43.7487 39.1699 43.7487 39.1699C44.4353 39.7937 44.4478 38.6401 43.9086 38.5555Z" fill="white"/>
<path d="M65.1591 22.4295C64.8927 22.2759 64.6074 22.5142 64.6074 22.5142L64.4507 22.6396C64.4507 22.6396 64.4475 23.0251 64.6764 23.1819C64.9052 23.3386 65.1372 23.2634 65.3723 22.9593C65.5071 22.7806 65.3504 22.5424 65.1591 22.4295Z" fill="white"/>
<path d="M24.6236 41.8223C24.3007 41.8662 24.1597 42.1295 24.1597 42.1295C24.1597 42.1295 24.1565 42.4429 24.3854 42.5683C24.6142 42.6969 24.8462 42.6373 25.0813 42.3897C25.3101 42.142 24.6236 41.8223 24.6236 41.8223Z" fill="white"/>
<path d="M8.99968 31.3423C8.87115 31.4144 8.77397 31.8815 9.00281 32.0382C9.23165 32.195 9.70814 32.1981 9.69873 31.8156C9.67679 31.0821 9.26613 31.1918 8.99968 31.3423Z" fill="white"/>
<path d="M69.2784 21.2959L68.8896 21.6752C69.1906 22.2175 69.4226 22.2207 69.6577 21.9134C69.8896 21.6094 69.2784 21.2959 69.2784 21.2959Z" fill="white"/>
<path d="M2.31965 23.1602C1.81495 23.273 1.93093 23.5395 1.93093 23.5395C2.23187 24.0818 2.46385 24.0849 2.69895 23.7777C2.93093 23.4736 2.31965 23.1602 2.31965 23.1602Z" fill="white"/>
<path d="M32.0967 21.1107C31.6579 20.7658 31.708 21.49 31.708 21.49C32.009 22.0323 32.2409 22.0354 32.4761 21.7282C32.708 21.4242 32.0967 21.1107 32.0967 21.1107Z" fill="white"/>
<path d="M32.1281 45.4423C32.2096 45.8185 32.8459 45.5552 32.8459 45.5552L32.8083 45.0129C32.2002 44.8938 32.0466 45.0662 32.1281 45.4423Z" fill="white"/>
<path d="M66.9177 13.6371C66.5321 13.7092 66.8299 14.5587 66.8299 14.5587C67.5165 15.1826 67.3033 13.565 66.9177 13.6371Z" fill="white"/>
<path d="M4.52638 19.5893C4.90256 19.4765 4.51698 18.6614 4.51698 18.6614C3.7709 18.1128 4.15021 19.7022 4.52638 19.5893Z" fill="white"/>
<path d="M43.2534 10.2739C43.6296 10.161 43.244 9.34597 43.244 9.34597C42.498 8.80052 42.8773 10.3867 43.2534 10.2739Z" fill="white"/>
<path d="M39.3504 19.0605C39.7955 19.1107 39.7266 18.7909 39.5918 18.5151C39.4946 18.3145 39.1654 18.1358 38.9962 18.1922C38.8426 18.2424 38.7078 18.3364 38.7423 18.5182C38.8144 18.9007 39.3504 19.0605 39.3504 19.0605Z" fill="white"/>
<path d="M30.6736 10.3522L30.8209 10.8914C30.8209 10.8914 31.1093 11.1014 31.5921 10.5904C31.9024 10.2644 31.5231 9.97288 31.1375 9.96975C30.7551 9.96661 30.6736 10.3522 30.6736 10.3522Z" fill="white"/>
<path d="M66.9303 19.486C66.9334 19.254 67.3253 18.6428 66.7861 18.7149C66.2469 18.787 66.5478 19.4045 66.5478 19.4045C66.6983 19.6365 66.9272 19.7149 66.9303 19.486Z" fill="white"/>
<path d="M6.85254 15.0446C6.89016 14.4114 6.11587 14.6183 6.11587 14.6183C5.81493 14.7405 5.67387 14.985 5.93719 15.0383C6.20051 15.0947 6.81492 15.6778 6.85254 15.0446Z" fill="white"/>
<path d="M10.2222 9.13894C10.7646 9.11073 10.5138 8.47124 10.5138 8.47124C10.3821 8.22672 10.1596 8.12955 10.1376 8.36152C10.1157 8.59036 9.6768 9.16715 10.2222 9.13894Z" fill="white"/>
<path d="M67.228 25.6529C68.1464 26.0103 68.391 24.8567 67.8142 24.7344C67.2374 24.6153 66.8863 25.5212 67.228 25.6529Z" fill="white"/>
<path d="M4.38531 31.9278C4.10632 32.8745 5.27245 33.0219 5.34769 32.4357C5.41979 31.8526 4.48876 31.5767 4.38531 31.9278Z" fill="white"/>
<path d="M67.3064 34.1202C66.8456 34.1139 66.8394 34.6907 66.8394 34.6907L67.529 34.813C67.529 34.8161 67.7673 34.1264 67.3064 34.1202Z" fill="white"/>
<path d="M60.0338 37.7273C60.0903 37.2539 59.6796 37.1505 59.6012 37.3762C59.5229 37.6019 59.595 38.0564 59.595 38.0564C59.595 38.0564 60.0464 38.2884 60.0495 38.0627C60.0495 37.9875 60.015 37.8621 60.0338 37.7273Z" fill="white"/>
<path d="M13.1596 5.84719C13.3038 5.79703 13.4981 5.7218 13.658 5.6591C13.8241 5.59327 13.9934 5.43026 14.0122 5.30487C14.0404 5.13559 14.031 4.94124 13.8398 4.94437C13.6737 4.94751 13.4511 5.02588 13.2724 5.10111C13.0906 5.17948 12.9339 5.38638 12.9401 5.52744C12.9495 5.70926 12.9934 5.90675 13.1596 5.84719Z" fill="white"/>
<path d="M27.9527 45.9941C27.9527 45.9941 27.4606 46.3766 27.7113 46.4957C27.8524 46.5615 28.1596 46.6775 28.4073 46.7684C28.6016 46.8405 28.7897 46.8249 28.8054 46.7339C28.8242 46.6211 28.8211 46.4675 28.7051 46.3546C28.495 46.1509 27.9527 45.9941 27.9527 45.9941Z" fill="white"/>
<path d="M30.8239 6.11636C31.1406 6.07561 31.0559 5.81856 30.7581 5.58972C30.4603 5.35775 30.0183 5.68063 30.0183 5.68063C29.9525 6.00978 30.5073 6.15711 30.8239 6.11636Z" fill="white"/>
<path d="M40.2941 45.8407C39.9743 45.8752 40.059 46.1354 40.3537 46.3705C40.6483 46.6056 41.0966 46.289 41.0966 46.289C41.1656 45.9598 40.6138 45.8062 40.2941 45.8407Z" fill="white"/>
<path d="M58.7173 47.49C58.5574 47.6216 57.8583 47.9539 58.5354 48.0981C59.2126 48.2423 59.3944 47.6373 59.3944 47.6373C59.0527 47.1702 58.8771 47.3583 58.7173 47.49Z" fill="white"/>
<path d="M47.4131 40.8906C47.1184 40.8875 47.0401 41.2919 47.0212 41.596C47.0118 41.7809 47.1372 41.9659 47.2877 41.9753C47.4727 41.9878 47.7172 41.9533 47.877 41.7464C48.1654 41.3734 47.8864 40.8969 47.4131 40.8906Z" fill="white"/>
<path d="M18.6048 44.6836C18.307 44.74 18.3446 45.1757 18.4105 45.4861C18.4481 45.6679 18.6393 45.8089 18.7929 45.7619C18.9465 45.718 19.1095 45.624 19.1565 45.439C19.2569 45.066 19.075 44.5958 18.6048 44.6836Z" fill="white"/>
<path d="M32.6736 29.1354C32.2034 29.2232 32.567 30.2608 32.567 30.2608C32.567 30.2608 33.1281 30.267 33.2284 29.894C33.3256 29.5178 33.1438 29.0445 32.6736 29.1354Z" fill="white"/>
<path d="M10.5578 35.6432C10.0875 35.731 10.4543 36.5805 10.4543 36.5805C11.3853 37.2451 11.028 35.5523 10.5578 35.6432Z" fill="white"/>
<path d="M57.1936 44.7554C56.7923 44.5485 56.0839 44.7429 56.2814 45.1504C56.2814 45.1504 56.9397 45.7711 57.1873 45.5642C57.1842 45.5642 57.5948 44.9623 57.1936 44.7554Z" fill="white"/>
<path d="M45.6952 4.40822C45.457 4.40508 45.1341 4.9568 45.1341 4.9568C45.1278 5.67153 45.6074 5.11981 46.0056 4.96621C46.4037 4.8126 45.9335 4.40822 45.6952 4.40822Z" fill="white"/>
<path d="M35.1688 25.0572C34.2597 24.9851 34.918 25.6465 35.081 26.17C35.244 26.6904 35.7957 26.123 35.8208 25.8221C35.8428 25.518 35.1688 25.0572 35.1688 25.0572Z" fill="white"/>
<path d="M67.9742 29.4118C67.6263 29.4651 67.1592 30.0387 67.1592 30.0387C67.1592 30.0387 67.1655 30.4337 67.7924 30.277C68.0714 30.208 68.2563 30.0513 68.4915 29.766C68.7234 29.4776 68.3222 29.3585 67.9742 29.4118Z" fill="white"/>
<path d="M63.5007 36.9915C62.88 36.8817 63.1841 37.5056 63.1841 37.5056C63.1841 37.5056 63.1841 37.5056 63.8016 37.7187C64.4223 37.9319 64.1214 37.1012 63.5007 36.9915Z" fill="white"/>
<path d="M8.75847 38.5996C8.16286 38.493 8.4544 39.0949 8.4544 39.0949C8.4544 39.0949 8.4544 39.0949 9.05 39.2986C9.64248 39.5024 9.35408 38.7061 8.75847 38.5996Z" fill="white"/>
<path d="M12.7176 43.5242C12.4448 43.4741 12.4041 43.612 12.4229 43.7405C12.4354 43.8346 12.4762 43.9192 12.6799 43.9882C12.7458 44.0101 12.8335 44.0415 12.9527 44.0822C13.4229 44.2452 13.1909 43.6089 12.7176 43.5242Z" fill="white"/>
<path d="M44.172 35.2448C43.7394 35.1069 43.288 35.3671 43.4259 35.8529C43.5639 36.3388 44.4823 36.3388 44.4823 36.3388C44.4823 36.3388 45.0717 36.5645 45.0905 36.1664C45.1093 35.762 44.6046 35.3827 44.172 35.2448Z" fill="white"/>
<path d="M64.8708 31.7598C64.6389 31.7566 64.5762 32.4494 64.5762 32.4494C64.5762 32.4494 64.573 32.6814 64.805 32.6814C65.037 32.6845 65.0401 32.3366 65.0401 32.1642C65.0401 31.9917 65.1028 31.7598 64.8708 31.7598Z" fill="white"/>
<path d="M31.7078 35.8591C31.9398 35.8623 31.8583 35.5049 31.943 35.3419C32.0245 35.1883 32.0056 34.9375 31.7737 34.9375C31.5417 34.9344 31.479 35.6272 31.479 35.6272C31.479 35.6272 31.4759 35.8591 31.7078 35.8591Z" fill="white"/>
<path d="M63.6953 28.329C63.4069 28.3823 63.4006 29.0186 63.4006 29.0186C63.4006 29.0186 63.9179 29.2537 64.1498 28.9685C64.3818 28.6832 63.9837 28.2757 63.6953 28.329Z" fill="white"/>
<path d="M8.72382 19.5085C8.95893 19.2232 8.55768 18.8157 8.26928 18.869C7.98088 18.9223 7.97461 19.5586 7.97461 19.5586C7.97461 19.5586 8.48871 19.7969 8.72382 19.5085Z" fill="white"/>
<path d="M56.0465 40.7373C55.686 40.7342 55.6797 41.1668 55.6797 41.1668C55.6797 41.1668 55.8929 41.3862 56.1844 41.3173C56.4759 41.2452 56.407 40.7405 56.0465 40.7373Z" fill="white"/>
<path d="M51.4351 39.5332C51.0307 39.5301 51.1247 40.1351 51.1247 40.1351C52.0244 40.9533 51.8394 39.5364 51.4351 39.5332Z" fill="white"/>
<path d="M60.0619 43.4297C59.8362 43.4266 59.4945 43.6711 59.7296 43.9626C60.159 44.4987 60.4349 44.0379 60.4349 44.0379C60.4349 44.0379 60.2876 43.4329 60.0619 43.4297Z" fill="white"/>
<path d="M52.8769 43.3855C52.0682 43.608 52.6356 44.4231 52.6356 44.4231C52.6356 44.4231 52.6356 44.4231 53.3252 44.6613C54.0149 44.8996 53.6857 43.166 52.8769 43.3855Z" fill="white"/>
<path d="M9.981 13.5622L9.83053 13.1766C9.83053 13.1766 10.2976 12.7973 9.75843 12.791C9.21925 12.7848 9.59542 13.7127 9.59542 13.7127C9.59542 13.7127 9.78978 13.9352 9.981 13.5622Z" fill="white"/>
<path d="M25.5922 7.03531C25.8242 6.96008 25.6768 6.4209 25.6768 6.4209C25.6768 6.4209 25.3665 6.57137 25.0593 6.6466C24.7521 6.7187 25.1314 7.11055 25.1314 7.11055C25.1314 7.11055 25.3633 7.11055 25.5922 7.03531Z" fill="white"/>
<path d="M39.7363 33.2329C39.7363 33.2329 38.8805 32.7658 38.846 33.1922C38.7238 34.6592 39.9401 34.0072 39.9401 34.0072C39.9401 34.0072 40.6893 34.073 40.241 33.3364C40.0749 33.0668 39.7363 33.2329 39.7363 33.2329Z" fill="white"/>
<path d="M22.3788 43.8874L22.2723 44.1977C22.2723 44.1977 22.2346 44.5269 22.3067 44.5896C22.4259 44.6868 22.5889 44.7902 22.6296 44.6711C22.6955 44.4767 22.6986 44.2165 22.6359 44.0222C22.5732 43.8247 22.3788 43.8874 22.3788 43.8874Z" fill="white"/>
<path d="M24.9088 47.427C24.68 47.2327 24.2913 47.728 24.2913 47.728C24.2913 47.728 24.4417 48.1543 24.5201 48.0007C24.5985 47.8471 24.7897 47.9662 24.9057 47.9286C25.0185 47.891 25.1376 47.6214 24.9088 47.427Z" fill="white"/>
<path d="M20.0123 41.295C19.3477 41.2887 19.4543 41.8404 19.4543 41.8404L19.5076 42.1853C19.5076 42.1853 19.7897 42.5081 20.0185 42.436C20.2066 42.3796 20.3947 42.2699 20.448 42.0693C20.5609 41.6335 20.6737 41.3012 20.0123 41.295Z" fill="white"/>
<path d="M15.0497 45.1791C14.6422 45.5772 14.5356 46.0819 14.5356 46.0819C14.5356 46.0819 14.9369 46.3891 15.241 46.2919C15.545 46.1948 15.5482 45.7904 15.6548 45.4894C15.7551 45.1885 15.4573 44.781 15.0497 45.1791Z" fill="white"/>
<path d="M23.5326 39.4957C23.5326 39.4957 23.2943 39.2042 23.1501 39.2512C23.0059 39.2982 22.8555 39.8249 22.8555 39.8249C22.8555 39.8249 23.0059 40.3609 23.5169 39.8312C23.5138 39.8343 23.658 39.5929 23.5326 39.4957Z" fill="white"/>
<path d="M48.9399 36.7095C48.8051 36.7816 48.6453 37.2831 48.6453 37.2831C48.6453 37.2831 48.755 37.6781 49.175 37.5057C49.244 37.4775 49.4321 37.1264 49.3851 36.9258C49.338 36.722 49.2221 36.5559 48.9399 36.7095Z" fill="white"/>
<path d="M28.0904 37.8597L28.4227 37.9162C28.4227 37.9162 29.1845 37.9162 28.9211 37.5525C28.7613 37.3331 28.1092 37.0729 27.7864 37.2234C27.4666 37.377 27.5826 37.7469 28.0904 37.8597Z" fill="white"/>
<path d="M28.6765 34.3762C28.7392 34.3198 28.7141 34.0941 28.6138 33.9373C28.5323 33.8088 28.4226 33.6897 28.3066 33.6865C28.0464 33.6834 28.106 34.2038 28.106 34.2038C28.3223 34.5956 28.5511 34.489 28.6765 34.3762Z" fill="white"/>
<path d="M20.7584 5.64724C21.0562 5.65037 21.0594 5.41213 20.9873 5.17389C20.9152 4.93564 20.6236 4.65665 20.3916 4.64098C20.2067 4.62844 19.9653 4.63157 19.6989 4.68173C19.1033 4.79458 19.5735 5.2742 19.5735 5.2742C19.5735 5.2742 20.1628 5.64097 20.7584 5.64724Z" fill="white"/>
<path d="M47.5073 47.8846C47.6296 47.9379 47.7612 47.963 47.8114 47.8501C47.9117 47.6276 48.3474 47.9536 48.36 47.5116C48.3757 47.0727 47.5888 47.4395 47.5888 47.4395C47.5888 47.4395 47.3851 47.8313 47.5073 47.8846Z" fill="white"/>
<path d="M36.2817 46.6677C35.8835 46.7429 36.3569 47.0658 36.3569 47.0658C36.4321 47.4639 36.8334 46.9122 36.8334 46.9122C36.8334 46.9122 36.6798 46.5925 36.2817 46.6677Z" fill="white"/>
<path d="M35.0527 16.4179C35.4508 16.5213 35.4446 16.3269 35.5198 16.0354C35.7016 15.3458 34.7236 14.8567 34.3725 15.374C34.0182 15.8881 35.0527 16.4179 35.0527 16.4179Z" fill="white"/>
<path d="M39.9148 22.8379C39.3631 22.8317 39.6859 23.4994 39.6859 23.4994C39.6859 23.4994 39.9022 23.9445 40.2377 23.5056C40.5762 23.0668 40.4696 22.8442 39.9148 22.8379Z" fill="white"/>
<path d="M7.29759 34.7334C6.74587 34.7272 7.06875 35.3949 7.06875 35.3949C7.06875 35.3949 7.28505 35.84 7.62047 35.4011C7.95903 34.9623 7.85244 34.7397 7.29759 34.7334Z" fill="white"/>
<path d="M39.7173 48.9374C39.3568 49.0533 39.1813 49.3261 39.0967 49.5612C39.0183 49.7806 39.1656 50.1223 39.36 50.1944C39.5449 50.2634 39.7675 50.2571 39.9399 49.9781C40.291 49.4044 40.4133 48.7148 39.7173 48.9374Z" fill="white"/>
<path d="M44.6734 49.6938C44.8677 49.4117 44.5605 49.1985 44.3191 49.0825C44.1875 49.0198 43.7925 49.0825 43.7298 49.1484C43.3881 49.4963 44.4195 50.0606 44.6734 49.6938Z" fill="white"/>
<path d="M33.9494 48.7212C33.8491 48.7995 33.7456 48.9155 33.6955 49.0848C33.5795 49.4829 34.2378 49.7494 34.4917 49.3168C34.6171 49.1005 34.5512 48.9155 34.4541 48.7839C34.3569 48.6553 34.0873 48.6146 33.9494 48.7212Z" fill="white"/>
<path d="M27.9619 48.4707C27.4384 48.4645 27.5324 49.6181 27.5324 49.6181L28.476 49.524C28.4729 49.5209 28.4854 48.477 27.9619 48.4707Z" fill="white"/>
</svg>
