<svg width="63" height="48" viewBox="0 0 63 48" fill="none" xmlns="http://www.w3.org/2000/svg">
<g filter="url(#filter0_dd_1_9152)">
<rect x="5" y="2" width="53" height="37" rx="7" stroke="#202020" stroke-width="2" stroke-miterlimit="1.78829" stroke-linecap="round" stroke-linejoin="round" stroke-dasharray="20 20"/>
<path d="M12.18 28V14.06H15.32V19.36H20.74V14.06H23.88V28H20.74V22.24H15.32V28H12.18ZM32.0425 28.36C30.2158 28.36 28.8358 27.9133 27.9025 27.02C26.9825 26.1267 26.5225 24.7733 26.5225 22.96V14.06H29.6625V22.6C29.6625 23.24 29.7158 23.7733 29.8225 24.2C29.9425 24.6267 30.1758 24.9467 30.5225 25.16C30.8692 25.3733 31.3758 25.48 32.0425 25.48C32.7092 25.48 33.2092 25.3733 33.5425 25.16C33.8892 24.9467 34.1225 24.6333 34.2425 24.22C34.3625 23.7933 34.4225 23.2667 34.4225 22.64V14.06H37.5625V22.86C37.5625 24.7133 37.0958 26.0933 36.1625 27C35.2425 27.9067 33.8692 28.36 32.0425 28.36ZM40.2066 28V14.06H44.4066C46.7399 14.06 48.5466 14.6733 49.8266 15.9C51.1066 17.1267 51.7466 18.8733 51.7466 21.14C51.7466 23.3533 51.1132 25.0533 49.8466 26.24C48.5932 27.4133 46.7732 28 44.3866 28H40.2066ZM43.3466 25.12H44.0666C45.0132 25.12 45.8199 25.0133 46.4866 24.8C47.1666 24.5867 47.6866 24.1867 48.0466 23.6C48.4066 23 48.5866 22.14 48.5866 21.02C48.5866 19.94 48.4132 19.1067 48.0666 18.52C47.7332 17.92 47.2466 17.5067 46.6066 17.28C45.9799 17.0533 45.2266 16.94 44.3466 16.94H43.3466V25.12Z" fill="#202020"/>
</g>
<defs>
<filter id="filter0_dd_1_9152" x="0" y="0.938477" width="63" height="47.0615" filterUnits="userSpaceOnUse" color-interpolation-filters="sRGB">
<feFlood flood-opacity="0" result="BackgroundImageFix"/>
<feColorMatrix in="SourceAlpha" type="matrix" values="0 0 0 0 0 0 0 0 0 0 0 0 0 0 0 0 0 0 127 0" result="hardAlpha"/>
<feOffset dy="4"/>
<feGaussianBlur stdDeviation="2"/>
<feComposite in2="hardAlpha" operator="out"/>
<feColorMatrix type="matrix" values="0 0 0 0 0 0 0 0 0 0 0 0 0 0 0 0 0 0 0.25 0"/>
<feBlend mode="normal" in2="BackgroundImageFix" result="effect1_dropShadow_1_9152"/>
<feColorMatrix in="SourceAlpha" type="matrix" values="0 0 0 0 0 0 0 0 0 0 0 0 0 0 0 0 0 0 127 0" result="hardAlpha"/>
<feOffset dy="4"/>
<feGaussianBlur stdDeviation="2"/>
<feComposite in2="hardAlpha" operator="out"/>
<feColorMatrix type="matrix" values="0 0 0 0 0 0 0 0 0 0 0 0 0 0 0 0 0 0 0.25 0"/>
<feBlend mode="normal" in2="effect1_dropShadow_1_9152" result="effect2_dropShadow_1_9152"/>
<feBlend mode="normal" in="SourceGraphic" in2="effect2_dropShadow_1_9152" result="shape"/>
</filter>
</defs>
</svg>
